<?xml version="1.0" encoding="utf-8"?>
<!DOCTYPE svg PUBLIC "-//W3C//DTD SVG 1.0//EN" "http://www.w3.org/TR/2001/REC-SVG-20010904/DTD/svg10.dtd">
<svg version="1.0" xmlns="http://www.w3.org/2000/svg" width="1024px" height="1024px" viewBox="100 100 800 800" preserveAspectRatio="xMidYMid meet">
 <g fill="rgba(12,12,12,0)">

  <path d="M444 662.70 c-5.90 -5.90 -13.20 -13 -16.25 -15.80 -8.85 -8.10 -41.80 -41.05 -48.70 -48.65 -12.65 -13.95 -25.30 -31.10 -31.85 -43 -1.05 -1.90 -2.95 -5.35 -4.30 -7.65 -1.30 -2.30 -2.40 -4.35 -2.40 -4.55 0 -0.20 -0.45 -0.80 -1 -1.30 -0.65 -0.60 -1 -1.55 -1 -2.85 0 -1.85 0.05 -1.90 1.75 -1.90 2.75 0 5.95 1.90 15.40 9.10 8.15 6.15 21.05 17.10 25.85 21.90 1.85 1.85 6 5.50 8.45 7.50 14.10 11.35 25.90 23.25 37.50 37.75 1.95 2.50 4.05 5.05 4.60 5.75 2.35 2.95 14.45 21.55 16.10 24.75 5.40 10.60 11.05 25.45 10.75 28.20 -0.15 1.15 -0.40 1.30 -2.15 1.40 -1.95 0.05 -2.15 -0.10 -12.75 -10.65z"/>
  <path d="M564.50 671.60 c0 -1.05 0.20 -2.10 0.45 -2.35 0.25 -0.30 0.90 -1.95 1.50 -3.75 0.60 -1.80 1.30 -3.65 1.55 -4.10 0.30 -0.50 0.50 -1.10 0.50 -1.40 0 -0.50 0.70 -2.20 3.25 -7.75 0.65 -1.35 1.65 -3.60 2.25 -5 0.65 -1.35 2.15 -4.20 3.40 -6.25 2.25 -3.80 11.05 -17.05 11.60 -17.50 0.15 -0.15 1.40 -1.80 2.75 -3.75 2.50 -3.60 3.45 -4.80 7.25 -9.25 1.20 -1.45 2.85 -3.45 3.55 -4.45 0.75 -1 4.25 -4.75 7.80 -8.35 5.85 -6 9.70 -9.50 17.15 -15.70 5.95 -5 17.60 -15.20 23.55 -20.70 4.40 -4.05 13.90 -12.10 17.95 -15.10 1.80 -1.35 4.75 -3.65 6.60 -5.10 1.85 -1.40 3.55 -2.60 3.80 -2.60 0.25 0 0.85 -0.45 1.35 -1 0.65 -0.70 1.55 -1 3.10 -1 2.10 0 2.15 0.05 2.15 1.65 -0.05 0.90 -0.75 2.75 -1.75 4.35 -0.90 1.50 -2.70 4.55 -3.95 6.75 -1.30 2.20 -3 5.15 -3.80 6.50 -0.85 1.40 -2.15 3.60 -2.90 4.95 -0.75 1.35 -1.60 2.85 -1.85 3.30 -0.85 1.40 -3.45 5.20 -3.80 5.50 -0.15 0.15 -1.25 1.70 -2.50 3.50 -4.60 6.75 -14.80 19.55 -20.20 25.30 -10.15 10.80 -14.75 15.65 -15.95 16.70 -0.80 0.70 -7.55 7.25 -15 14.55 -7.45 7.30 -15 14.60 -16.80 16.20 -1.80 1.60 -8.95 8.50 -15.95 15.35 -12.65 12.35 -12.70 12.40 -14.85 12.40 l-2.20 0 0 -1.90z"/>
 </g>
 <g fill="#e9d758" stroke="#ff8552" stroke-width="0.5">
  <path d="M505.75 411.50 c-1.90 -0.25 -4.05 -0.55 -4.75 -0.70 -0.70 -0.15 -2.45 -0.55 -3.95 -0.85 -12.95 -2.65 -27.30 -14.60 -32.90 -27.35 -0.65 -1.55 -1.45 -3.30 -1.65 -3.85 -3.75 -8.60 -4.20 -23.90 -0.95 -33 1.10 -3.05 1.35 -3.60 3.05 -7.25 5.30 -11.25 16.25 -21.60 27.80 -26.25 1.85 -0.75 3.80 -1.55 4.35 -1.80 0.55 -0.20 2 -0.65 3.25 -0.95 1.25 -0.35 3.15 -0.85 4.25 -1.15 2.65 -0.80 14.20 -0.70 18 0.10 10.70 2.25 20.60 8.25 29 17.60 3.80 4.20 5 6.05 8.05 12.45 3 6.25 4.65 11.85 5 17.25 0.10 1.10 0.25 2.75 0.40 3.65 0.45 3.40 -1.65 14.55 -3.80 20.10 -1 2.50 -1.60 3.75 -3.50 7.05 -3.20 5.65 -10.25 12.95 -16.10 16.70 -10 6.35 -24.20 9.65 -35.55 8.25z"/>
  <path d="M402.35 280 c-10 -1.25 -17 -8.40 -18.50 -18.80 -0.65 -4.40 0 -8.50 2.05 -12.70 2.55 -5.30 6.55 -8.65 12.65 -10.60 7.85 -2.55 16.85 -0.20 22.30 5.80 2.75 3.05 4.80 6.85 5.40 10.05 1.10 5.70 0.70 8.75 -1.90 14.25 -2.80 5.85 -8.15 10.10 -14.35 11.45 -4.10 0.90 -4.50 0.95 -7.65 0.55z"/>
  <path d="M613.25 279.05 c-2.85 -0.50 -7.55 -2.80 -10.10 -4.85 -7.65 -6.25 -9.60 -18.55 -4.40 -27.50 2.70 -4.65 7 -7.95 12.45 -9.65 3.90 -1.20 6.90 -1.30 10.80 -0.35 9.05 2.20 14.60 8.25 16.50 17.95 1.75 8.70 -3.55 18.70 -12 22.80 -2.55 1.25 -4.05 1.60 -7.20 1.75 -2.25 0.15 -4.95 0.05 -6.05 -0.15z"/>
  <path d="M504.75 240.40 c-6.25 -2.05 -11.05 -6.20 -13.95 -12.05 -1.60 -3.25 -1.90 -4.45 -2.15 -8.30 -0.30 -4.75 0.15 -7.60 1.90 -11.45 3.70 -8.05 11.60 -13.05 20.70 -13.10 13.20 -0.05 23.45 10.75 22.60 23.75 -0.25 4.30 -0.85 6.50 -2.60 9.85 -1.80 3.50 -3.30 5.20 -6.70 7.80 -4.30 3.25 -7.15 4.10 -13.20 4.05 -2.80 -0.05 -5.75 -0.30 -6.60 -0.55z"/>
 </g>
 <g fill="#ff8552">
  <path d="M511.30 640.90 c-0.15 -0.65 -0.40 -2.10 -0.55 -3.25 -0.65 -5.40 -0.85 -6.45 -1.10 -7.15 -0.15 -0.40 -0.40 -1.75 -0.50 -2.95 -0.10 -1.25 -0.40 -2.50 -0.70 -2.85 -0.30 -0.35 -0.40 -0.85 -0.25 -1.10 0.30 -0.55 -3.25 -16.75 -5.25 -23.60 -0.50 -1.80 -1.40 -4.95 -1.95 -7 -0.60 -2.05 -1.25 -4.20 -1.45 -4.75 -0.20 -0.55 -0.95 -2.70 -1.55 -4.75 -2.30 -7.30 -5.70 -16.30 -9 -23.75 -3.45 -7.80 -11.30 -23 -15 -29 -1 -1.65 -2.15 -3.55 -2.55 -4.25 -0.40 -0.70 -0.80 -1.35 -0.95 -1.50 -0.15 -0.15 -0.85 -1.05 -1.50 -2 -1.25 -1.85 -8.05 -10.50 -9.15 -11.60 -0.35 -0.35 -2.45 -2.80 -4.70 -5.40 -4.40 -5.20 -21.10 -21.75 -25.90 -25.75 -1.65 -1.35 -3.90 -3.25 -5 -4.25 -3.05 -2.65 -7.10 -6.05 -11 -9.25 -3.75 -3.05 -18.15 -15.85 -21.50 -19.05 -3.25 -3.15 -12.55 -13.25 -14.35 -15.60 -5.60 -7.30 -8.30 -11.05 -12.05 -16.60 -2.30 -3.45 -4.60 -6.95 -5.05 -7.75 -0.50 -0.85 -1.35 -2.30 -1.95 -3.35 -3.80 -6.35 -6.10 -10.30 -7.35 -12.75 -0.80 -1.50 -1.85 -3.20 -2.35 -3.75 -0.90 -1 -0.90 -1 0.85 -0.75 2.70 0.45 8.90 2.10 9.30 2.50 0.20 0.20 0.75 0.35 1.20 0.35 0.45 0 2.15 0.40 3.80 0.95 1.60 0.50 4.55 1.40 6.45 2 1.95 0.60 3.95 1.30 4.50 1.55 0.55 0.25 2.45 0.90 4.25 1.50 1.80 0.60 4.20 1.50 5.35 2.05 1.20 0.50 2.45 0.95 2.80 0.95 0.35 0 0.85 0.20 1.15 0.40 0.25 0.25 1.35 0.80 2.45 1.25 5.45 2.10 20.05 9.30 25.20 12.40 1.70 1.10 3.25 1.95 3.40 1.95 0.85 0 25.65 17.15 26.65 18.45 0.15 0.20 1.90 1.60 3.85 3.10 2 1.55 4.95 3.95 6.50 5.35 1.60 1.40 4.05 3.50 5.45 4.70 5.10 4.35 15 15.20 20.70 22.65 1.50 1.95 2.85 3.55 3.10 3.65 0.20 0.10 0.40 0.40 0.40 0.70 0 0.25 0.45 1.10 1.05 1.80 4.50 5.90 14.40 23.75 18.65 33.85 1.05 2.50 2.20 5.20 2.55 6 1.05 2.40 2.80 7.35 3.45 9.60 0.30 1.15 0.70 2.25 0.85 2.40 0.20 0.15 1.05 -1.80 1.90 -4.35 1.65 -4.80 1.70 -5 3.50 -9 0.60 -1.30 1.05 -2.60 1.05 -2.80 0 -0.25 0.30 -1.10 0.70 -1.90 0.40 -0.80 1.10 -2.35 1.55 -3.45 2.25 -5.20 6.25 -13.05 9.35 -18.20 1.85 -3.15 3.40 -5.80 3.40 -5.90 0 -0.25 6.10 -9.35 6.50 -9.65 0.15 -0.15 0.85 -1.05 1.50 -2 0.65 -0.95 1.35 -1.85 1.50 -2 0.15 -0.15 1.05 -1.25 2 -2.50 0.95 -1.25 2.55 -3.15 3.60 -4.25 1.05 -1.10 1.90 -2.20 1.95 -2.50 0.10 -0.55 11.40 -11.40 16.65 -16 9.65 -8.35 20.20 -16.40 30.50 -23.15 3.80 -2.55 7 -4.60 7.10 -4.60 0.10 0 1.70 -1 3.60 -2.20 9.85 -6.30 29 -14.90 43.60 -19.55 9.45 -3 22.20 -6.75 23.10 -6.75 0.55 0 0.50 1.35 0 1.60 -0.40 0.15 -1.70 2.40 -5.70 9.90 -1.10 2.05 -2.20 4 -2.40 4.25 -0.20 0.30 -0.85 1.30 -1.40 2.25 -3.25 5.75 -15.15 23.35 -16.55 24.50 -0.15 0.15 -0.90 1.05 -1.60 2 -0.75 0.95 -2.25 2.75 -3.40 4 -1.20 1.25 -2.95 3.25 -3.95 4.50 -5.30 6.60 -22.40 22.05 -41.80 37.75 -8.15 6.55 -12.80 10.70 -17.30 15.25 -6 6.05 -11.90 12.45 -13.45 14.50 -0.70 0.95 -1.65 2.10 -2.05 2.50 -2.75 2.65 -16 20.70 -16 21.80 0 0.35 -0.20 0.70 -0.40 0.80 -1.50 0.60 -10.40 18.50 -15.20 30.40 -0.30 0.70 -0.70 1.65 -0.95 2.10 -0.25 0.50 -0.45 1.10 -0.45 1.40 0 0.30 -0.40 1.45 -0.95 2.65 -0.50 1.15 -1.45 3.45 -2.05 5.10 -0.60 1.65 -1.30 3.45 -1.55 4 -0.75 1.80 -5.35 15.90 -6.20 19 -0.45 1.65 -1.45 5.50 -2.30 8.50 -3.45 12.65 -7.45 31.50 -7.45 35.30 0 1.70 -0.90 1.95 -1.20 0.35z"/>
 </g>
 <g fill="#297373">
  <path d="M486.35 726.45 c-0.50 -0.30 -1.20 -0.45 -1.50 -0.30 -0.35 0.10 -1.95 0 -3.60 -0.25 -1.65 -0.25 -3.90 -0.55 -5 -0.70 -1.10 -0.15 -3.80 -0.60 -6 -1.05 -2.20 -0.40 -4.90 -0.95 -6 -1.15 -2.05 -0.40 -6.15 -1.30 -9.25 -2 -6.80 -1.60 -26.45 -7.85 -31.20 -10 -1.15 -0.50 -4.75 -1.95 -8.05 -3.25 -6.55 -2.55 -23.35 -11.05 -31.25 -15.75 -12.10 -7.25 -26.50 -17.45 -35.55 -25.20 -7.40 -6.40 -10.10 -8.90 -16.70 -15.55 -12 -12 -18.20 -19.55 -28.35 -34.30 -6.10 -8.80 -15.90 -26.45 -20.15 -36.20 -0.50 -1.10 -1.15 -2.65 -1.50 -3.50 -2.50 -5.70 -6.50 -16.55 -8.25 -22.25 -1.15 -3.70 -2.30 -7.30 -2.55 -8 -0.45 -1.25 -1.80 -6.60 -2.30 -9 -0.10 -0.70 -0.40 -1.70 -0.65 -2.25 -0.20 -0.55 -0.65 -2.35 -1 -4 -0.30 -1.65 -0.80 -3.80 -1.05 -4.80 -0.25 -1 -0.50 -2.75 -0.55 -3.90 -0.05 -1.15 -0.20 -2.20 -0.40 -2.30 -0.20 -0.15 -0.40 -1.20 -0.45 -2.35 0 -1.20 -0.40 -4.60 -0.80 -7.65 -0.40 -3 -0.90 -8.20 -1.05 -11.50 -0.15 -3.30 -0.40 -6.35 -0.55 -6.75 -0.30 -0.95 -0.20 -19.90 0.10 -27 0.15 -2.90 0.60 -7.85 0.95 -11 0.40 -3.15 0.70 -6.10 0.75 -6.50 0.15 -2.70 0.70 -6.40 1.05 -7.25 0.20 -0.55 0.70 -2.80 1 -5 0.35 -2.20 0.70 -4.35 0.85 -4.75 0.15 -0.40 0.35 -1.20 0.40 -1.75 0.45 -3.05 4.95 -19.10 6.70 -24 0.65 -1.65 1.55 -4.30 2.05 -5.90 0.55 -1.60 1.35 -3.70 1.80 -4.75 0.45 -1 1 -2.30 1.20 -2.85 0.35 -0.90 0.85 -2.05 3.45 -7.90 5.10 -11.35 12.70 -24.80 19.90 -35.35 2.90 -4.20 7.15 -10 7.65 -10.50 0.15 -0.15 0.90 -1.10 1.65 -2.15 0.80 -1 1.95 -2.40 2.55 -3 0.65 -0.65 1.25 -1.40 1.35 -1.75 0.80 -2.40 20.50 -21.50 26.85 -26 1.30 -0.95 2.90 -2.20 3.65 -2.90 2.85 -2.70 2.65 -0.80 -0.25 2.25 -5.15 5.40 -11 13.80 -14.70 21 -6.10 11.95 -13.60 34.65 -16.60 50.30 -0.55 3.05 -1.35 7.10 -1.75 9 -0.85 4.20 -2.30 12.70 -2.60 15.50 -0.80 7.15 -1.15 12.15 -1.45 20.50 -0.15 5.25 -0.45 9.75 -0.65 10 -0.90 1.25 0.80 22.15 2 24.35 0.25 0.50 0.45 1.20 0.45 1.65 0 1.60 3.95 9.70 6.50 13.45 4.40 6.25 4.50 6.40 8.45 9.95 7.45 6.65 16.20 11.75 27.15 15.85 5.15 1.95 12.75 5.10 18.40 7.60 13.20 5.85 31.95 16.95 43.80 25.90 2.90 2.20 15.60 14.60 19.45 19.05 5.40 6.15 11.30 13.75 16.40 21 12.30 17.60 22.80 40.30 30.85 66.95 0.60 2.05 1.30 4.30 1.50 5 0.25 0.70 0.90 3.30 1.50 5.75 0.55 2.50 1.25 5.40 1.55 6.50 1.40 5.95 3.45 16.75 3.45 18.25 0 1 0.20 2 0.45 2.25 0.25 0.30 0.95 5.55 1.50 11.75 1.05 11.25 1.45 32.40 0.75 38.40 l-0.35 2.60 -2.55 0 c-1.40 0 -2.95 -0.25 -3.45 -0.55z m-29.30 -55.20 c-0.20 -2.95 -5.95 -17.35 -10.40 -26 -1.65 -3.20 -13.75 -21.80 -16.10 -24.75 -0.55 -0.70 -2.65 -3.25 -4.60 -5.75 -11.60 -14.50 -23.40 -26.40 -37.50 -37.75 -2.45 -2 -6.60 -5.65 -8.45 -7.50 -1.15 -1.15 -9.45 -8.60 -11.75 -10.55 -13.45 -11.45 -27.10 -21.25 -28.15 -20.25 -0.15 0.20 0.20 0.80 0.80 1.45 0.60 0.65 1.10 1.30 1.10 1.45 0 0.20 1.10 2.20 2.40 4.50 1.35 2.30 3.25 5.75 4.30 7.65 6.55 11.90 19.20 29.05 31.85 43 6.90 7.60 39.85 40.55 48.70 48.65 3.05 2.80 10.35 9.90 16.25 15.75 5.90 5.90 10.95 10.70 11.15 10.65 0.25 -0.05 0.40 -0.30 0.40 -0.55z"/>
  <path d="M531.80 725.15 c-0.20 -1.05 -0.45 -6.30 -0.60 -11.65 -0.35 -11.40 0.90 -29.50 2.80 -40 0.30 -1.50 0.60 -3.55 0.75 -4.50 1.25 -8.10 6.15 -29.55 7.70 -33.25 0.20 -0.55 1.80 -5.35 3.55 -10.65 1.75 -5.30 3.40 -9.75 3.60 -9.90 0.20 -0.15 0.40 -0.60 0.40 -1 0 -0.40 0.50 -1.80 1.05 -3.10 0.60 -1.30 1.40 -3.10 1.75 -3.95 1.75 -4.05 2.60 -5.90 6.20 -13.40 3.70 -7.55 9.80 -18.30 10.60 -18.65 0.25 -0.10 0.40 -0.45 0.40 -0.75 0 -0.35 0.50 -1.20 1.15 -1.95 0.60 -0.75 2.55 -3.40 4.30 -5.90 1.75 -2.55 3.45 -4.85 3.75 -5.20 0.30 -0.30 1.35 -1.60 2.25 -2.80 6.70 -8.65 17.60 -19.40 29.80 -29.30 2.90 -2.35 14.20 -10.50 16.60 -11.95 0.90 -0.55 4.05 -2.50 7.05 -4.35 5.45 -3.35 18.10 -10 21.85 -11.50 1.10 -0.45 3.45 -1.50 5.25 -2.30 1.80 -0.80 3.80 -1.65 4.50 -1.85 1.30 -0.40 5.15 -2 6.60 -2.80 0.50 -0.25 1.15 -0.45 1.45 -0.45 1.65 0 14.85 -7.30 18.90 -10.40 3.40 -2.65 11.40 -10.90 13.15 -13.60 3.05 -4.75 5.25 -9.40 6.60 -14 1.10 -4.05 2.40 -12.40 2.05 -13.55 -0.20 -0.55 -0.15 -1.25 0.10 -1.60 0.75 -0.95 0.70 -5.15 -0.10 -18.05 -1.05 -16.80 -2.70 -31.75 -3.75 -34.20 -0.30 -0.65 -0.50 -2 -0.50 -3.10 0 -1.05 -0.20 -2.10 -0.50 -2.25 -0.25 -0.15 -0.50 -0.85 -0.50 -1.50 0 -0.70 -0.25 -2.20 -0.50 -3.35 -0.30 -1.20 -1.10 -4.40 -1.75 -7.15 -3.20 -13.40 -4.90 -18.50 -11.60 -34.75 -1.80 -4.35 -6.80 -14.20 -10.20 -20.05 -2.15 -3.75 -7.70 -10.90 -10.25 -13.25 -0.95 -0.90 -1.70 -1.85 -1.70 -2.15 0 -0.75 1.35 -0.70 1.85 0.10 0.20 0.35 1.40 1.40 2.65 2.35 1.25 0.95 2.35 1.85 2.50 2 0.15 0.15 1.50 1.25 3 2.45 7.50 6.10 22.15 20.85 25.45 25.70 0.40 0.60 0.90 1.20 1.05 1.35 0.75 0.55 8.65 11.30 11.40 15.35 3.05 4.60 9.10 14.45 9.10 14.85 0 0.15 0.70 1.45 1.60 2.90 1.60 2.70 9.40 18.15 9.40 18.60 0 0.15 0.55 1.50 1.25 3 0.70 1.50 1.25 2.90 1.25 3.05 0 0.20 0.35 1.15 0.80 2.15 1.40 3.20 1.60 3.75 2.70 7.10 0.60 1.80 1.30 3.70 1.50 4.25 0.50 1.10 2.90 9 4.50 14.55 0.55 1.95 1 4.05 1 4.60 0 0.55 0.20 1.15 0.45 1.30 0.25 0.15 0.55 1.15 0.70 2.15 0.30 1.85 0.60 3.50 1.85 9.15 0.30 1.50 0.70 3.75 0.80 5 0.10 1.25 0.35 2.60 0.50 3 0.85 2.05 2 15.40 2.50 29.25 0.55 16.90 -1.05 36.65 -4.35 53.50 -0.25 1.40 -0.55 2.95 -0.65 3.50 -0.10 0.55 -0.30 1.35 -0.45 1.75 -0.15 0.40 -0.35 1.30 -0.50 2 -0.40 2.20 -3.90 15.70 -4.35 16.75 -0.25 0.55 -1.25 3.60 -2.25 6.75 -1.75 5.45 -5.65 15.60 -7.85 20.50 -2.80 6.20 -11.10 22.35 -11.85 23 -0.15 0.15 -0.85 1.25 -1.55 2.50 -6.85 12.60 -19.95 29.85 -32.70 42.95 -8.80 9.10 -8.65 8.95 -16.30 15.55 -1.75 1.50 -3.40 3 -3.70 3.25 -3.60 3.35 -15.80 12.20 -25.55 18.60 -12.10 7.85 -30.10 17.60 -39.50 21.35 -1.90 0.75 -4.30 1.75 -5.25 2.15 -3.10 1.35 -3.70 1.55 -8.25 3.20 -2.45 0.85 -4.95 1.75 -5.50 2 -1.50 0.60 -6.70 2.25 -9.25 2.95 -1.25 0.35 -2.80 0.80 -3.50 1.05 -2.20 0.75 -12.10 3.10 -19 4.50 -1.25 0.25 -2.75 0.60 -3.35 0.70 -2.45 0.55 -4 0.75 -6.40 1.05 -1.35 0.15 -2.85 0.40 -3.25 0.55 -0.40 0.15 -1.30 0.35 -2 0.45 -1.75 0.20 -11.50 1.20 -12 1.20 -0.20 0 -0.50 -0.85 -0.70 -1.85z m48.25 -65.55 c7 -6.85 14.15 -13.75 15.95 -15.35 1.80 -1.60 9.35 -8.90 16.80 -16.20 7.45 -7.30 14.20 -13.85 15 -14.55 1.20 -1.05 5.80 -5.90 15.95 -16.70 5.40 -5.75 15.60 -18.55 20.20 -25.30 1.25 -1.80 2.35 -3.35 2.50 -3.50 0.35 -0.30 2.95 -4.10 3.80 -5.50 0.25 -0.45 1.10 -1.95 1.85 -3.30 0.75 -1.35 2.05 -3.55 2.90 -4.95 0.80 -1.35 2.50 -4.30 3.80 -6.50 1.25 -2.20 3 -5.25 3.95 -6.75 1.75 -2.85 1.50 -3.90 -0.45 -2.05 -0.60 0.60 -1.30 1.05 -1.45 1.05 -0.20 0 -1.90 1.20 -3.75 2.60 -1.85 1.45 -4.80 3.75 -6.60 5.10 -4.05 3 -13.55 11.05 -17.95 15.10 -5.95 5.50 -17.60 15.70 -23.55 20.70 -7.45 6.20 -11.30 9.70 -17.15 15.70 -3.55 3.60 -7.05 7.35 -7.80 8.35 -0.70 1 -2.35 3 -3.55 4.45 -3.80 4.45 -4.75 5.65 -7.25 9.25 -1.35 1.95 -2.60 3.60 -2.75 3.75 -0.55 0.45 -9.35 13.70 -11.60 17.50 -1.25 2.05 -2.75 4.90 -3.40 6.25 -0.60 1.40 -1.60 3.65 -2.25 5 -2.55 5.55 -3.25 7.25 -3.25 7.75 0 0.30 -0.20 0.90 -0.50 1.40 -0.25 0.45 -0.95 2.30 -1.55 4.10 -0.60 1.80 -1.25 3.45 -1.50 3.75 -0.65 0.65 -0.55 1.25 0.25 1.25 0.35 0 6.35 -5.60 13.35 -12.40z"/>
 </g>
</svg>