<?xml version="1.0" encoding="utf-8"?>
<!-- Generator: Adobe Illustrator 27.5.0, SVG Export Plug-In . SVG Version: 6.00 Build 0)  -->
<svg version="1.1" xmlns="http://www.w3.org/2000/svg" xmlns:xlink="http://www.w3.org/1999/xlink" x="0px" y="0px"
	 viewBox="0 0 500 500" style="enable-background:new 0 0 500 500;" xml:space="preserve">
<g id="Background">
	<rect style="fill:#FFA11B;" width="500" height="500"/>
</g>
<g id="Objects">
	<g>
		<defs>
			<rect id="SVGID_1_" width="500" height="500"/>
		</defs>
		<clipPath id="SVGID_00000157271061350192010620000011217332417942097830_">
			<use xlink:href="#SVGID_1_"  style="overflow:visible;"/>
		</clipPath>
		<g style="clip-path:url(#SVGID_00000157271061350192010620000011217332417942097830_);">
			<path style="fill:#FFB43B;" d="M314.616,392.046l22.692-15.431l1.815-18.154l26.323-13.615L382.693,363l23.6-10.892l5.446-22.692
				l24.508-12.708l9.984-9.077l0.908-29.954l18.154-32.677l20.877-3.631c14.523,1.815,14.523,1.815,14.523,1.815l14.523,2.723
				l13.615,167.014l-199.691,23.6L314.616,392.046z"/>
			<path style="fill:#FFB43B;" d="M-3.926,272.505l5.595-29.372l25.176-37.763l40.561-12.588l29.371,25.176l9.79,55.946
				l5.595,32.169c12.588,2.797,25.176,2.797,25.176,2.797c9.79,1.399,12.588,6.993,12.588,6.993
				c4.196,23.777,13.986,36.365,13.986,36.365l20.98-11.189c12.588,5.594,18.182,12.588,18.182,12.588
				c2.797,9.79,4.196,18.182,4.196,18.182c4.196,5.595,13.986,16.784,13.986,16.784L99.573,402.578L-8.122,369.011L-3.926,272.505z"
				/>
			<path style="fill:#D56D19;" d="M-12.366,279.661l31.965-23.247l50.853,26.153l-10.171,33.417l17.435,27.606l23.247-5.812
				l21.794,23.247l26.153-4.359l23.247,7.265l21.794,5.812l33.143,0.104l39.504,28.954c7.265,17.435,4.359,29.059,4.359,29.059
				c-1.453,15.982-290.587,0-290.587,0C-15.272,427.861-13.819,281.114-12.366,279.661z"/>
			<g>
				
					<ellipse transform="matrix(0.7071 -0.7071 0.7071 0.7071 -87.2334 240.0529)" style="fill:#FADC69;" cx="246.153" cy="225.327" rx="86.566" ry="86.566"/>
				<g>
					<path style="fill:#FFA11B;" d="M349.56,190.542c0,1.314-13.033,2.379-29.107,2.379c-16.079,0-29.11-1.065-29.11-2.379
						c0-1.313,13.031-2.378,29.11-2.378C336.526,188.164,349.56,189.229,349.56,190.542z"/>
				</g>
				<g>
					<path style="fill:#FFA11B;" d="M194.315,220.589c0,1.314-13.033,2.379-29.107,2.379c-16.079,0-29.11-1.065-29.11-2.379
						c0-1.313,13.031-2.378,29.11-2.378C181.282,218.211,194.315,219.276,194.315,220.589z"/>
				</g>
				<g>
					<path style="fill:#FFA11B;" d="M373.347,204.939c0,1.314-13.033,2.379-29.107,2.379c-16.079,0-29.11-1.065-29.11-2.379
						c0-1.313,13.03-2.378,29.11-2.378C360.314,202.561,373.347,203.626,373.347,204.939z"/>
				</g>
				<g>
					<path style="fill:#FFA11B;" d="M177.413,229.353c0,1.314-13.033,2.379-29.107,2.379c-16.079,0-29.11-1.065-29.11-2.379
						c0-1.313,13.031-2.378,29.11-2.378C164.38,226.975,177.413,228.04,177.413,229.353z"/>
				</g>
				<g>
					<path style="fill:#FFA11B;" d="M361.453,259.4c0,1.314-13.033,2.379-29.107,2.379c-16.079,0-29.11-1.065-29.11-2.379
						c0-1.313,13.03-2.378,29.11-2.378C348.42,257.022,361.453,258.087,361.453,259.4z"/>
				</g>
			</g>
			<g>
				<path style="fill:#964915;" d="M225.495,273.142l-0.34,17.439l-0.906-2.944l0.491-14.37l-0.469,0.156l-0.156,3.073l-0.521-0.417
					l0.156-2.708c-0.677-0.052-0.417-0.26-0.417-0.26l-0.156,3.229l0.833,0.729l-0.208,5.989l-0.26,4.583l0.573,3.333l0.938,0.521
					l-1.615,35.622l1.667-0.052l0.469-16.197l2.083-1.25l1.094-4.947l-1.51,4.427l-1.51,0.573l0.677-23.592l1.458-1.51l1.042-2.187
					l-0.26-0.156l-0.417,0.885l0.156-2.812l1.719-1.25l0.781-2.031l-0.521,0.052l-0.625,1.667l-1.25,0.885l0.26-2.291l0.781-0.573
					l-0.052-2.344l-0.313-0.104l0.052,2.083l-0.417,0.26l-0.104-2.396c-0.26,0-0.313-0.208-0.313-0.208l-0.573,9.478l-0.312,0.677
					l-1.042,0.885v-3.854l-0.208-5.885l1.302-1.094l0.052-2.031l-0.573,0.052l0.156,1.667l-0.937,0.729l0.052-2.083L225.495,273.142
					z"/>
				<path style="fill:#964915;" d="M214.428,276.287l0.365,1.094l0.677,0.26l0.365,3.541l1.094,1.146l0.052,3.437l1.927,7.083
					l-0.781-0.156l-1.979-2.916l0.156-1.25l0.417-0.937l-0.156-1.979l-0.052,1.667l-0.469,0.781l-0.104-2.135l-0.313-0.729
					l0.208,4.114l-0.677-0.677l-0.469-4.062l-0.417-0.313l0.417,2.708l-0.885-0.937l-0.312-1.927l-0.052,1.927l1.198,1.562
					l0.365,1.562l3.021,4.166l1.354,0.677l2.5,10.728l-0.26,4.843l-1.094-3.489l0.313,2.708l0.677,1.667l-0.156,2.552l0.417,2.76
					l-1.51,10.885l2.135,0.417l0.729-9.218l-0.365-6.302l0.365-7.083l-2.135-7.395l0.521-0.417l0.208-5.729l-0.313,2.5l-0.26-0.156
					l-0.365-2.5l-0.26,0.104l0.365,2.864c0.521,0.208,0.521,0.208,0.521,0.208l-0.208,2.448l-0.417,0.26l-2.916-10.989v-0.833
					l0.625-0.156l1.146-5.208l-0.417-0.417l-0.573,2.604l0.052-6.354l-0.625-0.052l0.364,7.499l-0.156,1.458l-0.677,0.104
					l-0.26-8.853l-0.573,0.052l0.104,5.989l-0.625-0.729l-0.26-3.229l-0.937-0.833l0.052-0.677L214.428,276.287z"/>
				<polygon style="fill:#E57428;" points="225.478,262.947 221.716,261.719 220.18,263.178 220.18,266.172 219.259,268.475 
					214.882,267.324 212.195,271.546 211.351,272.468 213.424,274.003 216.572,274.464 212.81,274.618 211.735,275.769 
					209.355,277.305 213.961,277.765 220.718,275.462 223.789,276.46 225.495,273.142 228.472,275.155 229.931,274.618 
					230.315,271.7 232.541,271.393 229.777,266.863 				"/>
				<path style="fill:#E57428;" d="M232.848,272.468l-1.766-0.077l-0.921,2.61l-0.23,2.918c1.305-0.154,1.612-0.384,1.612-0.384
					l2.073-2.994L232.848,272.468z"/>
				<polygon style="fill:#E57428;" points="224.403,278.61 219.489,276.46 214.345,278.456 218.645,279.531 219.105,281.527 
					221.485,281.374 223.174,282.372 225.017,281.067 				"/>
				<path style="fill:#E57428;" d="M211.197,281.067l0.538,3.225l-0.077,1.919l1.996,0.537l2.534-0.077
					c0.998,0.921,0.998,0.921,0.998,0.921l-1.152-5.528l-2.227-0.307l-2.227-1.459l-0.691,0.691"/>
				<g>
					<g>
						<path style="fill:#E57428;" d="M232.343,272.287c0.11,0.528,0.248,1.047,0.416,1.559c0.252,0.77,1.038,1.27,1.845,1.048
							c0.754-0.207,1.301-1.072,1.048-1.845c-0.168-0.513-0.306-1.031-0.416-1.559c-0.165-0.794-1.1-1.253-1.845-1.048
							C232.568,270.668,232.178,271.491,232.343,272.287L232.343,272.287z"/>
					</g>
				</g>
				<g>
					<g>
						<path style="fill:#E57428;" d="M213.254,269.527c0.208-0.277,0.416-0.554,0.624-0.832c0.486-0.649,0.105-1.676-0.538-2.052
							c-0.767-0.449-1.565-0.112-2.052,0.538c-0.208,0.277-0.416,0.555-0.624,0.832c-0.486,0.648-0.105,1.676,0.538,2.052
							C211.968,270.513,212.766,270.177,213.254,269.527L213.254,269.527z"/>
					</g>
				</g>
				<g>
					<g>
						<path style="fill:#E57428;" d="M220.216,265.547c0-0.381,0-0.762,0-1.144c0-0.785-0.69-1.536-1.5-1.5
							c-0.813,0.036-1.5,0.659-1.5,1.5c0,0.381,0,0.762,0,1.144c0,0.785,0.69,1.536,1.5,1.5
							C219.528,267.011,220.216,266.388,220.216,265.547L220.216,265.547z"/>
					</g>
				</g>
				<g>
					<g>
						<path style="fill:#E57428;" d="M226.492,263.697c0.496,0.511,1.015,0.996,1.559,1.455c0.618,0.522,1.515,0.607,2.121,0
							c0.536-0.536,0.622-1.596,0-2.121c-0.544-0.46-1.063-0.944-1.559-1.455c-0.564-0.581-1.555-0.567-2.121,0
							C225.91,262.157,225.926,263.114,226.492,263.697L226.492,263.697z"/>
					</g>
				</g>
			</g>
			<path style="fill:#B2581B;" d="M270.702,205.869v58.747h-17.775l-0.13-58.913C252.797,205.702,271.154,205.417,270.702,205.869z"
				/>
			<path style="fill:#E57428;" d="M244.506,159.022l0.001,9.89h1.226v57.355h7.05v-57.185h1.073l-0.035-9.994
				C253.821,159.089,244.735,159.278,244.506,159.022z"/>
			<path style="fill:#C6601C;" d="M229.068,216.288v47.595h23.798v-48.619h-3.071v5.63h-3.071v-6.909h-3.582v6.397h-3.582v-6.909
				h-3.838v6.397h-2.815v-6.653C232.907,213.217,228.813,216.032,229.068,216.288z"/>
			<polygon style="fill:#753014;" points="206.477,430.596 209.454,348.217 219.38,339.781 219.38,326.878 223.846,324.397 
				222.357,315.464 239.23,300.08 240.222,318.442 253.621,319.931 257.095,325.886 269.998,329.856 280.419,332.833 
				282.404,346.232 291.337,351.195 292.826,342.262 315.157,361.12 316.15,408.761 323.388,412.432 317.639,468.312 
				317.153,508.561 187.865,507.908 192.085,440.025 			"/>
			<path style="fill:#EC821B;" d="M292.101,109.784l0.893-1.934l1.637,1.042l4.761-1.19c0,0,12.647,4.761,20.087,4.91l8.183,5.803
				c0,0,7.588-3.869,11.606,0.149c4.017,4.017,15.177,3.571,15.177,3.571s5.803,0.446,5.803,5.059c0,4.612,5.803,7.886,5.803,7.886
				l5.059-0.298l-2.083-0.744c1.339-0.595-0.744-1.637-0.744-1.637s-5.208-1.637-3.571-5.059
				c1.637-3.422,19.938,16.516,33.031,16.813c13.094,0.298,19.343-0.744,36.007-6.547c16.664-5.803,30.204,3.422,30.204,3.422
				s9.82,1.042,13.242-1.488l-4.91-2.529c0,0-2.678-0.595-7.588,2.232c0,0-11.903-5.505-19.045-6.249
				c-7.142-0.744-26.336,7.588-45.678,4.464c0,0-11.754-4.017-14.433-6.696l4.017-0.446l-6.249-1.934l4.464-1.042l-8.035-2.827
				l3.72-1.339l-7.886-1.934l4.613-1.637l-9.225-1.785l4.464-1.785l-8.332-1.637l4.315-2.232l-8.183-0.298
				c0,0,2.381-32.734,22.467-35.412c20.087-2.678,26.336,7.291,26.336,7.291s-13.986-22.17-7.44-27.824
				c6.547-5.654,17.111-0.893,17.111-0.893s-6.547-10.862-32.734-14.135c0,0-1.785-2.827,6.844-1.042c0,0-1.042-4.166-17.855-2.232
				c-16.813,1.934-5.208-4.91,0.298-3.869c0,0-13.54-1.19-18.896,6.1c-5.356,7.291-11.308,18.599-15.176,17.557
				c0,0-1.934-1.19,1.637-3.422c0,0-4.612-1.339-5.356,6.1c-0.744,7.439,0.595,21.426,0.595,21.426s2.381-0.446,0.149,4.761
				c-2.232,5.208-0.595,0-0.595,0s-8.035-23.509-21.723-23.658c0,0-10.118-4.612-11.308-7.439l-5.208,0.149
				c0,0-7.588-6.398-23.806-5.803l-6.695,0.446l-5.356,2.976c0,0,20.384-3.125,22.17,2.529c0,0,3.125-1.19,7.291,3.869
				c4.166,5.059,9.671,10.415,9.671,10.415s-1.042,1.785-3.571-0.595c-2.529-2.381,0.595,3.571,5.357,3.869
				c0,0,9.671,13.689,14.433,13.689c0,0-0.149,12.201-5.356,16.664h-2.083l2.827-3.125l-5.803,2.678l1.488-2.976l-4.612,1.19
				c0,0,0.893-3.273,8.184-6.249l4.166-3.125l-4.166,1.488l-5.059,1.339l-4.464,3.571l-1.042-1.785l6.993-4.315l5.208-1.637
				l-5.356,0.595l-4.166,1.042l-3.72,2.827l-4.315,3.72l-3.125,0.595l-7.542,7.352l-1.557-1.946l0.234,3.191L292.101,109.784z"/>
			<polygon style="fill:#D56D19;" points="391.302,226.439 382.177,224.919 376.094,230.241 377.615,244.688 371.532,249.251 
				371.532,311.601 364.689,315.403 363.928,357.223 357.845,360.264 354.804,414.251 373.813,462.914 404.988,460.633 
				423.237,419.573 396.624,377.753 398.905,297.914 395.864,294.112 397.385,259.135 393.583,254.573 392.822,240.886 
				389.021,235.564 			"/>
			<path style="fill:#FADC69;" d="M391.835,204.894h151.971l-59.467-5.782l-4.956-11.563l-9.085-8.259
				c-12.389-0.826-12.389-0.826-12.389-0.826l0,0l-14.867-15.693l-14.867-9.911c-7.433,4.13-11.563,9.085-11.563,9.085
				l-2.478,21.474c-9.085,4.956-18.171,1.652-18.171,1.652l-13.215,4.956l-10.737,8.259l-17.345,5.781L391.835,204.894z"/>
			<path style="fill:#FADC69;" d="M-17.876,89.663h151.971l-59.467-5.782l-4.955-11.563l-9.085-8.259
				c-12.389-0.826-12.389-0.826-12.389-0.826l0,0L33.331,47.541l-14.867-9.911c-7.433,4.13-11.563,9.085-11.563,9.085L4.424,68.189
				c-9.085,4.956-18.171,1.652-18.171,1.652l-13.215,4.956l-10.737,8.259l-17.345,5.781L-17.876,89.663z"/>
			<polygon style="fill:#B2581B;" points="216.753,225.625 216.692,231.938 217.586,231.955 218.004,269.536 222.75,273.025 
				222.75,232.13 224.564,232.13 224.564,225.57 			"/>
			<path style="fill:#B2581B;" d="M221.243,178.738c0,0,1.117,34.335-6.839,45.641h13.26
				C227.664,224.379,221.243,220.471,221.243,178.738z"/>
			<path style="fill:#A5521B;" d="M277.529,201.475c0,0,0.804,24.723-4.925,32.864h9.548
				C282.152,234.338,277.529,231.524,277.529,201.475z"/>
			<path style="fill:#E57428;" d="M249.32,68.509c0,0,2.114,64.991-12.945,86.39h25.098C261.472,154.9,249.32,147.503,249.32,68.509
				z"/>
			<path style="fill:#B2581B;" d="M222.13,254.922h2.912v6.437h1.533v-6.744h3.678v6.284h2.299v-6.59h2.452v6.744
				c1.533,0,2.146,0,2.146,0v-6.897h1.993v6.437h2.759v-6.591h3.219v6.437h1.686v-6.59h3.065v34.332v26.975h-26.975
				C222.896,315.155,222.36,254.692,222.13,254.922z"/>
			<path style="fill:#A5521B;" d="M277.679,259.395l1.839-6.131l1.533-0.153v-17.319h-6.897v19.158v3.525h-1.839v-4.138h-2.606
				v4.445h-3.678v-4.905h-2.606v5.058h-1.686v-4.598h-3.372v4.905h-2.759v-5.211h-2.912v66.058h25.596
				C278.292,320.089,277.909,259.625,277.679,259.395z"/>
			<g>
				<path style="fill:#964915;" d="M307.191,284.755l-0.443,22.744l-1.181-3.84l0.64-18.742l-0.611,0.204l-0.204,4.007l-0.679-0.543
					l0.204-3.532c-0.883-0.068-0.543-0.34-0.543-0.34l-0.204,4.211l1.087,0.951l-0.272,7.811l-0.34,5.977l0.747,4.347l1.223,0.679
					l-2.105,46.458l2.173-0.068l0.611-21.124l2.717-1.63l1.426-6.453l-1.97,5.773l-1.97,0.747l0.883-30.768l1.902-1.97l1.358-2.853
					l-0.34-0.204l-0.543,1.155l0.204-3.668l2.241-1.63l1.019-2.649l-0.679,0.068l-0.815,2.173l-1.63,1.155l0.34-2.989l1.019-0.747
					l-0.068-3.056l-0.408-0.136l0.068,2.717l-0.543,0.34l-0.136-3.124c-0.34,0-0.408-0.272-0.408-0.272l-0.747,12.362l-0.408,0.883
					l-1.358,1.155v-5.026l-0.272-7.675l1.698-1.426l0.068-2.649l-0.747,0.068l0.204,2.173l-1.223,0.951l0.068-2.717L307.191,284.755
					z"/>
				<path style="fill:#964915;" d="M292.758,288.857l0.475,1.426l0.883,0.34l0.475,4.619l1.426,1.494l0.068,4.483l2.513,9.237
					l-1.019-0.204L295,306.448l0.204-1.63l0.543-1.223l-0.204-2.581l-0.068,2.173l-0.611,1.019l-0.136-2.785l-0.408-0.951
					l0.272,5.366l-0.883-0.883l-0.611-5.298l-0.543-0.408l0.543,3.532l-1.155-1.223l-0.408-2.513l-0.068,2.513l1.562,2.038
					l0.475,2.038l3.94,5.434l1.766,0.883l3.26,13.992l-0.34,6.317l-1.426-4.551l0.408,3.532l0.883,2.173l-0.204,3.328l0.543,3.6
					l-1.97,14.195l2.785,0.543l0.951-12.022l-0.475-8.218l0.475-9.237l-2.785-9.645l0.679-0.543l0.272-7.471l-0.408,3.26
					l-0.34-0.204l-0.475-3.26l-0.34,0.136l0.475,3.736c0.679,0.272,0.679,0.272,0.679,0.272l-0.272,3.192l-0.543,0.34l-3.804-14.331
					v-1.087l0.815-0.204l1.494-6.792l-0.543-0.543l-0.747,3.396l0.068-8.286l-0.815-0.068l0.475,9.781l-0.204,1.902l-0.883,0.136
					l-0.34-11.547l-0.747,0.068l0.136,7.811l-0.815-0.951l-0.34-4.211l-1.223-1.087l0.068-0.883L292.758,288.857z"/>
				<polygon style="fill:#E57428;" points="307.169,271.459 302.262,269.857 300.26,271.759 300.26,275.665 299.058,278.669 
					293.351,277.167 289.846,282.674 288.745,283.875 291.448,285.878 295.553,286.479 290.647,286.679 289.245,288.181 
					286.141,290.184 292.149,290.785 300.961,287.781 304.966,289.082 307.191,284.755 311.074,287.38 312.977,286.679 
					313.477,282.874 316.381,282.474 312.776,276.566 				"/>
				<path style="fill:#E57428;" d="M316.782,283.875l-2.303-0.1l-1.202,3.405l-0.3,3.805c1.702-0.2,2.103-0.501,2.103-0.501
					l2.704-3.905L316.782,283.875z"/>
				<polygon style="fill:#E57428;" points="305.767,291.886 299.359,289.082 292.65,291.686 298.257,293.088 298.858,295.691 
					301.962,295.491 304.165,296.793 306.568,295.091 				"/>
				<path style="fill:#E57428;" d="M288.544,295.091l0.701,4.206l-0.1,2.503l2.604,0.701l3.304-0.1
					c1.302,1.202,1.302,1.202,1.302,1.202l-1.502-7.21l-2.904-0.401l-2.904-1.903l-0.901,0.901"/>
				<g>
					<g>
						<path style="fill:#E57428;" d="M316.563,283.519c0.142,0.689,0.323,1.365,0.542,2.034c0.253,0.77,1.037,1.27,1.845,1.048
							c0.754-0.207,1.302-1.072,1.048-1.845c-0.219-0.668-0.4-1.345-0.542-2.034c-0.164-0.794-1.1-1.252-1.845-1.048
							C316.786,281.9,316.398,282.723,316.563,283.519L316.563,283.519z"/>
					</g>
				</g>
				<g>
					<g>
						<path style="fill:#E57428;" d="M290.832,279.81c0.271-0.362,0.542-0.723,0.814-1.085c0.486-0.649,0.105-1.676-0.538-2.052
							c-0.767-0.448-1.565-0.112-2.052,0.538c-0.271,0.362-0.542,0.723-0.814,1.085c-0.486,0.649-0.105,1.676,0.538,2.052
							C289.547,280.796,290.345,280.46,290.832,279.81L290.832,279.81z"/>
					</g>
				</g>
				<g>
					<g>
						<path style="fill:#E57428;" d="M299.85,274.849c0-0.497,0-0.994,0-1.491c0-0.785-0.69-1.536-1.5-1.5
							c-0.813,0.036-1.5,0.659-1.5,1.5c0,0.497,0,0.994,0,1.491c0,0.785,0.69,1.536,1.5,1.5
							C299.163,276.313,299.85,275.69,299.85,274.849L299.85,274.849z"/>
					</g>
				</g>
				<g>
					<g>
						<path style="fill:#E57428;" d="M308.814,272.114c0.646,0.667,1.324,1.299,2.034,1.898c0.619,0.522,1.514,0.607,2.121,0
							c0.536-0.536,0.622-1.597,0-2.121c-0.71-0.599-1.387-1.231-2.034-1.898c-0.564-0.582-1.555-0.566-2.121,0
							C308.232,270.575,308.248,271.53,308.814,272.114L308.814,272.114z"/>
					</g>
				</g>
			</g>
			<polygon style="fill:#B2581B;" points="236.374,154.9 244.507,159.13 253.777,159.194 261.472,154.9 			"/>
			<path style="opacity:0.28;fill:#B2581B;" d="M248.758,174.173v1.637h4.094v-1.988
				C252.852,173.822,248.875,174.056,248.758,174.173z"/>
			<path style="fill:#B2581B;" d="M252.916,179.19l22.305,26.679l-22.509,0.089C252.712,205.958,252.916,179.491,252.916,179.19z"/>
			<path style="fill:#B2581B;" d="M249.028,259.533l3.729-0.061l1.694,56.003h-9.398
				C245.052,315.475,248.464,258.969,249.028,259.533z"/>
			<path style="fill:#964915;" d="M249.497,282.838v38.01l30.616,16.21l-0.576-53.76
				C279.537,283.298,249.267,282.608,249.497,282.838z"/>
			<path style="opacity:0.65;fill:#B2581B;" d="M250.144,202.899h-1.913v-7.143c0-0.518,0.42-0.938,0.938-0.938h0.037
				c0.518,0,0.938,0.42,0.938,0.938V202.899z"/>
			<path style="fill:#C6601C;" d="M219.663,231.072h-1.189v-3.925c0-0.322,0.261-0.583,0.583-0.583h0.023
				c0.322,0,0.583,0.261,0.583,0.583V231.072z"/>
			<path style="fill:#C6601C;" d="M221.322,231.044h-1.189v-3.925c0-0.322,0.261-0.583,0.583-0.583h0.023
				c0.322,0,0.583,0.261,0.583,0.583V231.044z"/>
			<path style="fill:#C6601C;" d="M222.982,231.044h-1.189v-3.925c0-0.322,0.261-0.583,0.583-0.583h0.023
				c0.322,0,0.583,0.261,0.583,0.583V231.044z"/>
			<polygon style="fill:#C6601C;" points="214.404,224.379 216.753,225.625 224.564,225.57 227.664,224.379 			"/>
			<path style="opacity:0.25;fill:#6B462D;" d="M221.613,234.058c-0.124,0-0.226-0.141-0.226-0.265s0.101-0.225,0.225-0.225
				c0.124,0,0.225,0.101,0.225,0.225S221.737,234.058,221.613,234.058z"/>
			<path style="opacity:0.25;fill:#6B462D;" d="M221.885,233.183c-0.062,0-0.113-0.071-0.113-0.134c0-0.063,0.05-0.114,0.113-0.114
				c0.062,0,0.113,0.051,0.113,0.114C221.997,233.111,221.947,233.183,221.885,233.183z"/>
			<rect x="246.727" y="178.081" style="opacity:0.28;fill:#B2581B;" width="4.306" height="1.884"/>
			<rect x="245.657" y="185.346" style="opacity:0.28;fill:#B2581B;" width="2.47" height="1.884"/>
			<path style="opacity:0.65;fill:#B2581B;" d="M247.563,168.052h-1.189v-5.987c0-0.322,0.261-0.583,0.583-0.583h0.023
				c0.322,0,0.583,0.261,0.583,0.583V168.052z"/>
			<path style="opacity:0.65;fill:#B2581B;" d="M249.763,168.072h-1.189v-5.987c0-0.322,0.261-0.583,0.583-0.583h0.023
				c0.322,0,0.583,0.261,0.583,0.583V168.072z"/>
			<path style="opacity:0.65;fill:#B2581B;" d="M252.084,168.132h-1.189v-5.987c0-0.322,0.261-0.583,0.583-0.583h0.023
				c0.322,0,0.583,0.261,0.583,0.583V168.132z"/>
			<rect x="217.535" y="238.109" style="fill:#C6601C;" width="3.222" height="1.933"/>
			<rect x="229.237" y="229.024" style="fill:#B2581B;" width="3.222" height="1.933"/>
			<rect x="239.424" y="233.429" style="fill:#B2581B;" width="5.195" height="1.933"/>
			<rect x="226.884" y="274.673" style="fill:#964915;" width="5.195" height="1.933"/>
			<rect x="231.541" y="270.533" style="fill:#964915;" width="5.196" height="1.933"/>
			<rect x="222.73" y="297.657" style="fill:#964915;" width="5.195" height="1.933"/>
			<rect x="232.924" y="244.464" style="fill:#B2581B;" width="5.196" height="1.933"/>
			<rect x="249.552" y="240.08" style="fill:#B2581B;" width="5.195" height="1.933"/>
			<rect x="242.167" y="235.745" style="fill:#E57428;" width="5.196" height="1.933"/>
			<rect x="230.525" y="277.656" style="fill:#C6601C;" width="5.195" height="1.933"/>
			<rect x="220.942" y="243.651" style="fill:#C6601C;" width="1.813" height="1.933"/>
			<polygon style="fill:#964915;" points="272.604,234.338 274.154,235.792 281.051,235.792 282.152,234.338 			"/>
			<g>
				<path style="fill:#964915;" d="M282.553,228.727c0,0,1.117,34.335-6.839,45.641h13.259
					C288.973,274.367,282.553,270.459,282.553,228.727z"/>
				<path style="fill:#964915;" d="M277.78,276.883v78.472l7.97,4.138l-1.839-71.575l3.219-3.219l-0.307-7.51h-3.525v-1.379
					C283.297,275.81,278.24,276.883,277.78,276.883z"/>
				<polygon style="fill:#874315;" points="275.714,274.367 277.78,276.883 286.823,277.19 288.973,274.367 				"/>
			</g>
			<g>
				<g>
					<path style="fill:#D86D25;" d="M215.405,183.9c0,0-3.129-0.278-2.086,1.947c1.043,2.225,1.808,5.007-2.503,6.12
						c-4.311,1.113-10.014-2.921-12.378-0.07c0,0,0.069-2.643,5.494-1.669c5.424,0.974,9.527,0.07,8.623-2.225
						c-0.904-2.295-1.043-2.921-1.043-2.921S212.507,180.155,215.405,183.9z"/>
				</g>
				<path style="fill:#F2853B;" d="M221.96,180.577l-0.53,4.063c0,0-9.919-2.479-9.78,0.79
					C211.65,185.43,207.375,180.036,221.96,180.577z"/>
			</g>
			<g>
				<g>
					<path style="fill:#D86D25;" d="M238.553,74.774c0,0-5.273-0.469-3.515,3.281s3.047,8.437-4.218,10.312
						c-7.265,1.875-16.874-4.922-20.858-0.117c0,0,0.117-4.453,9.257-2.812c9.14,1.64,16.054,0.117,14.53-3.75
						c-1.523-3.867-1.758-4.922-1.758-4.922S233.671,68.464,238.553,74.774z"/>
				</g>
				<path style="fill:#F2853B;" d="M249.599,69.175l-0.893,6.846c0,0-16.715-4.177-16.48,1.331
					C232.226,77.352,225.023,68.263,249.599,69.175z"/>
			</g>
			<polygon style="fill:#964915;" points="270.708,205.981 252.712,205.958 253.02,208.053 270.651,208.053 			"/>
			<path style="fill:#964915;" d="M259.905,222.629h-3.609v-10.604c0-0.977,0.792-1.769,1.769-1.769h0.071
				c0.977,0,1.769,0.792,1.769,1.769V222.629z"/>
			<path style="fill:#964915;" d="M267.381,222.371h-3.609v-10.604c0-0.977,0.792-1.769,1.769-1.769h0.07
				c0.977,0,1.769,0.792,1.769,1.769V222.371z"/>
			<polygon style="fill:#964915;" points="223.846,324.397 251.523,337.405 253.018,351.465 278.147,362.534 285.925,375.696 
				236.864,431.638 266.181,454.673 215.519,498.493 292.054,500.619 317.336,467.237 259.001,426.851 258.104,417.279 
				315.157,361.12 292.826,342.262 249.241,314.626 222.367,314.626 			"/>
			<polygon style="fill:#964915;" points="230.108,314.852 233.344,309.188 238.4,307.368 239.816,303.93 245.277,304.334 
				249.525,309.795 248.918,315.863 			"/>
			<polygon style="fill:#964915;" points="249.241,314.626 281.867,316.285 274.496,333.41 			"/>
			<path style="fill:#964915;" d="M224.68,329.848"/>
			<path style="fill:#8C4515;" d="M274.915,331.148l-13.784-6.783l0.058-5.628c0-3.79,3.073-6.863,6.863-6.863l0,0
				c3.79,0,6.863,3.073,6.863,6.863V331.148z"/>
			<polygon style="fill:#8C4515;" points="284.678,337.451 249.871,315.155 274.268,336.985 			"/>
			<path style="fill:#8C4515;" d="M260.827,303.884h-3.675v-12.604c0-0.995,0.807-1.802,1.802-1.802h0.072
				c0.995,0,1.802,0.807,1.802,1.802V303.884z"/>
			<path style="fill:#8C4515;" d="M269.941,303.737h-3.675v-12.604c0-0.995,0.806-1.802,1.802-1.802h0.072
				c0.995,0,1.802,0.807,1.802,1.802V303.737z"/>
			<path style="fill:#8C4515;" d="M278.907,304.472h-3.675v-12.604c0-0.995,0.807-1.802,1.802-1.802h0.072
				c0.995,0,1.802,0.807,1.802,1.802V304.472z"/>
			<line style="fill:none;" x1="418.464" y1="401.18" x2="204.472" y2="370.41"/>
			<polygon style="opacity:0.43;fill:#B2581B;" points="391.214,226.444 382.177,224.919 383.763,236.499 389.021,235.564 			"/>
			<polygon style="opacity:0.43;fill:#B2581B;" points="392.822,240.886 386.663,243.04 388.626,254.461 397.385,259.135 
				393.623,254.818 			"/>
			<polygon style="opacity:0.43;fill:#B2581B;" points="398.905,297.914 393.519,296.092 389.629,379.483 408.379,396.344 
				396.624,377.753 			"/>
			
				<linearGradient id="SVGID_00000007387242673229804050000008953354887361691532_" gradientUnits="userSpaceOnUse" x1="351.044" y1="270.5711" x2="394.4357" y2="318.2042">
				<stop  offset="0.0272" style="stop-color:#FADC69"/>
				<stop  offset="1" style="stop-color:#FADC69;stop-opacity:0"/>
			</linearGradient>
			<polygon style="fill:url(#SVGID_00000007387242673229804050000008953354887361691532_);" points="378.274,227.954 
				376.094,230.241 377.615,244.688 371.532,249.251 371.532,311.601 364.689,315.403 363.928,357.223 366.357,316.645 
				372.804,312.151 372.999,249.834 379.446,244.169 377.492,231.08 			"/>
			<path style="fill:#FADC69;" d="M236.374,154.9c0,0,7.124-10.417,9.428-29.711C245.802,125.189,243.361,151.495,236.374,154.9z"/>
			
				<linearGradient id="SVGID_00000160191938165508454400000017996006080959553976_" gradientUnits="userSpaceOnUse" x1="245.3636" y1="194.9034" x2="248.0654" y2="194.9034">
				<stop  offset="0.0272" style="stop-color:#FADC69"/>
				<stop  offset="1" style="stop-color:#FADC69;stop-opacity:0"/>
			</linearGradient>
			<polygon style="opacity:0.25;fill:url(#SVGID_00000160191938165508454400000017996006080959553976_);" points="245.733,168.913 
				248.065,192.031 247.465,220.701 246.725,220.894 246.725,213.985 245.364,213.946 			"/>
			
				<linearGradient id="SVGID_00000005244502952521430080000014496106573548106896_" gradientUnits="userSpaceOnUse" x1="239.5599" y1="230.3269" x2="253.1915" y2="230.3269">
				<stop  offset="0.0272" style="stop-color:#FADC69"/>
				<stop  offset="1" style="stop-color:#FADC69;stop-opacity:0"/>
			</linearGradient>
			<polygon style="opacity:0.25;fill:url(#SVGID_00000005244502952521430080000014496106573548106896_);" points="239.56,220.382 
				253.191,240.271 252.983,233.804 243.142,220.382 			"/>
			
				<linearGradient id="SVGID_00000094587890891757567390000013421357870690326664_" gradientUnits="userSpaceOnUse" x1="232.8263" y1="229.8459" x2="246.4579" y2="229.8459">
				<stop  offset="0.0272" style="stop-color:#FADC69"/>
				<stop  offset="1" style="stop-color:#FADC69;stop-opacity:0"/>
			</linearGradient>
			<polygon style="opacity:0.25;fill:url(#SVGID_00000094587890891757567390000013421357870690326664_);" points="232.826,219.901 
				246.458,239.79 246.249,233.323 236.409,219.901 			"/>
			
				<linearGradient id="SVGID_00000114058470071513651650000014826348158421534085_" gradientUnits="userSpaceOnUse" x1="224.919" y1="271.4103" x2="238.0409" y2="271.4103">
				<stop  offset="0.0272" style="stop-color:#FADC69"/>
				<stop  offset="1" style="stop-color:#FADC69;stop-opacity:0"/>
			</linearGradient>
			<polygon style="opacity:0.25;fill:url(#SVGID_00000114058470071513651650000014826348158421534085_);" points="224.919,261.426 
				238.041,281.394 237.832,274.927 226.614,261.426 			"/>
			
				<linearGradient id="SVGID_00000013178435970627299820000007825507592956247944_" gradientUnits="userSpaceOnUse" x1="217.5862" y1="250.048" x2="219.5559" y2="250.048">
				<stop  offset="0.0272" style="stop-color:#FADC69"/>
				<stop  offset="1" style="stop-color:#FADC69;stop-opacity:0"/>
			</linearGradient>
			<polygon style="opacity:0.25;fill:url(#SVGID_00000013178435970627299820000007825507592956247944_);" points="217.586,231.955 
				219.556,240.209 219.321,267.32 217.796,268.141 			"/>
			
				<linearGradient id="SVGID_00000012441258630462965760000017919969332252574380_" gradientUnits="userSpaceOnUse" x1="214.4042" y1="208.423" x2="220.8242" y2="208.423">
				<stop  offset="0.0272" style="stop-color:#FADC69"/>
				<stop  offset="1" style="stop-color:#FADC69;stop-opacity:0"/>
			</linearGradient>
			<path style="opacity:0.15;fill:url(#SVGID_00000012441258630462965760000017919969332252574380_);" d="M214.404,224.379
				c1.683-1.792,3.421-3.522,5.348-5.035l1.062-26.876C220.814,192.467,221.363,213.538,214.404,224.379z"/>
			
				<linearGradient id="SVGID_00000080897196575099251480000013250954729240378753_" gradientUnits="userSpaceOnUse" x1="276.7289" y1="216.8821" x2="278.3245" y2="216.8821">
				<stop  offset="0.0272" style="stop-color:#FADC69"/>
				<stop  offset="1" style="stop-color:#FADC69;stop-opacity:0"/>
			</linearGradient>
			<polygon style="opacity:0.15;fill:url(#SVGID_00000080897196575099251480000013250954729240378753_);" points="276.729,219.126 
				278.324,220.821 277.926,213.641 277.327,212.943 			"/>
			<g>
				<g>
					<path style="fill:#D86D25;" d="M270.813,210.023c0,0-3.349-0.298-2.233,2.084c1.116,2.382,1.935,5.359-2.679,6.549
						c-4.614,1.191-10.717-3.126-13.248-0.074c0,0,0.074-2.828,5.88-1.786c5.805,1.042,10.196,0.074,9.229-2.382
						c-0.968-2.456-1.116-3.126-1.116-3.126S267.712,206.015,270.813,210.023z"/>
				</g>
				<path style="fill:#F2853B;" d="M277.829,206.467l-0.567,4.348c0,0-10.616-2.653-10.468,0.845
					C266.794,211.66,262.219,205.887,277.829,206.467z"/>
			</g>
			
				<linearGradient id="SVGID_00000165933506944177207920000011659076873482973875_" gradientUnits="userSpaceOnUse" x1="222.4939" y1="286.3231" x2="233.7934" y2="286.3231">
				<stop  offset="0.0272" style="stop-color:#FADC69"/>
				<stop  offset="1" style="stop-color:#FADC69;stop-opacity:0"/>
			</linearGradient>
			<polygon style="opacity:0.25;fill:url(#SVGID_00000165933506944177207920000011659076873482973875_);" points="222.494,277.743 
				233.793,296.605 233.347,290.358 222.577,276.041 			"/>
			
				<linearGradient id="SVGID_00000137825050618184127860000015420906528199165585_" gradientUnits="userSpaceOnUse" x1="222.5769" y1="298.1995" x2="232.3654" y2="298.1995">
				<stop  offset="0.0272" style="stop-color:#FADC69"/>
				<stop  offset="1" style="stop-color:#FADC69;stop-opacity:0"/>
			</linearGradient>
			<polygon style="opacity:0.25;fill:url(#SVGID_00000137825050618184127860000015420906528199165585_);" points="222.784,303.137 
				230.585,314.299 232.365,299.193 222.577,282.1 			"/>
			
				<linearGradient id="SVGID_00000023984810420147029300000008705823952775057065_" gradientUnits="userSpaceOnUse" x1="278.0173" y1="263.7793" x2="283.2782" y2="263.7793">
				<stop  offset="0.0272" style="stop-color:#FADC69"/>
				<stop  offset="1" style="stop-color:#FADC69;stop-opacity:0"/>
			</linearGradient>
			<path style="opacity:0.15;fill:url(#SVGID_00000023984810420147029300000008705823952775057065_);" d="M281.443,253.196
				l1.835,4.404l-0.367,16.761l-4.894-4.282C278.017,270.08,281.321,258.824,281.443,253.196z"/>
			
				<linearGradient id="SVGID_00000159443924469348822690000015045139021149781154_" gradientUnits="userSpaceOnUse" x1="284.0615" y1="345.6005" x2="300.644" y2="345.6005">
				<stop  offset="0.0272" style="stop-color:#FADC69"/>
				<stop  offset="1" style="stop-color:#FADC69;stop-opacity:0"/>
			</linearGradient>
			<polyline style="fill:url(#SVGID_00000159443924469348822690000015045139021149781154_);" points="284.678,337.451 
				300.366,354.536 300.644,348.4 292.826,342.262 284.061,336.665 			"/>
			
				<linearGradient id="SVGID_00000117674046092947659590000007303840786733670788_" gradientUnits="userSpaceOnUse" x1="293.0694" y1="342.8123" x2="305.7137" y2="356.2514">
				<stop  offset="0.0272" style="stop-color:#FADC69"/>
				<stop  offset="1" style="stop-color:#FADC69;stop-opacity:0"/>
			</linearGradient>
			<polygon style="fill:url(#SVGID_00000117674046092947659590000007303840786733670788_);" points="303.252,351.147 
				303.325,356.422 305.492,357.433 304.481,352.231 			"/>
			
				<linearGradient id="SVGID_00000098180826619773855860000007211052688246946239_" gradientUnits="userSpaceOnUse" x1="214.6364" y1="344.2401" x2="216.4474" y2="346.2281">
				<stop  offset="0.0272" style="stop-color:#FADC69"/>
				<stop  offset="1" style="stop-color:#FADC69;stop-opacity:0"/>
			</linearGradient>
			<polygon style="opacity:0.15;fill:url(#SVGID_00000098180826619773855860000007211052688246946239_);" points="209.454,348.217 
				219.38,339.781 219.485,343.929 			"/>
			<polygon style="fill:#753014;" points="-46.413,352.206 -39.449,352.742 -24.448,324.884 -22.841,343.634 -8.912,313.098 
				-5.698,337.205 -1.948,335.598 3.41,306.133 9.303,319.526 15.731,339.348 18.41,339.884 19.482,346.313 25.375,343.634 
				36.625,328.634 38.232,343.634 44.661,337.741 45.732,345.241 51.625,335.598 54.304,345.241 67.162,321.669 68.769,350.063 
				77.876,345.241 78.948,354.349 79.483,372.564 85.377,373.635 105.734,338.277 108.413,375.778 116.449,363.456 144.307,395.6 
				170.022,328.098 187.165,391.314 196.809,393.457 210.202,329.169 210.202,461.495 112.494,470.937 -46.413,433.637 			"/>
			<polygon style="fill:#753014;" points="571.364,386.106 564.399,386.641 549.399,358.783 547.792,377.534 533.863,346.997 
				530.648,371.105 526.898,369.498 521.541,340.033 515.648,353.426 509.219,373.248 506.54,373.784 505.469,380.212 
				499.576,377.534 488.325,362.533 486.718,377.534 480.289,371.641 479.218,379.141 473.325,369.498 470.646,379.141 
				457.789,355.569 456.182,383.963 447.074,379.141 446.003,388.249 445.467,406.463 439.574,407.535 419.216,372.177 
				416.537,409.678 408.501,397.356 380.643,429.5 354.928,361.998 337.785,425.214 328.142,427.357 314.749,363.069 
				314.749,495.395 571.364,467.537 			"/>
			<polygon style="fill:#5D1815;" points="-54.874,400.252 -49.95,387.941 -39.486,424.257 -24.713,381.786 -20.404,423.026 
				-11.787,409.485 -9.325,426.104 -1.323,436.568 2.37,419.949 8.525,429.181 18.374,389.172 31.3,429.797 41.764,424.873 
				47.919,395.943 56.536,423.026 84.235,418.102 89.774,424.873 84.235,440.261 87.928,448.878 97.161,448.878 119.935,464.882 
				134.092,461.189 161.791,360.858 180.872,424.873 202.415,359.627 207.955,503.66 18.989,531.358 -54.874,504.275 			"/>
			<polygon style="fill:#5D1815;" points="269.861,509.045 288.127,460.639 296.347,490.779 324.66,404.927 339.273,457.899 
				378.545,436.893 407.771,428.673 438.824,445.113 432.431,466.119 447.957,472.513 488.143,456.986 500.929,395.794 
				521.936,516.352 			"/>
			<polygon style="fill:#5D1815;" points="204.465,444.903 215.888,428.671 235.727,504.42 245.947,476.766 258.571,494.2 
				279.613,488.789 277.809,511.033 172.001,506.224 			"/>
			<polygon style="fill:#5D1815;" points="236.821,431.399 238.567,380.411 243.459,413.766 245.683,395.977 248.796,409.763 
				251.909,401.758 255.912,409.763 			"/>
			<polygon style="fill:#753014;" points="252.488,350.239 254.995,331.751 257.816,351.806 261.889,348.672 263.456,355.879 
				268.47,352.746 271.29,360.266 257.502,358.699 			"/>
		</g>
	</g>
</g>
<g id="Designed_by_freepik">
	<g>
		<g>
			<path style="fill:#FADC69;" d="M179.649,485.7v-0.161c-0.22,0.249-0.437,0.452-0.65,0.608c-0.213,0.157-0.445,0.276-0.695,0.357
				c-0.25,0.082-0.522,0.122-0.818,0.122c-0.392,0-0.755-0.082-1.088-0.246c-0.333-0.164-0.622-0.399-0.865-0.704
				c-0.244-0.305-0.429-0.662-0.555-1.074c-0.126-0.412-0.189-0.857-0.189-1.335c0-1.013,0.25-1.804,0.749-2.369
				c0.499-0.565,1.156-0.848,1.971-0.848c0.471,0,0.869,0.081,1.192,0.24c0.324,0.161,0.639,0.408,0.947,0.739v-2.392
				c0-0.333,0.066-0.583,0.201-0.754c0.133-0.17,0.324-0.255,0.572-0.255c0.248,0,0.438,0.078,0.572,0.234
				c0.134,0.157,0.201,0.386,0.201,0.691v7.147c0,0.309-0.071,0.54-0.216,0.694c-0.144,0.154-0.329,0.231-0.557,0.231
				c-0.224,0-0.408-0.08-0.554-0.24C179.721,486.225,179.649,485.996,179.649,485.7z M176.431,483.319
				c0,0.439,0.069,0.813,0.207,1.122c0.138,0.309,0.327,0.541,0.566,0.697c0.24,0.157,0.501,0.236,0.785,0.236
				c0.288,0,0.55-0.075,0.788-0.223c0.238-0.148,0.427-0.376,0.569-0.682c0.142-0.307,0.213-0.691,0.213-1.149
				c0-0.432-0.07-0.803-0.213-1.114c-0.142-0.31-0.333-0.548-0.575-0.712c-0.242-0.164-0.506-0.245-0.794-0.245
				c-0.299,0-0.567,0.084-0.803,0.252c-0.236,0.168-0.418,0.409-0.548,0.724C176.495,482.539,176.431,482.904,176.431,483.319z"/>
			<path style="fill:#FADC69;" d="M186.862,483.729h-3.199c0.004,0.367,0.079,0.692,0.225,0.973
				c0.145,0.281,0.339,0.493,0.581,0.635c0.242,0.143,0.509,0.213,0.8,0.213c0.195,0,0.374-0.022,0.536-0.067
				c0.162-0.046,0.318-0.117,0.471-0.214c0.152-0.096,0.291-0.201,0.419-0.312c0.128-0.111,0.293-0.262,0.497-0.452
				c0.084-0.071,0.204-0.107,0.36-0.107c0.167,0,0.303,0.046,0.407,0.137c0.104,0.092,0.157,0.219,0.157,0.386
				c0,0.147-0.059,0.317-0.174,0.513c-0.117,0.196-0.291,0.384-0.525,0.564c-0.234,0.18-0.527,0.329-0.881,0.448
				c-0.353,0.119-0.76,0.178-1.219,0.178c-1.05,0-1.867-0.297-2.451-0.891c-0.583-0.593-0.875-1.399-0.875-2.416
				c0-0.479,0.071-0.923,0.215-1.332c0.144-0.41,0.354-0.761,0.629-1.054c0.276-0.293,0.615-0.517,1.019-0.674
				c0.403-0.156,0.851-0.234,1.342-0.234c0.639,0,1.187,0.133,1.644,0.4c0.458,0.267,0.801,0.612,1.028,1.035
				c0.227,0.424,0.342,0.856,0.342,1.294c0,0.408-0.118,0.672-0.353,0.794C187.622,483.668,187.29,483.729,186.862,483.729z
				 M183.663,482.809h2.966c-0.039-0.554-0.191-0.969-0.452-1.244c-0.262-0.275-0.606-0.413-1.034-0.413
				c-0.408,0-0.742,0.139-1.004,0.418C183.878,481.85,183.719,482.263,183.663,482.809z"/>
			<path style="fill:#FADC69;" d="M194.316,484.506c0,0.447-0.109,0.831-0.33,1.149c-0.219,0.319-0.544,0.56-0.974,0.724
				c-0.429,0.164-0.952,0.246-1.567,0.246c-0.587,0-1.09-0.089-1.51-0.267c-0.419-0.178-0.729-0.401-0.928-0.667
				c-0.2-0.268-0.3-0.535-0.3-0.805c0-0.178,0.063-0.33,0.192-0.457c0.127-0.126,0.289-0.19,0.485-0.19
				c0.171,0,0.303,0.042,0.395,0.124c0.092,0.083,0.18,0.2,0.263,0.35c0.168,0.29,0.369,0.504,0.603,0.648
				c0.234,0.142,0.552,0.214,0.956,0.214c0.327,0,0.596-0.073,0.806-0.217c0.209-0.145,0.314-0.31,0.314-0.496
				c0-0.285-0.108-0.492-0.327-0.622c-0.218-0.131-0.576-0.256-1.076-0.375c-0.563-0.138-1.022-0.284-1.375-0.436
				c-0.354-0.151-0.636-0.353-0.848-0.602c-0.212-0.25-0.317-0.557-0.317-0.92c0-0.324,0.098-0.631,0.293-0.92
				c0.196-0.288,0.485-0.519,0.867-0.691c0.381-0.173,0.841-0.259,1.38-0.259c0.423,0,0.804,0.043,1.141,0.131
				c0.338,0.086,0.62,0.204,0.845,0.35c0.226,0.146,0.397,0.308,0.515,0.486c0.118,0.178,0.177,0.352,0.177,0.523
				c0,0.186-0.063,0.338-0.188,0.457c-0.126,0.118-0.304,0.178-0.537,0.178c-0.168,0-0.31-0.048-0.428-0.143
				c-0.118-0.095-0.253-0.237-0.404-0.427c-0.124-0.158-0.269-0.285-0.437-0.38c-0.168-0.095-0.396-0.142-0.684-0.142
				c-0.296,0-0.541,0.062-0.737,0.187c-0.196,0.124-0.294,0.279-0.294,0.465c0,0.171,0.072,0.31,0.215,0.419
				c0.144,0.109,0.338,0.2,0.582,0.27c0.244,0.071,0.578,0.158,1.007,0.261c0.507,0.123,0.921,0.27,1.243,0.439
				c0.321,0.17,0.565,0.371,0.731,0.603C194.234,483.946,194.316,484.209,194.316,484.506z"/>
			<path style="fill:#FADC69;" d="M195.988,479.283c-0.228,0-0.422-0.07-0.584-0.208c-0.162-0.138-0.243-0.334-0.243-0.588
				c0-0.23,0.083-0.418,0.249-0.567c0.166-0.149,0.359-0.223,0.578-0.223c0.212,0,0.4,0.067,0.563,0.202
				c0.164,0.135,0.246,0.33,0.246,0.588c0,0.25-0.08,0.444-0.24,0.585C196.397,479.212,196.207,479.283,195.988,479.283z
				 M196.797,480.957v4.683c0,0.325-0.078,0.571-0.234,0.737c-0.156,0.166-0.353,0.249-0.593,0.249s-0.435-0.085-0.585-0.255
				c-0.15-0.17-0.225-0.414-0.225-0.73v-4.636c0-0.32,0.075-0.561,0.225-0.724c0.15-0.162,0.344-0.243,0.585-0.243
				s0.437,0.081,0.593,0.243C196.719,480.442,196.797,480.668,196.797,480.957z"/>
			<path style="fill:#FADC69;" d="M203.964,481.224v4.707c0,0.538-0.059,1.001-0.175,1.39c-0.115,0.387-0.301,0.708-0.557,0.961
				c-0.256,0.253-0.59,0.441-1.003,0.563c-0.413,0.123-0.928,0.184-1.543,0.184c-0.563,0-1.066-0.078-1.51-0.234
				c-0.443-0.157-0.784-0.358-1.025-0.605c-0.239-0.247-0.36-0.502-0.36-0.763c0-0.198,0.068-0.359,0.204-0.483
				c0.135-0.125,0.3-0.187,0.491-0.187c0.24,0,0.449,0.105,0.629,0.314c0.088,0.107,0.178,0.216,0.272,0.324
				c0.094,0.109,0.198,0.202,0.312,0.279c0.114,0.076,0.251,0.134,0.41,0.172c0.16,0.037,0.344,0.056,0.551,0.056
				c0.424,0,0.752-0.058,0.986-0.175c0.234-0.117,0.398-0.28,0.491-0.49c0.094-0.209,0.149-0.433,0.165-0.673
				c0.016-0.24,0.028-0.624,0.036-1.155c-0.252,0.349-0.542,0.615-0.872,0.797c-0.329,0.182-0.722,0.273-1.177,0.273
				c-0.548,0-1.026-0.138-1.436-0.416c-0.409-0.277-0.724-0.665-0.943-1.163c-0.22-0.499-0.329-1.074-0.329-1.727
				c0-0.487,0.066-0.927,0.2-1.318c0.134-0.393,0.325-0.723,0.572-0.992c0.248-0.269,0.533-0.472,0.857-0.609
				c0.324-0.136,0.679-0.204,1.067-0.204c0.463,0,0.865,0.089,1.204,0.264c0.339,0.177,0.655,0.453,0.947,0.829v-0.22
				c0-0.281,0.07-0.498,0.209-0.653c0.14-0.154,0.32-0.231,0.54-0.231c0.316,0,0.525,0.103,0.629,0.306
				C203.911,480.546,203.964,480.84,203.964,481.224z M199.223,483.278c0,0.657,0.144,1.154,0.434,1.49
				c0.29,0.337,0.665,0.505,1.124,0.505c0.271,0,0.528-0.073,0.77-0.217c0.242-0.145,0.439-0.362,0.591-0.653
				c0.151-0.291,0.228-0.644,0.228-1.06c0-0.66-0.147-1.176-0.441-1.543c-0.294-0.368-0.68-0.552-1.16-0.552
				c-0.468,0-0.842,0.176-1.123,0.529C199.364,482.128,199.223,482.629,199.223,483.278z"/>
			<path style="fill:#FADC69;" d="M206.563,480.933v0.196c0.287-0.376,0.602-0.652,0.944-0.828c0.342-0.176,0.734-0.264,1.177-0.264
				c0.432,0,0.817,0.093,1.157,0.28c0.339,0.186,0.594,0.449,0.761,0.789c0.109,0.198,0.178,0.413,0.21,0.642
				c0.032,0.23,0.049,0.522,0.049,0.879v3.015c0,0.325-0.075,0.571-0.225,0.737c-0.15,0.166-0.344,0.249-0.584,0.249
				c-0.244,0-0.441-0.085-0.593-0.255c-0.152-0.17-0.228-0.414-0.228-0.73v-2.701c0-0.534-0.075-0.943-0.225-1.226
				c-0.15-0.283-0.448-0.425-0.896-0.425c-0.291,0-0.557,0.086-0.797,0.258c-0.24,0.173-0.416,0.41-0.527,0.71
				c-0.08,0.242-0.12,0.692-0.12,1.353v2.03c0,0.328-0.077,0.576-0.231,0.74c-0.154,0.164-0.352,0.246-0.596,0.246
				c-0.236,0-0.429-0.085-0.582-0.255c-0.152-0.17-0.228-0.414-0.228-0.73v-4.683c0-0.309,0.068-0.54,0.204-0.692
				c0.136-0.152,0.322-0.228,0.557-0.228c0.144,0,0.274,0.034,0.39,0.101c0.115,0.068,0.209,0.168,0.278,0.302
				C206.528,480.575,206.563,480.739,206.563,480.933z"/>
			<path style="fill:#FADC69;" d="M216.515,483.729h-3.2c0.004,0.367,0.079,0.692,0.225,0.973c0.146,0.281,0.339,0.493,0.581,0.635
				c0.241,0.143,0.508,0.213,0.799,0.213c0.196,0,0.375-0.022,0.537-0.067c0.161-0.046,0.318-0.117,0.47-0.214
				c0.151-0.096,0.291-0.201,0.42-0.312c0.127-0.111,0.293-0.262,0.497-0.452c0.084-0.071,0.204-0.107,0.36-0.107
				c0.168,0,0.304,0.046,0.408,0.137c0.104,0.092,0.156,0.219,0.156,0.386c0,0.147-0.058,0.317-0.174,0.513
				c-0.116,0.196-0.291,0.384-0.525,0.564c-0.234,0.18-0.527,0.329-0.88,0.448c-0.354,0.119-0.76,0.178-1.22,0.178
				c-1.05,0-1.867-0.297-2.451-0.891c-0.583-0.593-0.874-1.399-0.874-2.416c0-0.479,0.072-0.923,0.216-1.332
				c0.144-0.41,0.354-0.761,0.63-1.054c0.275-0.293,0.615-0.517,1.019-0.674c0.403-0.156,0.851-0.234,1.342-0.234
				c0.639,0,1.187,0.133,1.644,0.4c0.458,0.267,0.8,0.612,1.028,1.035c0.227,0.424,0.342,0.856,0.342,1.294
				c0,0.408-0.118,0.672-0.354,0.794C217.275,483.668,216.943,483.729,216.515,483.729z M213.316,482.809h2.966
				c-0.04-0.554-0.191-0.969-0.452-1.244c-0.262-0.275-0.606-0.413-1.033-0.413c-0.408,0-0.743,0.139-1.004,0.418
				C213.53,481.85,213.372,482.263,213.316,482.809z"/>
			<path style="fill:#FADC69;" d="M223.184,485.7v-0.161c-0.22,0.249-0.436,0.452-0.65,0.608c-0.214,0.157-0.445,0.276-0.695,0.357
				c-0.249,0.082-0.522,0.122-0.818,0.122c-0.392,0-0.754-0.082-1.088-0.246c-0.334-0.164-0.622-0.399-0.866-0.704
				c-0.244-0.305-0.428-0.662-0.554-1.074c-0.126-0.412-0.189-0.857-0.189-1.335c0-1.013,0.249-1.804,0.749-2.369
				c0.499-0.565,1.157-0.848,1.972-0.848c0.471,0,0.869,0.081,1.192,0.24c0.324,0.161,0.639,0.408,0.946,0.739v-2.392
				c0-0.333,0.067-0.583,0.201-0.754c0.133-0.17,0.325-0.255,0.572-0.255c0.248,0,0.438,0.078,0.572,0.234
				c0.134,0.157,0.201,0.386,0.201,0.691v7.147c0,0.309-0.072,0.54-0.216,0.694c-0.144,0.154-0.329,0.231-0.557,0.231
				c-0.224,0-0.408-0.08-0.554-0.24C223.257,486.225,223.184,485.996,223.184,485.7z M219.967,483.319
				c0,0.439,0.068,0.813,0.206,1.122c0.138,0.309,0.326,0.541,0.567,0.697c0.24,0.157,0.501,0.236,0.784,0.236
				c0.288,0,0.551-0.075,0.788-0.223c0.238-0.148,0.428-0.376,0.569-0.682c0.142-0.307,0.213-0.691,0.213-1.149
				c0-0.432-0.071-0.803-0.213-1.114c-0.142-0.31-0.333-0.548-0.575-0.712c-0.242-0.164-0.506-0.245-0.794-0.245
				c-0.299,0-0.567,0.084-0.803,0.252c-0.235,0.168-0.418,0.409-0.548,0.724C220.031,482.539,219.967,482.904,219.967,483.319z"/>
			<path style="fill:#FADC69;" d="M229.87,478.552v2.475c0.307-0.316,0.621-0.559,0.941-0.727c0.32-0.168,0.715-0.252,1.187-0.252
				c0.543,0,1.019,0.128,1.429,0.382c0.409,0.256,0.726,0.626,0.953,1.111c0.225,0.484,0.339,1.06,0.339,1.725
				c0,0.491-0.063,0.94-0.189,1.35c-0.126,0.41-0.309,0.765-0.549,1.065c-0.24,0.301-0.53,0.534-0.872,0.698
				c-0.342,0.164-0.718,0.246-1.13,0.246c-0.252,0-0.489-0.029-0.71-0.089c-0.222-0.059-0.411-0.137-0.567-0.234
				c-0.155-0.096-0.288-0.197-0.398-0.3c-0.11-0.103-0.255-0.258-0.435-0.463v0.161c0,0.305-0.074,0.535-0.222,0.692
				c-0.147,0.156-0.335,0.234-0.563,0.234c-0.232,0-0.417-0.078-0.554-0.234c-0.138-0.157-0.207-0.388-0.207-0.692v-7.077
				c0-0.328,0.067-0.577,0.2-0.745c0.134-0.168,0.321-0.252,0.561-0.252c0.252,0,0.445,0.08,0.581,0.24
				C229.802,478.028,229.87,478.255,229.87,478.552z M229.948,483.367c0,0.645,0.149,1.14,0.447,1.486
				c0.298,0.347,0.688,0.521,1.172,0.521c0.411,0,0.766-0.177,1.063-0.532c0.298-0.355,0.446-0.862,0.446-1.523
				c0-0.427-0.061-0.796-0.185-1.104c-0.124-0.309-0.299-0.548-0.527-0.715c-0.228-0.168-0.494-0.252-0.797-0.252
				c-0.311,0-0.59,0.084-0.833,0.252c-0.244,0.168-0.435,0.411-0.576,0.73C230.018,482.548,229.948,482.927,229.948,483.367z"/>
			<path style="fill:#FADC69;" d="M236.839,486.828l0.15-0.363l-2.014-5.022c-0.123-0.288-0.186-0.499-0.186-0.629
				c0-0.139,0.036-0.267,0.108-0.385c0.072-0.119,0.171-0.214,0.296-0.285c0.126-0.072,0.257-0.107,0.393-0.107
				c0.235,0,0.413,0.075,0.534,0.223c0.12,0.148,0.225,0.361,0.317,0.638l1.384,3.989l1.312-3.71c0.104-0.3,0.197-0.536,0.282-0.706
				c0.084-0.17,0.172-0.285,0.266-0.344c0.094-0.06,0.227-0.09,0.399-0.09c0.124,0,0.243,0.032,0.357,0.098
				c0.114,0.065,0.201,0.153,0.263,0.264c0.062,0.111,0.093,0.227,0.093,0.35c-0.017,0.075-0.042,0.182-0.078,0.321
				c-0.036,0.138-0.08,0.279-0.132,0.421l-2.133,5.533c-0.184,0.487-0.364,0.868-0.54,1.145c-0.176,0.277-0.408,0.491-0.698,0.638
				c-0.29,0.149-0.68,0.223-1.172,0.223c-0.479,0-0.839-0.051-1.078-0.154c-0.24-0.104-0.36-0.292-0.36-0.565
				c0-0.186,0.056-0.33,0.171-0.43c0.113-0.101,0.282-0.152,0.506-0.152c0.088,0,0.174,0.012,0.258,0.037
				c0.104,0.023,0.193,0.035,0.269,0.035c0.188,0,0.336-0.027,0.444-0.084c0.107-0.055,0.204-0.151,0.291-0.288
				C236.628,487.294,236.728,487.093,236.839,486.828z"/>
		</g>
		<g>
			<path style="fill:#FADC69;" d="M260.538,480.177h0.39v-0.487c0-0.509,0.063-0.911,0.193-1.211
				c0.129-0.299,0.351-0.516,0.661-0.653c0.309-0.135,0.734-0.204,1.272-0.204c0.959,0,1.434,0.229,1.434,0.696
				c0,0.149-0.05,0.278-0.152,0.385c-0.097,0.106-0.216,0.16-0.352,0.16c-0.063,0-0.176-0.012-0.333-0.037
				c-0.15-0.021-0.285-0.035-0.393-0.035c-0.295,0-0.484,0.088-0.571,0.259c-0.08,0.172-0.123,0.418-0.123,0.74v0.386h0.399
				c0.625,0,0.935,0.186,0.935,0.56c0,0.262-0.08,0.432-0.248,0.503c-0.165,0.071-0.394,0.107-0.687,0.107h-0.399v4.294
				c0,0.319-0.076,0.563-0.233,0.73c-0.152,0.17-0.349,0.254-0.595,0.254c-0.232,0-0.423-0.084-0.579-0.254
				c-0.154-0.167-0.23-0.411-0.23-0.73v-4.294h-0.45c-0.245,0-0.431-0.052-0.564-0.164c-0.132-0.107-0.199-0.25-0.199-0.423
				C259.715,480.369,259.99,480.177,260.538,480.177"/>
			<path style="fill:#FADC69;" d="M265.894,484.286v1.355c0,0.327-0.084,0.574-0.236,0.737c-0.156,0.166-0.352,0.247-0.591,0.247
				c-0.241,0-0.434-0.082-0.585-0.25c-0.149-0.165-0.227-0.41-0.227-0.734v-4.514c0-0.729,0.265-1.093,0.795-1.093
				c0.274,0,0.469,0.084,0.589,0.255c0.12,0.171,0.186,0.421,0.2,0.755c0.194-0.334,0.394-0.584,0.598-0.755
				c0.21-0.171,0.481-0.255,0.826-0.255c0.346,0,0.677,0.084,1,0.255c0.325,0.171,0.487,0.398,0.487,0.678
				c0,0.197-0.07,0.363-0.206,0.488c-0.139,0.131-0.286,0.195-0.445,0.195c-0.063,0-0.209-0.039-0.437-0.112
				c-0.23-0.071-0.434-0.108-0.608-0.108c-0.24,0-0.437,0.064-0.588,0.186c-0.153,0.128-0.272,0.311-0.356,0.554
				c-0.081,0.247-0.138,0.541-0.172,0.878C265.908,483.386,265.894,483.799,265.894,484.286"/>
			<path style="fill:#FADC69;" d="M273.415,483.728h-3.201c0.006,0.367,0.078,0.694,0.224,0.974
				c0.148,0.279,0.341,0.491,0.583,0.635c0.243,0.142,0.507,0.212,0.8,0.212c0.196,0,0.374-0.021,0.536-0.07
				c0.16-0.043,0.319-0.116,0.47-0.213c0.153-0.095,0.29-0.199,0.419-0.313c0.128-0.109,0.294-0.26,0.499-0.449
				c0.085-0.071,0.205-0.109,0.358-0.109c0.17,0,0.304,0.046,0.41,0.139c0.105,0.092,0.154,0.219,0.154,0.386
				c0,0.147-0.056,0.317-0.169,0.512c-0.118,0.198-0.292,0.385-0.527,0.566c-0.236,0.178-0.529,0.329-0.882,0.446
				c-0.353,0.119-0.761,0.179-1.219,0.179c-1.054,0-1.87-0.296-2.452-0.889c-0.583-0.595-0.878-1.401-0.878-2.418
				c0-0.479,0.074-0.924,0.219-1.334c0.142-0.411,0.352-0.76,0.63-1.055c0.275-0.294,0.612-0.518,1.017-0.674
				c0.402-0.156,0.85-0.234,1.342-0.234c0.638,0,1.187,0.134,1.645,0.404c0.457,0.264,0.803,0.61,1.028,1.034
				c0.228,0.425,0.342,0.855,0.342,1.296c0,0.405-0.119,0.669-0.354,0.791C274.173,483.667,273.843,483.728,273.415,483.728
				 M270.214,482.806h2.966c-0.039-0.553-0.188-0.969-0.45-1.241c-0.264-0.277-0.605-0.413-1.035-0.413
				c-0.407,0-0.742,0.137-1.004,0.418C270.429,481.849,270.268,482.26,270.214,482.806"/>
			<path style="fill:#FADC69;" d="M280.221,483.728h-3.201c0.004,0.367,0.079,0.694,0.224,0.974c0.146,0.279,0.34,0.491,0.581,0.635
				c0.242,0.142,0.508,0.212,0.802,0.212c0.194,0,0.374-0.021,0.533-0.07c0.163-0.043,0.319-0.116,0.473-0.213
				c0.153-0.095,0.29-0.199,0.419-0.313c0.126-0.109,0.293-0.26,0.497-0.449c0.085-0.071,0.206-0.109,0.358-0.109
				c0.169,0,0.305,0.046,0.41,0.139c0.104,0.092,0.152,0.219,0.152,0.386c0,0.147-0.055,0.317-0.172,0.512
				c-0.112,0.198-0.287,0.385-0.524,0.566c-0.234,0.178-0.53,0.329-0.88,0.446c-0.352,0.119-0.762,0.179-1.221,0.179
				c-1.052,0-1.867-0.296-2.452-0.889c-0.583-0.595-0.876-1.401-0.876-2.418c0-0.479,0.073-0.924,0.219-1.334
				c0.143-0.411,0.352-0.76,0.628-1.055c0.275-0.294,0.614-0.518,1.019-0.674c0.402-0.156,0.852-0.234,1.343-0.234
				c0.636,0,1.185,0.134,1.649,0.404c0.454,0.264,0.799,0.61,1.023,1.034c0.227,0.425,0.344,0.855,0.344,1.296
				c0,0.405-0.121,0.669-0.354,0.791C280.978,483.667,280.647,483.728,280.221,483.728 M277.02,482.806h2.966
				c-0.04-0.553-0.191-0.969-0.451-1.241c-0.266-0.277-0.607-0.413-1.036-0.413c-0.407,0-0.742,0.137-1.005,0.418
				C277.233,481.849,277.073,482.26,277.02,482.806"/>
			<path style="fill:#FADC69;" d="M285.89,486.625c-0.466,0-0.861-0.093-1.177-0.28c-0.317-0.182-0.62-0.458-0.909-0.816v2.433
				c0,0.71-0.262,1.069-0.785,1.069c-0.309,0-0.51-0.092-0.613-0.275c-0.095-0.187-0.147-0.452-0.147-0.807v-6.996
				c0-0.309,0.067-0.537,0.202-0.692c0.135-0.15,0.323-0.228,0.558-0.228c0.233,0,0.42,0.078,0.565,0.234
				c0.148,0.159,0.22,0.382,0.22,0.678 M283.804,480.945v0.194c0.307-0.375,0.627-0.651,0.962-0.828
				c0.327-0.178,0.706-0.267,1.125-0.267c0.502,0,0.969,0.13,1.392,0.386c0.423,0.259,0.756,0.635,1.002,1.129
				c0.246,0.497,0.37,1.081,0.37,1.758c0,0.497-0.071,0.957-0.212,1.376c-0.141,0.417-0.339,0.767-0.586,1.05
				c-0.248,0.281-0.54,0.501-0.877,0.654c-0.342,0.151-0.701,0.227-1.09,0.227 M287.012,483.3c0-0.428-0.067-0.796-0.198-1.102
				c-0.132-0.308-0.315-0.542-0.547-0.705c-0.232-0.164-0.493-0.248-0.777-0.248c-0.45,0-0.832,0.178-1.141,0.527
				c-0.31,0.354-0.466,0.872-0.466,1.558c0,0.642,0.154,1.146,0.464,1.504c0.307,0.358,0.685,0.536,1.143,0.536
				c0.271,0,0.524-0.079,0.755-0.233c0.234-0.158,0.419-0.392,0.557-0.704C286.941,484.121,287.012,483.742,287.012,483.3"/>
			<path style="fill:#FADC69;" d="M290.302,479.279c-0.229,0-0.422-0.071-0.582-0.209c-0.164-0.139-0.244-0.333-0.244-0.585
				c0-0.23,0.082-0.419,0.25-0.569c0.165-0.147,0.357-0.222,0.577-0.222c0.214,0,0.401,0.067,0.564,0.2
				c0.164,0.137,0.246,0.334,0.246,0.591c0,0.25-0.08,0.444-0.238,0.585C290.714,479.207,290.524,479.279,290.302,479.279
				 M291.113,480.953v4.689c0,0.322-0.078,0.568-0.234,0.732c-0.158,0.168-0.354,0.25-0.594,0.25c-0.24,0-0.432-0.084-0.585-0.254
				c-0.147-0.173-0.224-0.416-0.224-0.729V481c0-0.319,0.077-0.559,0.224-0.721c0.153-0.165,0.345-0.245,0.585-0.245
				c0.24,0,0.436,0.079,0.594,0.245C291.034,480.44,291.113,480.667,291.113,480.953"/>
			<path style="fill:#FADC69;" d="M296.387,485.885l-1.441-2.354l-0.888,0.83v1.291c0,0.312-0.084,0.551-0.25,0.718
				c-0.162,0.17-0.357,0.254-0.572,0.254c-0.251,0-0.451-0.082-0.593-0.25c-0.143-0.165-0.217-0.41-0.217-0.734v-6.915
				c0-0.358,0.072-0.632,0.209-0.821c0.141-0.19,0.344-0.283,0.601-0.283c0.252,0,0.45,0.085,0.599,0.257
				c0.148,0.169,0.223,0.421,0.223,0.751v3.933l1.84-1.914c0.229-0.235,0.399-0.4,0.522-0.486c0.12-0.087,0.264-0.13,0.435-0.13
				c0.206,0,0.375,0.065,0.514,0.193c0.133,0.129,0.202,0.291,0.202,0.483c0,0.237-0.223,0.556-0.665,0.951l-0.869,0.789
				l1.678,2.614c0.122,0.196,0.214,0.34,0.267,0.441c0.053,0.099,0.082,0.2,0.082,0.289c0,0.258-0.072,0.459-0.215,0.61
				c-0.142,0.148-0.33,0.221-0.559,0.221c-0.199,0-0.355-0.051-0.463-0.16C296.719,486.357,296.569,486.162,296.387,485.885"/>
			<path style="fill:#FADC69;" d="M299.942,486.625c-0.247,0-0.459-0.079-0.64-0.238c-0.179-0.156-0.27-0.378-0.27-0.665
				c0-0.241,0.087-0.449,0.259-0.622c0.173-0.174,0.383-0.262,0.636-0.262c0.251,0,0.464,0.087,0.645,0.258
				c0.176,0.172,0.266,0.383,0.266,0.626c0,0.283-0.09,0.505-0.266,0.662C300.391,486.546,300.181,486.625,299.942,486.625"/>
			<path style="fill:#FADC69;" d="M308.08,484.618c0,0.2-0.061,0.418-0.184,0.646c-0.121,0.231-0.308,0.449-0.559,0.656
				c-0.249,0.208-0.563,0.377-0.943,0.502c-0.379,0.126-0.808,0.192-1.281,0.192c-1.014,0-1.803-0.293-2.371-0.876
				c-0.565-0.585-0.849-1.368-0.849-2.35c0-0.667,0.129-1.254,0.391-1.765c0.257-0.509,0.633-0.905,1.124-1.184
				c0.492-0.28,1.083-0.419,1.763-0.419c0.425,0,0.813,0.061,1.169,0.184c0.354,0.122,0.651,0.282,0.899,0.474
				c0.244,0.197,0.433,0.402,0.561,0.62c0.131,0.22,0.194,0.426,0.194,0.617c0,0.192-0.072,0.357-0.216,0.492
				c-0.148,0.134-0.325,0.203-0.529,0.203c-0.138,0-0.251-0.035-0.341-0.104c-0.091-0.07-0.192-0.181-0.302-0.339
				c-0.2-0.299-0.408-0.526-0.628-0.674c-0.216-0.152-0.492-0.226-0.829-0.226c-0.481,0-0.873,0.186-1.169,0.561
				c-0.295,0.372-0.444,0.888-0.444,1.534c0,0.305,0.039,0.587,0.115,0.842c0.074,0.255,0.184,0.472,0.328,0.652
				c0.145,0.179,0.318,0.316,0.521,0.409c0.204,0.096,0.429,0.141,0.671,0.141c0.329,0,0.61-0.075,0.844-0.225
				c0.237-0.151,0.443-0.38,0.622-0.689c0.1-0.182,0.206-0.324,0.321-0.427c0.115-0.102,0.258-0.156,0.426-0.156
				c0.2,0,0.366,0.077,0.496,0.227C308.013,484.287,308.08,484.449,308.08,484.618"/>
			<path style="fill:#FADC69;" d="M315.14,483.33c0,0.481-0.077,0.928-0.224,1.337c-0.156,0.408-0.373,0.758-0.662,1.049
				c-0.287,0.293-0.632,0.518-1.029,0.675c-0.404,0.154-0.852,0.234-1.349,0.234c-0.495,0-0.942-0.08-1.338-0.239
				c-0.393-0.156-0.739-0.384-1.026-0.676c-0.291-0.298-0.51-0.646-0.664-1.048c-0.145-0.402-0.221-0.846-0.221-1.332
				c0-0.491,0.078-0.941,0.226-1.349c0.153-0.409,0.372-0.758,0.656-1.046c0.285-0.289,0.626-0.511,1.029-0.669
				c0.406-0.156,0.851-0.234,1.338-0.234c0.495,0,0.945,0.078,1.349,0.239c0.402,0.157,0.746,0.384,1.037,0.674
				c0.289,0.297,0.506,0.643,0.656,1.045C315.064,482.398,315.14,482.841,315.14,483.33 M313.497,483.33
				c0-0.662-0.148-1.176-0.441-1.543c-0.292-0.372-0.687-0.555-1.182-0.555c-0.32,0-0.603,0.082-0.847,0.246
				c-0.244,0.163-0.43,0.406-0.561,0.727c-0.132,0.321-0.199,0.696-0.199,1.124c0,0.424,0.065,0.792,0.195,1.108
				c0.131,0.319,0.317,0.561,0.559,0.729c0.243,0.167,0.527,0.253,0.853,0.253c0.495,0,0.89-0.185,1.182-0.557
				C313.35,484.494,313.497,483.981,313.497,483.33"/>
			<path style="fill:#FADC69;" d="M321.381,483.449v2.154c0,0.342-0.076,0.595-0.233,0.767c-0.158,0.17-0.36,0.255-0.617,0.255
				c-0.248,0-0.45-0.085-0.6-0.255c-0.156-0.173-0.235-0.425-0.235-0.767v-2.582c0-0.408-0.013-0.726-0.04-0.953
				c-0.029-0.221-0.106-0.41-0.228-0.552c-0.124-0.147-0.321-0.22-0.587-0.22c-0.537,0-0.888,0.181-1.058,0.551
				c-0.169,0.36-0.256,0.883-0.256,1.567v2.189c0,0.336-0.077,0.591-0.228,0.765c-0.157,0.171-0.358,0.258-0.609,0.258
				c-0.25,0-0.452-0.087-0.61-0.258c-0.159-0.173-0.237-0.428-0.237-0.765v-4.637c0-0.306,0.07-0.538,0.211-0.695
				c0.145-0.161,0.332-0.239,0.561-0.239c0.225,0,0.411,0.077,0.563,0.222c0.149,0.149,0.224,0.354,0.224,0.615v0.153
				c0.286-0.334,0.59-0.582,0.911-0.738c0.326-0.162,0.683-0.241,1.081-0.241c0.411,0,0.764,0.082,1.059,0.244
				c0.296,0.163,0.538,0.41,0.732,0.735c0.277-0.33,0.574-0.577,0.89-0.738c0.315-0.161,0.664-0.241,1.049-0.241
				c0.446,0,0.834,0.089,1.157,0.262c0.322,0.174,0.563,0.425,0.724,0.747c0.139,0.295,0.208,0.756,0.208,1.385v3.164
				c0,0.342-0.077,0.595-0.232,0.767c-0.155,0.17-0.363,0.255-0.618,0.255c-0.249,0-0.45-0.087-0.609-0.258
				c-0.158-0.173-0.237-0.428-0.237-0.765v-2.726c0-0.349-0.015-0.627-0.044-0.836c-0.03-0.211-0.111-0.388-0.241-0.529
				c-0.134-0.142-0.335-0.215-0.601-0.215c-0.216,0-0.42,0.066-0.614,0.192c-0.193,0.124-0.345,0.298-0.455,0.508
				C321.443,482.271,321.381,482.755,321.381,483.449"/>
		</g>
		<g>
			<path style="fill:#FADC69;" d="M245.227,482.938c-0.001-0.003-0.001-0.006-0.001-0.011
				C245.226,482.932,245.226,482.935,245.227,482.938z"/>
			<path style="fill:#FADC69;" d="M245.31,483.456c0.001,0,0.001,0,0.001,0c-0.031-0.148-0.055-0.294-0.074-0.439
				C245.256,483.163,245.28,483.31,245.31,483.456z"/>
			<path style="fill:#FADC69;" d="M245.851,484.96c-0.004-0.006-0.007-0.013-0.011-0.021
				C245.845,484.947,245.848,484.954,245.851,484.96z"/>
			<path style="fill:#FADC69;" d="M245.8,484.86c-0.014-0.027-0.028-0.056-0.041-0.084
				C245.772,484.806,245.785,484.832,245.8,484.86z"/>
			<path style="fill:#FADC69;" d="M245.462,484.035c0.08,0.25,0.177,0.493,0.288,0.724c-0.114-0.236-0.208-0.479-0.286-0.724
				H245.462z"/>
			<path style="fill:#FADC69;" d="M251.56,476.728c0.316,0,0.549,0.025,0.817,0.069l0.076-0.477c0,0-0.739-0.225-1.71-0.146
				l-0.076-0.259c0.302-0.063,0.529-0.329,0.529-0.646c0-0.364-0.299-0.659-0.667-0.659s-0.666,0.295-0.666,0.659
				c0,0.317,0.226,0.584,0.527,0.646l0.084,0.289c-1.031,0.14-1.852,0.539-1.852,0.539l0.145,0.441
				c0.624-0.206,1.165-0.331,1.655-0.383C250.903,476.75,251.265,476.728,251.56,476.728z"/>
			<path style="fill:#FADC69;" d="M245.839,479.139l0.004-0.005c0.024-0.031,0.048-0.06,0.071-0.089l-0.198-0.141l-0.308-0.223
				c-0.017,0.024-0.502,0.465-0.884,1.28c-0.016-0.026-0.035-0.051-0.057-0.074c-0.115-0.124-0.275-0.187-0.478-0.184
				c-0.003,0-0.006,0-0.009,0c-0.126,0-0.212-0.042-0.269-0.092c0.057-0.071,0.09-0.16,0.09-0.258c0-0.23-0.189-0.418-0.422-0.418
				c-0.233,0-0.422,0.188-0.422,0.418c0,0.231,0.189,0.418,0.422,0.418c0.037,0,0.072-0.006,0.105-0.013
				c0.104,0.114,0.268,0.214,0.51,0.209c0.124-0.001,0.215,0.03,0.276,0.097c0.07,0.076,0.094,0.185,0.101,0.267
				c-0.001,0.001-0.001,0.003-0.002,0.003c-0.275,0.743-0.196,1.669-0.196,1.669l0.667,0.026c0.014-0.337,0.062-0.927,0.234-1.394
				C245.406,479.729,245.822,479.163,245.839,479.139z"/>
			<path style="fill:#FADC69;" d="M257.364,477.28c-0.232,0-0.422,0.187-0.422,0.418c0,0.036,0.005,0.07,0.015,0.103
				c-0.116,0.104-0.216,0.267-0.213,0.507c0.002,0.123-0.03,0.212-0.097,0.273c-0.054,0.047-0.121,0.072-0.187,0.088
				c-0.496-0.689-1.108-1.11-1.108-1.11l-0.479,0.508c0.362,0.326,0.731,0.734,1.091,1.244c0.248,0.352,0.504,0.806,0.716,1.259
				l0.646-0.304c0,0-0.295-0.722-0.71-1.37c0.072-0.025,0.145-0.064,0.209-0.12c0.126-0.113,0.188-0.273,0.185-0.474
				c-0.001-0.13,0.042-0.218,0.094-0.276c0.072,0.054,0.162,0.089,0.26,0.089c0.234,0,0.423-0.187,0.423-0.418
				C257.786,477.467,257.598,477.28,257.364,477.28z"/>
			<path style="fill:#FADC69;" d="M255.688,483.031c-0.889,0.429-2.352,0.996-4.279,1.262c-0.756,0.104-1.488,0.142-2.163,0.142
				c-0.877,0-1.653-0.065-2.248-0.139c-0.679-0.085-1.21-0.189-1.534-0.261c0.078,0.245,0.173,0.488,0.286,0.724
				c0.002,0.006,0.005,0.013,0.008,0.017c0.014,0.027,0.027,0.056,0.041,0.084c0.014,0.027,0.027,0.054,0.041,0.079
				c0.004,0.007,0.007,0.015,0.011,0.021c0.191,0.357,0.42,0.684,0.682,0.968c0.908,0.984,1.834,1.14,1.843,1.141l0.014,0.002
				l0.014,0.005c0.008,0.003,0.829,0.266,2.077,0.266c1.227,0,2.432-0.245,3.58-0.729c0.85-0.431,1.654-1.085,2.053-1.669
				c0.308-0.452,0.53-0.933,0.662-1.434c0.07-0.266,0.126-0.692,0.093-1.141C256.618,482.536,256.223,482.773,255.688,483.031z"/>
			<path style="fill:#FADC69;" d="M246.124,479.348c-0.026,0.037-0.411,0.578-0.716,1.408c-0.228,0.622-0.218,1.527-0.218,1.538
				v0.002c0,0.212,0.012,0.423,0.036,0.632c0,0.005,0,0.008,0.001,0.011c0.003,0.027,0.007,0.052,0.01,0.079
				c0.019,0.145,0.044,0.291,0.075,0.439c0.442,0.111,3.078,0.72,6.024,0.314c1.846-0.255,3.249-0.795,4.1-1.204
				c0.707-0.34,1.162-0.648,1.338-0.774c-0.175-0.643-0.657-1.65-1.1-2.279c-1.265-1.791-2.629-2.25-3.33-2.365
				c-0.267-0.043-0.481-0.068-0.784-0.068c-0.282,0-0.632,0.022-1.1,0.071c-0.469,0.048-0.992,0.17-1.598,0.372
				c-0.85,0.282-1.62,0.724-2.225,1.28l-0.021,0.019C246.527,478.904,246.34,479.076,246.124,479.348z M253.865,478.931
				c0.606,0,1.1,0.488,1.1,1.09c0,0.601-0.493,1.09-1.1,1.09c-0.607,0-1.099-0.489-1.099-1.09
				C252.766,479.419,253.259,478.931,253.865,478.931z M248.666,478.888c0.982,0,1.777,0.789,1.777,1.761s-0.795,1.759-1.777,1.759
				c-0.981,0-1.777-0.787-1.777-1.759S247.685,478.888,248.666,478.888z"/>
		</g>
	</g>
</g>
</svg>
