<?xml version="1.0" encoding="utf-8"?>
<!-- Generator: Adobe Illustrator 27.5.0, SVG Export Plug-In . SVG Version: 6.00 Build 0)  -->
<svg version="1.1" xmlns="http://www.w3.org/2000/svg" xmlns:xlink="http://www.w3.org/1999/xlink" x="0px" y="0px"
	 viewBox="0 0 500 500" style="enable-background:new 0 0 500 500;" xml:space="preserve">
<g id="Floor">
	<ellipse id="Grass_1_" style="fill:#27DEBF;" cx="249.212" cy="342.107" rx="225.066" ry="129.942"/>
	<ellipse id="Grass_2_" style="opacity:0.3;" cx="249.212" cy="342.107" rx="225.066" ry="129.942"/>
	<path id="Road" style="fill:#27DEBF;" d="M90.067,250.225c-36.254,20.931-57.539,47.228-63.885,74.463l253.188,146.188
		c47.177-3.663,92.73-15.952,128.989-36.885c10.957-6.326,20.546-13.142,28.771-20.326l-311.87-180.046
		C112.822,238.366,101.02,243.901,90.067,250.225z"/>
	<path id="Road_1_" style="opacity:0.5;fill:#FFFFFF;" d="M90.067,250.225c-36.254,20.931-57.539,47.228-63.885,74.463
		l253.188,146.188c47.177-3.663,92.73-15.952,128.989-36.885c10.957-6.326,20.546-13.142,28.771-20.326l-311.87-180.046
		C112.822,238.366,101.02,243.901,90.067,250.225z"/>
</g>
<g id="Shadows">
	<path id="Shadow_16_" style="opacity:0.1;" d="M271.414,334.396c25.364,14.644,25.364,38.387,0,53.031
		c-25.364,14.644-66.488,14.644-91.852,0c-25.364-14.644-25.364-38.387,0-53.031C204.926,319.753,246.049,319.753,271.414,334.396z"
		/>
	<ellipse id="Shadow_17_" style="opacity:0.1;" cx="383.916" cy="299.842" rx="57.892" ry="33.424"/>
</g>
<g id="Heart">
	<g id="Heart_1_">
		<path style="fill:#27DEBF;" d="M141.557,73.272l0.012-0.025l-0.059-0.056c-0.345-0.31-0.721-0.583-1.122-0.82
			c-1.417-0.839-7.808-4.507-8.137-4.717c-3.38-2.147-8.734-1.675-13.511,0.738c-6.824,3.448-12.509,10.734-16.854,22.861
			c0,0-4.393-3.154-5.829-3.94c-3.527-1.932-7.647-0.99-12.295,2.029c-5.243,3.405-8.808,7.828-12.068,14.517l-0.059,0.124
			l0.011,0.012c-2.787,5.768-4.5,12.206-4.522,18.241c-0.053,14.027,5.741,20.713,13.211,25.737c2.126,1.43,7.765,4.454,8.329,4.833
			c4.514,3.036,9.495,5.096,14.741,6.441l7.362,1.721l7.362-10.222c5.246-7.402,10.228-15.215,14.741-23.463
			c7.469-13.649,13.264-27.026,13.211-40.992C146.057,80.282,144.344,75.821,141.557,73.272z"/>
		<path style="opacity:0.3;" d="M141.557,73.272l0.012-0.025l-0.059-0.056c-0.345-0.31-0.721-0.583-1.122-0.82
			c-1.417-0.839-7.808-4.507-8.137-4.717c-3.38-2.147-8.734-1.675-13.511,0.738c-6.824,3.448-12.509,10.734-16.854,22.861
			c0,0-4.393-3.154-5.829-3.94c-3.527-1.932-7.647-0.99-12.295,2.029c-5.243,3.405-8.808,7.828-12.068,14.517l-0.059,0.124
			l0.011,0.012c-2.787,5.768-4.5,12.206-4.522,18.241c-0.053,14.027,5.741,20.713,13.211,25.737c2.126,1.43,7.765,4.454,8.329,4.833
			c4.514,3.036,9.495,5.096,14.741,6.441l7.362,1.721l7.362-10.222c5.246-7.402,10.228-15.215,14.741-23.463
			c7.469-13.649,13.264-27.026,13.211-40.992C146.057,80.282,144.344,75.821,141.557,73.272z"/>
		<path style="fill:#27DEBF;" d="M141.557,73.272l0.012-0.025l-0.059-0.056c-0.345-0.31-0.721-0.583-1.122-0.821
			c-1.417-0.839-7.807-4.507-8.137-4.717c-3.38-2.147-8.734-1.675-13.511,0.738c-6.824,3.448-12.509,10.734-16.854,22.861
			c0,0-4.393-3.154-5.829-3.94c-3.528-1.932-7.646-0.99-12.295,2.029c-5.243,3.405-8.808,7.828-12.068,14.517l-0.059,0.124
			l0.011,0.012c-0.138,0.286-0.261,0.581-0.395,0.871l55.871,32.257c1.979-3.215,3.91-6.481,5.748-9.838
			c7.469-13.649,13.264-27.026,13.211-40.992C146.057,80.282,144.345,75.821,141.557,73.272z"/>
		<path style="opacity:0.15;" d="M141.557,73.272l0.012-0.025l-0.059-0.056c-0.345-0.31-0.721-0.583-1.122-0.821
			c-1.417-0.839-7.807-4.507-8.137-4.717c-3.38-2.147-8.734-1.675-13.511,0.738c-6.824,3.448-12.509,10.734-16.854,22.861
			c0,0-4.393-3.154-5.829-3.94c-3.528-1.932-7.646-0.99-12.295,2.029c-5.243,3.405-8.808,7.828-12.068,14.517l-0.059,0.124
			l0.011,0.012c-0.138,0.286-0.261,0.581-0.395,0.871l55.871,32.257c1.979-3.215,3.91-6.481,5.748-9.838
			c7.469-13.649,13.264-27.026,13.211-40.992C146.057,80.282,144.345,75.821,141.557,73.272z"/>
		<path style="fill:#27DEBF;" d="M101.885,91.252L101.885,91.252l7.483,9.762l12.065-14.271l-13.635-7.872
			C105.618,82.257,103.64,86.353,101.885,91.252z"/>
		<path style="opacity:0.3;" d="M101.885,91.252L101.885,91.252l7.483,9.762l12.065-14.271l-13.635-7.872
			C105.618,82.257,103.64,86.353,101.885,91.252z"/>
		<path style="fill:#27DEBF;" d="M141.557,73.272l0.011-0.025l-0.059-0.056c-3.26-2.924-9.199-2.615-14.442,0.034
			c-7.16,3.618-13.07,11.448-17.489,24.675c-4.419-8.124-10.329-8.376-17.489-3.726c-5.243,3.405-8.808,7.828-12.068,14.517
			l-0.059,0.124l0,0c-2.787,5.768-4.488,12.218-4.511,18.253c-0.053,14.027,5.742,20.713,13.211,25.737
			c4.514,3.036,9.495,5.096,14.741,6.441l7.362,1.721l7.362-10.222c5.245-7.402,10.227-15.215,14.741-23.463
			c7.469-13.649,13.264-27.026,13.211-40.992C146.057,80.282,144.344,75.821,141.557,73.272z"/>
		<g style="opacity:0.07;">
			<path d="M135.266,71.828c2.354,0,4.322,0.633,5.687,1.821c0.033,0.053,0.075,0.103,0.123,0.147
				c2.746,2.512,4.27,6.949,4.291,12.496c0.055,14.585-6.603,28.732-13.124,40.647c-4.229,7.729-9.174,15.599-14.694,23.389
				l-7.084,9.836l-6.885-1.609c-5.459-1.4-10.344-3.533-14.521-6.342c-6.73-4.527-12.951-10.706-12.896-25.144
				c0.021-5.692,1.598-12.065,4.441-17.948l0.057-0.119c3.277-6.725,6.811-10.981,11.815-14.231c3.036-1.972,5.642-2.93,7.966-2.93
				c3.384,0,6.167,2.093,8.509,6.399c0.125,0.231,0.366,0.372,0.625,0.372c0.021,0,0.042-0.001,0.063-0.003
				c0.283-0.025,0.523-0.215,0.613-0.484c4.222-12.636,9.827-20.573,17.135-24.265C129.983,72.55,132.781,71.828,135.266,71.828
				 M135.266,71.116c-2.61,0-5.497,0.744-8.198,2.109c-7.16,3.618-13.07,11.448-17.489,24.675c-2.56-4.706-5.621-6.771-9.134-6.771
				c-2.552,0-5.342,1.089-8.354,3.045c-5.243,3.405-8.808,7.828-12.068,14.517l-0.059,0.124c-2.787,5.768-4.488,12.218-4.511,18.253
				c-0.053,14.027,5.742,20.713,13.211,25.737c4.514,3.036,9.496,5.096,14.741,6.441l7.362,1.721l7.362-10.222
				c5.245-7.402,10.228-15.215,14.741-23.463c7.469-13.649,13.264-27.026,13.211-40.992c-0.023-6.008-1.735-10.469-4.522-13.019
				l0.011-0.025l-0.059-0.056C139.93,71.774,137.721,71.116,135.266,71.116L135.266,71.116z"/>
		</g>
		<path style="fill:#FFFFFF;" d="M140.748,110.987l-14.335,8.276l-5.276-19.37c-0.165-0.604-0.732-1.021-1.348-1.004
			c-0.628,0.016-1.163,0.457-1.296,1.07l-8.303,37.897l-6.982-19.095c-0.202-0.556-0.713-0.901-1.33-0.894
			c-0.591,0.022-1.1,0.423-1.259,0.992l-4.717,16.747l-15.774,9.108c0.525,0.768,1.092,1.484,1.685,2.173l15.932-9.199
			c0.307-0.177,0.534-0.468,0.63-0.81l3.724-13.222l7.141,19.533c0.206,0.568,0.722,0.928,1.371,0.892
			c0.603-0.041,1.108-0.476,1.238-1.068l8.118-37.053l4.283,15.724c0.112,0.407,0.404,0.74,0.796,0.901
			c0.39,0.161,0.834,0.132,1.199-0.08l12.726-7.348C139.597,113.768,140.188,112.378,140.748,110.987z"/>
	</g>
</g>
<g id="Tree">
	<g id="Pine_2_">
		<g id="XMLID_32_">
			<g id="XMLID_41_">
				<path id="XMLID_42_" style="fill:#B16668;" d="M373.087,158.559v137.972c0,1.656,1.095,3.311,3.282,4.575
					c4.376,2.527,11.471,2.527,15.847,0c2.188-1.263,3.281-2.919,3.281-4.575V158.559H373.087z"/>
			</g>
			<path id="XMLID_40_" style="fill:#27DEBF;" d="M458.54,229.968L389.126,62.34h-9.668l-69.415,167.641
				c-2.141,5.17,0.982,11.006,6.47,12.094l1.13,0.224c4.564,0.905,7.654,5.183,7.077,9.8l0,0
				c-0.798,6.387,5.259,11.471,11.411,9.577l3.427-1.055c4.266-1.313,8.844,0.749,10.688,4.814l3.451,7.61
				c2.182,4.811,8.059,6.66,12.602,3.966l13.467-7.985c2.789-1.654,6.258-1.654,9.048,0l13.467,7.985
				c4.544,2.694,10.42,0.845,12.602-3.966l3.453-7.613c1.843-4.064,6.42-6.126,10.685-4.815l3.431,1.055
				c6.153,1.892,12.209-3.194,11.409-9.58l-0.001-0.005c-0.578-4.616,2.508-8.894,7.071-9.802l1.141-0.227
				C457.561,240.971,460.68,235.136,458.54,229.968z"/>
			<path id="XMLID_39_" style="opacity:0.5;" d="M458.54,229.968L389.126,62.34h-9.668l-69.415,167.641
				c-2.141,5.17,0.982,11.006,6.47,12.094l1.13,0.224c4.564,0.905,7.654,5.183,7.077,9.8l0,0
				c-0.798,6.387,5.259,11.471,11.411,9.577l3.427-1.055c4.266-1.313,8.844,0.749,10.688,4.814l3.451,7.61
				c2.182,4.811,8.059,6.66,12.602,3.966l13.467-7.985c2.789-1.654,6.258-1.654,9.048,0l13.467,7.985
				c4.544,2.694,10.42,0.845,12.602-3.966l3.453-7.613c1.843-4.064,6.42-6.126,10.685-4.815l3.431,1.055
				c6.153,1.892,12.209-3.194,11.409-9.58l-0.001-0.005c-0.578-4.616,2.508-8.894,7.071-9.802l1.141-0.227
				C457.561,240.971,460.68,235.136,458.54,229.968z"/>
			<path id="XMLID_38_" style="opacity:0.1;" d="M371.704,81.068l7.755-17.618h9.668l12.822,29.854l41.893,101.169
				c-0.463,2.085-1.905,3.744-4.366,4.148l-0.001,0c-3.535,0.58-5.991,3.836-5.576,7.395l0.15,1.286
				c0.583,4.999-4.343,8.835-9.047,7.044l-3.435-1.308c-3.326-1.267-7.063,0.286-8.511,3.537l-4.26,9.557
				c-1.635,3.671-6.111,5.088-9.561,3.029l-11.507-7.667c-2.117-1.263-4.757-1.263-6.873,0l-12.845,7.667
				c-3.451,2.06-7.927,0.642-9.562-3.029l-4.259-9.556c-1.449-3.251-5.185-4.804-8.512-3.537l-3.433,1.308
				c-4.704,1.791-9.631-2.045-9.047-7.045l0.15-1.283c0.415-3.559-2.04-6.816-5.576-7.395c-1.752-0.287-2.983-1.215-3.717-2.475
				L371.704,81.068z"/>
			<path id="XMLID_37_" style="fill:#27DEBF;" d="M443.065,181.228L389.126,55.64h-9.668L324.18,181.231
				c-1.991,4.039-0.854,8.854,3.59,9.582c3.536,0.58,5.991,3.836,5.576,7.395l-0.15,1.283c-0.583,4.999,4.344,8.836,9.047,7.045
				l3.433-1.308c3.327-1.267,7.063,0.286,8.512,3.537l4.259,9.556c1.635,3.671,6.111,5.088,9.562,3.029l12.845-7.667
				c2.117-1.263,4.757-1.263,6.873,0l11.507,7.667c3.451,2.059,7.926,0.642,9.561-3.029l4.26-9.557
				c1.449-3.251,5.185-4.804,8.511-3.537l3.435,1.308c4.703,1.791,9.63-2.045,9.047-7.044l-0.15-1.287
				c-0.415-3.558,2.04-6.815,5.576-7.395l0.001,0C443.919,190.081,445.056,185.267,443.065,181.228z"/>
			<path id="XMLID_36_" style="opacity:0.3;" d="M443.065,181.228L389.126,55.64h-9.668L324.18,181.231
				c-1.991,4.039-0.854,8.854,3.59,9.582c3.536,0.58,5.991,3.836,5.576,7.395l-0.15,1.283c-0.583,4.999,4.344,8.836,9.047,7.045
				l3.433-1.308c3.327-1.267,7.063,0.286,8.512,3.537l4.259,9.556c1.635,3.671,6.111,5.088,9.562,3.029l12.845-7.667
				c2.117-1.263,4.757-1.263,6.873,0l11.507,7.667c3.451,2.059,7.926,0.642,9.561-3.029l4.26-9.557
				c1.449-3.251,5.185-4.804,8.511-3.537l3.435,1.308c4.703,1.791,9.63-2.045,9.047-7.044l-0.15-1.287
				c-0.415-3.558,2.04-6.815,5.576-7.395l0.001,0C443.919,190.081,445.056,185.267,443.065,181.228z"/>
			<path id="XMLID_35_" style="opacity:0.1;" d="M379.458,55.64h9.668l39.306,91.52c-0.301,0.259-0.63,0.496-0.991,0.699
				l-0.301,0.168c-2.068,1.16-3.267,3.421-3.066,5.783l0,0.002c0.353,4.162-3.521,7.42-7.561,6.355l-2.344-0.618
				c-2.704-0.712-5.544,0.524-6.865,2.988l-3.217,5.999c-1.565,2.919-5.188,4.034-8.123,2.501l-8.876-4.636
				c-1.753-0.915-3.843-0.915-5.596,0l-8.875,4.636c-2.936,1.533-6.559,0.418-8.124-2.501l-3.216-5.998
				c-1.321-2.465-4.161-3.701-6.866-2.989l-2.343,0.617c-4.039,1.064-7.915-2.193-7.561-6.355c0.201-2.362-0.999-4.624-3.067-5.783
				l-0.3-0.168c-0.659-0.369-1.202-0.856-1.659-1.401L379.458,55.64z"/>
			<path id="XMLID_34_" style="fill:#27DEBF;" d="M429.628,131.834l-40.542-85.222l-0.317-0.513c-0.9-1.547-2.558-2.599-4.477-2.599
				c-1.919,0-3.576,1.052-4.477,2.599l-0.325,0.527l-40.534,85.21c-1.807,2.925-0.812,6.766,2.187,8.447l0.3,0.168
				c2.068,1.159,3.267,3.421,3.067,5.783c-0.354,4.163,3.521,7.42,7.561,6.355l2.343-0.617c2.704-0.712,5.544,0.524,6.866,2.988
				l3.216,5.999c1.565,2.919,5.188,4.034,8.124,2.501l8.875-4.635c1.753-0.916,3.843-0.916,5.596,0l8.876,4.636
				c2.936,1.533,6.558,0.418,8.123-2.501l3.217-5.999c1.321-2.464,4.161-3.701,6.865-2.988l2.344,0.618
				c4.04,1.064,7.914-2.193,7.561-6.355l0-0.002c-0.201-2.362,0.998-4.623,3.066-5.783l0.301-0.169
				C430.44,138.599,431.435,134.758,429.628,131.834z"/>
			<path id="XMLID_33_" style="opacity:0.2;" d="M429.628,131.834l-40.542-85.222l-0.317-0.513c-0.9-1.547-2.558-2.599-4.477-2.599
				c-1.919,0-3.576,1.052-4.477,2.599l-0.325,0.527l-40.534,85.21c-1.807,2.925-0.812,6.766,2.187,8.447l0.3,0.168
				c2.068,1.159,3.267,3.421,3.067,5.783c-0.354,4.163,3.521,7.42,7.561,6.355l2.343-0.617c2.704-0.712,5.544,0.524,6.866,2.988
				l3.216,5.999c1.565,2.919,5.188,4.034,8.124,2.501l8.875-4.635c1.753-0.916,3.843-0.916,5.596,0l8.876,4.636
				c2.936,1.533,6.558,0.418,8.123-2.501l3.217-5.999c1.321-2.464,4.161-3.701,6.865-2.988l2.344,0.618
				c4.04,1.064,7.914-2.193,7.561-6.355l0-0.002c-0.201-2.362,0.998-4.623,3.066-5.783l0.301-0.169
				C430.44,138.599,431.435,134.758,429.628,131.834z"/>
		</g>
		<g id="XMLID_22_">
			<g id="XMLID_29_">
				<path id="XMLID_31_" style="fill:#37474F;" d="M378.885,300.859c-0.096-3.708-3.143-6.688-6.88-6.688
					c-3.738,0-6.778,2.981-6.874,6.688c-0.006,0.066-0.006,0.126-0.006,0.192s0,0.126,0.006,0.192
					c0.078,0.956,0.745,1.893,2.007,2.62c2.686,1.55,7.049,1.55,9.735,0c1.262-0.727,1.935-1.664,2.013-2.62
					c0.006-0.066,0.006-0.126,0.006-0.192S378.891,300.925,378.885,300.859z"/>
				<path id="XMLID_30_" style="fill:#263238;" d="M376.872,303.863c1.262-0.727,1.935-1.664,2.013-2.62
					c0.006-0.066,0.006-0.126,0.006-0.192s0-0.126-0.006-0.192c-0.065-2.52-1.496-4.701-3.578-5.842
					c0.034,0.066,3.422,4.32,0.919,7.158c-1.729,1.959-7.668,2.317-10.276,0.771c0.309,0.329,0.704,0.639,1.187,0.918
					C369.824,305.414,374.186,305.414,376.872,303.863z"/>
			</g>
			<g id="XMLID_26_">
				<path id="XMLID_28_" style="fill:#455A64;" d="M367.762,304.321c-0.068-2.618-2.22-4.723-4.859-4.723
					c-2.639,0-4.787,2.105-4.855,4.723c-0.004,0.047-0.004,0.089-0.004,0.136c0,0.047,0,0.089,0.004,0.136
					c0.055,0.675,0.526,1.337,1.417,1.85c1.897,1.095,4.978,1.095,6.875,0c0.891-0.513,1.367-1.175,1.422-1.85
					c0.004-0.047,0.004-0.089,0.004-0.136C367.766,304.411,367.766,304.368,367.762,304.321z"/>
				<path id="XMLID_27_" style="fill:#37474F;" d="M366.34,306.443c0.891-0.513,1.367-1.175,1.422-1.85
					c0.004-0.047,0.004-0.089,0.004-0.136c0-0.047,0-0.089-0.004-0.136c-0.015-0.568-0.133-1.109-0.327-1.613
					c0.12,2.083-0.868,3.347-3.937,3.739c-3.166,0.404-5.076-0.909-5.34-1.383c0.192,0.506,0.626,0.986,1.307,1.379
					C361.362,307.538,364.443,307.538,366.34,306.443z"/>
			</g>
			<g id="XMLID_23_">
				<path id="XMLID_25_" style="fill:#455A64;" d="M403.398,299.459c-0.067-2.598-2.203-4.687-4.822-4.687s-4.751,2.089-4.818,4.687
					c-0.004,0.047-0.004,0.088-0.004,0.135c0,0.046,0,0.089,0.004,0.135c0.055,0.67,0.522,1.327,1.407,1.836
					c1.883,1.087,4.94,1.087,6.823,0c0.885-0.509,1.356-1.167,1.411-1.836c0.004-0.046,0.004-0.088,0.004-0.135
					C403.402,299.547,403.402,299.505,403.398,299.459z"/>
				<path id="XMLID_24_" style="fill:#37474F;" d="M401.987,301.565c0.885-0.509,1.356-1.167,1.411-1.836
					c0.004-0.046,0.004-0.088,0.004-0.135c0-0.046,0-0.088-0.004-0.135c-0.014-0.564-0.132-1.101-0.325-1.6
					c0.119,2.067-0.861,3.322-3.907,3.71c-3.142,0.401-5.038-0.903-5.299-1.373c0.19,0.502,0.621,0.979,1.298,1.369
					C397.047,302.651,400.104,302.651,401.987,301.565z"/>
			</g>
		</g>
	</g>
</g>
<g id="Character">
	<g id="Character_1_">
		<path style="fill:#B16668;" d="M282.453,188.235c-3.968,2.59-7.233,3.493-7.233,3.493c1.257-1.572,1.84-2.28,2.27-3.292
			c0.856-2.013-0.192-3.35-0.888-3.714c-0.542-0.284-1.138,1.116-3.095,2.624c-2.501,1.927-4.495,2.26-6.602,4.949
			c-0.785,1.001-4.346,2.707-9.746,2.707c-5.4,0-9.794-0.175-9.794-0.175s5.367-9.3,8.039-15.557
			c2.671-6.257,7.475-20.081,7.241-24.66c-0.456-8.917-11.588-9.654-16.941-8.775c0,0-11.682,45.616-14.96,55.582
			c-3.278,9.966,7.762,7.389,15.895,7.039c8.132-0.35,14.695-1.68,14.695-1.68c4.357-0.295,9.659-1.484,13.02-2.247
			c11.663-2.647,15.246-6.388,15.743-11.501C290.89,184.869,287.832,184.724,282.453,188.235z"/>
		<g id="Character_2_">
			<g id="XMLID_20_">
				<g id="XMLID_51_">
					<path id="XMLID_55_" style="fill:#455A64;" d="M177.178,332.395c-0.617-0.312-2.347,1.649-2.626,2.391
						c-0.279,0.743-0.102,2.614,0.354,4.47c0.456,1.856,0.868,4.117,0.665,6.856c-0.167,2.259-0.284,5.615,0.855,9.516
						c1.139,3.901,5.092,11.028,14.294,10.957c5.581-0.043,6.555-2.259,6.555-3.545L177.178,332.395z"/>
					<path id="XMLID_54_" style="fill:#27DEBF;" d="M194.19,333.992c-1.177,2.587-3.327,10.084-0.125,16.466
						c2.157,4.299,3.164,8.466,2.001,12.007c-1.21,3.682-14.532-2.077-16.174-4.93c-1.51-2.623-2.339-5.354-2.494-9.552
						c-0.109-2.952,0.454-4.89,0.125-7.105c-0.356-2.395-1.576-5.392-0.895-7.49c0.374-1.152,2.259-2.872,3.979-4.229
						c1.578-1.245,3.159-2.401,4.001-1.9l-0.573,0.818c0.51,1.132,1.309,1.894,2.154,2.585c0.417,0.342,0.148,2.296,0.697,2.507
						c0.55,0.212,0.659-1.377,1.753-1.582C192.205,330.918,194.19,333.992,194.19,333.992z"/>
					<path id="XMLID_53_" style="opacity:0.3;" d="M194.19,333.992c-1.177,2.587-3.327,10.084-0.125,16.466
						c2.157,4.299,3.164,8.466,2.001,12.007c-1.21,3.682-14.532-2.077-16.174-4.93c-1.51-2.623-2.339-5.354-2.494-9.552
						c-0.109-2.952,0.454-4.89,0.125-7.105c-0.356-2.395-1.576-5.392-0.895-7.49c0.374-1.152,2.259-2.872,3.979-4.229
						c1.578-1.245,3.159-2.401,4.001-1.9l-0.573,0.818c0.51,1.132,1.309,1.894,2.154,2.585c0.417,0.342,0.148,2.296,0.697,2.507
						c0.55,0.212,0.659-1.377,1.753-1.582C192.205,330.918,194.19,333.992,194.19,333.992z"/>
					<path style="fill:#FFFFFF;" d="M184.997,339.379c-0.513,0.109-0.841,0.612-0.733,1.125c0.108,0.514,0.619,0.848,1.125,0.734
						c0.047-0.008,3.491-0.703,7.056,0.137c0.235-0.637,0.275-1.278,0.209-1.906C188.778,338.61,185.199,339.336,184.997,339.379z"
						/>
					<path style="fill:#FFFFFF;" d="M192.41,343.655c-3.99-0.738-7.644,0.19-7.849,0.244c-0.507,0.134-0.81,0.652-0.678,1.159
						c0.133,0.509,0.654,0.808,1.16,0.68c0.047-0.012,3.766-0.944,7.541-0.097C192.758,344.973,192.75,344.31,192.41,343.655z"/>
					<path style="fill:#FFFFFF;" d="M193.235,348.404c-4.328-1.08-8.538-0.014-8.758,0.043c-0.507,0.134-0.81,0.652-0.678,1.159
						c0.132,0.509,0.651,0.81,1.159,0.681c0.054-0.014,4.955-1.242,9.221,0.414C194.458,350.62,193.947,349.095,193.235,348.404z"/>
					<path id="XMLID_52_" style="fill:#FAFAFA;" d="M179.893,357.534c0,0,3.431-5.142,9.571-5.219
						c6.14-0.077,7.298,2.501,7.826,3.423c0.528,0.921,2.702,6.157-1.518,8.568C195.772,364.306,185.617,367.007,179.893,357.534z"
						/>
				</g>
				<g id="XMLID_47_">
					<path style="fill:#B16668;" d="M248.301,283.867c-0.244-2.065-0.529-4.488-0.838-7.129c1.784-3.502,3.876-8.033,6.063-13.77
						c5.207-13.659,7.137-47.548,6.896-54.684l-48.815,1.161c0,7.273-0.481,13.904,0.343,23.342
						c0.956,10.944,5.613,27.51,9.482,39.846c-3.751,4.331-8.958,10.56-11.353,14.417c-3.966,6.388-22.154,35.459-22.154,35.459l0,0
						l-4.172,5.984c-0.668,1.217-0.929,4.004,1.871,6.071c2.8,2.066,6.464,1.703,7.317,0.673c0,0,22.144-21.953,35.264-35.022
						c0.662,3.728,1.548,7.952,2.6,12.063c2.924,11.423,8.979,28.066,12.041,36.235c1.246,3.325,2.164,6.763,2.736,10.268l0,0
						l1.591,4.591l10.994-2.5l-1.962-9.537C256.203,351.317,249.93,297.651,248.301,283.867z"/>
					<path id="XMLID_50_" style="fill:#9A4A4D;" d="M220.885,272.633l5.482,16.469c0,0,0.45,6.756,1.329,11.339l-2.32,2.351
						c0,0-1.342-7.809-0.61-13.296L220.885,272.633z"/>
					<path style="fill:#27DEBF;" d="M210.972,214.665c0,0.612-1.836,15.6,0,25.242c1.836,9.642,10.769,44.525,10.769,44.525
						s3.13,3.502,14.515,0.992c11.385-2.51,12.047-4.754,12.047-4.754v-3.502c0,0,7.096-13.316,9.668-28.729
						c2.572-15.413,3.078-30.219,3.078-30.219L210.972,214.665z"/>
					<path style="opacity:0.6;" d="M210.972,214.665c0,0.612-1.836,15.6,0,25.242c1.836,9.642,10.769,44.525,10.769,44.525
						s3.13,3.502,14.515,0.992c11.385-2.51,12.047-4.754,12.047-4.754v-3.502c0,0,7.096-13.316,9.668-28.729
						c2.572-15.413,3.078-30.219,3.078-30.219L210.972,214.665z"/>
					<path id="XMLID_49_" style="opacity:0.4;" d="M246.56,274.737c0,0-3.371-34.888-4.445-39.319c0,0,8.033-3.06,10.501-5.865
						c0,0-1.763,3.924-7.509,7.412L246.56,274.737z"/>
					<path id="XMLID_48_" style="fill:#37474F;" d="M209.865,224.531c6.651,4.845,37.793,9.521,51.784-0.69
						c0.168-0.123-0.015-1.69-0.017-1.887c-0.027-2.853-0.06-5.705-0.097-8.558c-0.056-4.399-0.122-8.798-0.198-13.196
						c-0.089-5.107-0.192-10.214-0.319-15.321c-0.123-4.978-0.267-9.956-0.458-14.932c-0.084-2.179-0.185-4.356-0.287-6.534
						c-0.151-3.251-0.944-6.727-2.273-9.723c-1.262-2.846-3.345-5.453-6.198-6.7c-1.907-0.834-4.051-1.015-6.099-1.158
						c-1.411-0.098-2.921,0.142-4.33,0.254c-1.619,0.128-3.236,0.28-4.852,0.445c-3.281,0.335-6.557,0.723-9.829,1.143
						c-0.397,0.052-0.794,0.104-1.18,0.157c-0.355,0.042-0.699,0.084-1.034,0.125c-4.135,0.543-7.204,0.992-7.674,1.065
						c-0.042,0.01-0.063,0.01-0.063,0.01c-1.357,0.345-2.61,0.668-3.623,0.971c-2.767,0.814-0.71,0.115-1.316,2.788
						c-1.785,7.852,0.292,36.397,0.292,36.397L209.865,224.531z"/>
				</g>
				<g id="XMLID_21_">
					<path id="XMLID_46_" style="fill:#455A64;" d="M244.901,366.586c-0.641,0.272-0.255,2.877,0.136,3.575
						c0.39,0.697,1.656,2.06,3.382,2.915c1.725,0.855,3.177,2.026,4.905,4.187c1.228,1.535,4.362,4.693,8.105,6.349
						c3.743,1.657,8.533,1.467,12.779-0.505c4.245-1.971,4.568-3.212,4.318-4.894L244.901,366.586z"/>
					<path id="XMLID_45_" style="fill:#27DEBF;" d="M257.444,354.522c1.227,2.587,4.439,9.476,9.614,12.41
						c4.114,2.332,9.578,4.863,11.549,8.059c2.049,3.323-5.372,6.285-8.683,6.446c-2.581,0.125-5.987,0.401-8.688-0.995
						c-1.555-0.804-2.658-1.577-3.754-2.435c-2.343-1.833-4.116-4.234-5.826-5.706c-1.71-1.471-5.174-2.761-6.347-4.647
						c-0.644-1.036-0.744-3.605-0.672-5.811c0.066-2.024-0.249-3.885,0.685-4.208l0.26,1.145c1.312,0.028,2.757-0.057,3.839-0.258
						c0.534-0.099,1.864,1.377,2.383,1.092c0.52-0.286-0.632-1.402-0.08-2.378C253.523,354.057,257.444,354.522,257.444,354.522z"/>
					<path id="XMLID_44_" style="opacity:0.3;" d="M257.444,354.522c1.227,2.587,4.439,9.476,9.614,12.41
						c4.114,2.332,9.578,4.863,11.549,8.059c2.049,3.323-5.372,6.285-8.683,6.446c-2.581,0.125-5.987,0.401-8.688-0.995
						c-1.555-0.804-2.658-1.577-3.754-2.435c-2.343-1.833-4.116-4.234-5.826-5.706c-1.71-1.471-5.174-2.761-6.347-4.647
						c-0.644-1.036-0.744-3.605-0.672-5.811c0.066-2.024-0.249-3.885,0.685-4.208l0.26,1.145c1.312,0.028,2.757-0.057,3.839-0.258
						c0.534-0.099,1.864,1.377,2.383,1.092c0.52-0.286-0.632-1.402-0.08-2.378C253.523,354.057,257.444,354.522,257.444,354.522z"/>
					<path style="fill:#FFFFFF;" d="M266.408,366.525c-2.322,0.729-4.852,2.261-6.318,4.414c-0.296,0.433-0.184,1.025,0.251,1.32
						c0.163,0.112,0.35,0.165,0.534,0.165c0.305,0,0.603-0.146,0.787-0.416c1.603-2.355,5.007-3.962,7.25-4.051
						C268.687,367.36,267.023,366.421,266.408,366.525z"/>
					<path style="fill:#FFFFFF;" d="M262.77,363.259c-2.242,0.656-4.625,2.007-6.111,3.956c-0.318,0.417-0.239,1.014,0.179,1.332
						c0.172,0.132,0.375,0.195,0.576,0.195c0.287,0,0.57-0.129,0.757-0.374c1.408-1.845,3.981-3.132,6.105-3.528
						C264.134,364.109,263.618,363.587,262.77,363.259z"/>
					<path style="fill:#FFFFFF;" d="M261.173,361.181c0.039-0.825-0.277-1.425-1.108-1.695c-2.319,0.559-4.84,1.853-6.435,3.814
						c-0.331,0.408-0.269,1.006,0.138,1.338c0.176,0.143,0.388,0.212,0.599,0.212c0.277,0,0.55-0.12,0.739-0.351
						C256.536,362.739,259.068,361.545,261.173,361.181z"/>
					<path id="XMLID_43_" style="fill:#FAFAFA;" d="M261.236,380.442c0,0,0.492-6.591,5.853-9.674
						c5.362-3.083,7.621-0.851,8.538-0.3c0.917,0.551,5.425,3.554,2.898,7.746C278.525,378.214,271.629,385.385,261.236,380.442z"/>
				</g>
			</g>
			<g id="XMLID_6_">
				<g id="XMLID_14_">
					<path id="XMLID_19_" style="fill:#263238;" d="M221.611,123.37c0,0,2.224,10.449,3.116,12.165
						c0.892,1.717,2.735,2.205,2.735,2.205l-0.156-7.35L221.611,123.37z"/>
					<path id="XMLID_18_" style="fill:#263238;" d="M224.403,108.401c0,0-2.395-0.411-4.262,1.499
						c-1.831,1.872-0.808,7.731,1.471,13.47l4.189,0.481L224.403,108.401z"/>
					<path id="XMLID_17_" style="fill:#B16668;" d="M227.057,123.854c-0.84,0.502-2.038-1.112-3.074-2.196
						c-1.036-1.084-4.418-2.565-6.105,0.99c-1.719,3.623,1.489,8.409,4.152,9.245c4.588,1.44,5.277-1.503,5.277-1.503l0.307,16.873
						c4.808,8.698,21.065,4.244,14.971-1.52l-0.013-4.277c0,0,4.157,0.631,6.185,0.317c3.374-0.521,5.497-3.184,6.521-6.836
						c1.644-5.867,2.303-10.385,1.285-22.141c-1.099-12.69-16.649-12.777-24.592-7.778
						C224.028,110.026,227.057,123.854,227.057,123.854z"/>
					<path id="XMLID_16_" style="fill:#263238;" d="M222.829,118.414c0.244,1.005,0.465,2.6,1.261,3.354
						c1.03,0.976,2.613,3.712,3.029,3.703c2.233-0.045,2.602-9.367,3.028-10.963c0.253-0.949,1.215-1.57,2.184-1.734
						c0.969-0.164,1.958,0.036,2.925,0.212c3.981,0.722,8.111,0.742,12.155,0.625c2.895-0.083,5.856-1.658,8.457-2.934
						c3.831-1.88,5.912-6.547,3.565-10.461c-1.309-2.184-4.168-3.302-6.612-2.587c-0.654-2.301-2.773-4.112-5.148-4.399
						c-2.375-0.287-4.865,0.967-6.048,3.047c-1.988-1.575-4.84-2.077-7.165-1.064c-2.325,1.013-3.931,3.595-3.599,6.11
						c-1.996-1.181-4.694-0.875-6.532,0.539c-1.838,1.414-2.817,3.791-2.764,6.109C221.643,111.532,221.988,114.957,222.829,118.414
						z"/>
					<g>
						<path style="fill:#27DEBF;" d="M219.198,113.611c0,0,4.552-4.035,15.744-5.689c11.193-1.654,20.285,0.05,22.105,1.95
							c1.065,2.146,0.582,4.66-0.188,6.891c0,0-0.07-2.225-11.664-2.225c-11.594,0-22.124,3.997-24.634,5.9
							C220.561,120.438,218.075,116.763,219.198,113.611z"/>
						<path style="fill:#FFFFFF;" d="M257.631,112.114c-0.022-0.292-0.064-0.581-0.124-0.868
							c-10.39-4.349-27.009-2.788-38.569,3.538c-0.03,0.288-0.031,0.575-0.019,0.86
							C230.465,109.153,247.353,107.572,257.631,112.114z"/>
						<path style="fill:#FFFFFF;" d="M219.492,118.293c0.093,0.247,0.19,0.478,0.287,0.692c11.164-6.23,27.258-7.89,37.573-3.897
							c0.059-0.245,0.106-0.492,0.15-0.74C247.013,110.354,230.785,112.027,219.492,118.293z"/>
					</g>
					<path id="XMLID_15_" style="fill:#9A4A4D;" d="M242.572,141.465c0,0-7.532-1.517-10.165-2.917
						c-1.762-0.937-3.214-2.561-3.64-3.602c0,0,0.493,2.235,2.068,4.248c1.926,2.462,11.737,4.275,11.737,4.275L242.572,141.465z"/>
				</g>
				<g id="XMLID_7_">
					<path id="XMLID_13_" style="fill:#263238;" d="M240.453,122.723c0,0.866-0.676,1.567-1.509,1.564
						c-0.834-0.002-1.509-0.706-1.509-1.573c0-0.866,0.676-1.566,1.509-1.564C239.777,121.153,240.453,121.857,240.453,122.723z"/>
					<path id="XMLID_12_" style="fill:#263238;" d="M238.943,117.725l-3.229,1.782c-0.476-0.928-0.139-2.079,0.753-2.571
						C237.359,116.444,238.467,116.797,238.943,117.725z"/>
					<path id="XMLID_11_" style="fill:#9A4A4D;" d="M242.717,133.15l3.446,1.293c-0.341,0.988-1.389,1.499-2.34,1.142
						C242.87,135.228,242.375,134.138,242.717,133.15z"/>
					<path id="XMLID_10_" style="fill:#263238;" d="M253.762,118.603l-3.39-1.524c0.389-0.959,1.463-1.396,2.399-0.975
						C253.707,116.525,254.151,117.644,253.762,118.603z"/>
					<path id="XMLID_9_" style="fill:#263238;" d="M252.83,122.724c0,0.866-0.676,1.566-1.51,1.564
						c-0.834-0.003-1.509-0.706-1.509-1.572c0-0.866,0.676-1.566,1.509-1.564C252.154,121.153,252.83,121.857,252.83,122.724z"/>
					<polygon id="XMLID_8_" style="fill:#9A4A4D;" points="244.782,121.674 245.277,130.751 250.017,129.136 					"/>
				</g>
			</g>
		</g>
		<g>
			<g>
				<g id="XMLID_2_">
					<path style="fill:#27DEBF;" d="M229.231,229.491c0.503-1.379,0.709-3.065,0.918-4.52c0.024-0.17,0.044-0.343,0.062-0.518
						c0.298-2.931,1.982-5.545,4.583-6.93c0.089-0.048,0.178-0.095,0.267-0.144c1.637-0.889,2.718-1.86,3.723-3.423
						c0.769-1.19,1.131-3.475,0.145-5.399c-0.212-0.42-0.465-0.832-0.752-1.229c-0.524-0.74-0.57-1.719-0.075-2.485l1.374-2.126
						l-6.808-4.4l-1.374,2.126c-0.495,0.766-1.406,1.126-2.297,0.952c-0.48-0.098-0.959-0.16-1.429-0.18
						c-2.159-0.109-4.094,1.159-4.863,2.349c-1.013,1.558-1.454,2.943-1.592,4.8c-0.007,0.094-0.013,0.188-0.019,0.282
						c-0.191,2.947-1.881,5.565-4.435,7.047c-0.152,0.088-0.301,0.178-0.445,0.27c-1.241,0.788-2.698,1.665-3.744,2.693
						c-1.014,0.998-1.881,2.212-2.687,3.459l-6.401,9.905c-0.832,1.287-0.814,3.118,0.25,5.192c0.87,1.694,2.303,3.295,4.009,4.601
						c0.773,0.595,1.603,1.131,2.458,1.589c1.893,1.007,3.92,1.65,5.81,1.746c2.328,0.118,4.005-0.617,4.834-1.9l4.63-7.164
						c0.577-0.893,1.212-1.805,1.814-2.739C227.989,232.102,228.741,230.82,229.231,229.491z"/>
					<path style="opacity:0.75;fill:#FFFFFF;" d="M229.231,229.491c0.503-1.379,0.709-3.065,0.918-4.52
						c0.024-0.17,0.044-0.343,0.062-0.518c0.298-2.931,1.982-5.545,4.583-6.93c0.089-0.048,0.178-0.095,0.267-0.144
						c1.637-0.889,2.718-1.86,3.723-3.423c0.769-1.19,1.131-3.475,0.145-5.399c-0.212-0.42-0.465-0.832-0.752-1.229
						c-0.524-0.74-0.57-1.719-0.075-2.485l1.374-2.126l-6.808-4.4l-1.374,2.126c-0.495,0.766-1.406,1.126-2.297,0.952
						c-0.48-0.098-0.959-0.16-1.429-0.18c-2.159-0.109-4.094,1.159-4.863,2.349c-1.013,1.558-1.454,2.943-1.592,4.8
						c-0.007,0.094-0.013,0.188-0.019,0.282c-0.191,2.947-1.881,5.565-4.435,7.047c-0.152,0.088-0.301,0.178-0.445,0.27
						c-1.241,0.788-2.698,1.665-3.744,2.693c-1.014,0.998-1.881,2.212-2.687,3.459l-6.401,9.905
						c-0.832,1.287-0.814,3.118,0.25,5.192c0.87,1.694,2.303,3.295,4.009,4.601c0.773,0.595,1.603,1.131,2.458,1.589
						c1.893,1.007,3.92,1.65,5.81,1.746c2.328,0.118,4.005-0.617,4.834-1.9l4.63-7.164c0.577-0.893,1.212-1.805,1.814-2.739
						C227.989,232.102,228.741,230.82,229.231,229.491z"/>
					<path style="opacity:0.05;" d="M234.794,217.523c0.089-0.048,0.178-0.095,0.267-0.144c1.408-0.765,2.405-1.592,3.295-2.804
						c-0.474,0.393-1,0.731-1.551,0.996c-1.594,0.765-3.375,1.036-5.132,1.238c-1.781,0.205-3.776,0.458-4.884,1.867
						c-1.072,1.364-0.894,3.342-0.29,4.969c0.603,1.627,1.572,3.12,1.969,4.809c0.173,0.736,0.227,1.49,0.237,2.247
						c0.194-0.4,0.375-0.802,0.526-1.21c0.503-1.379,0.709-3.065,0.918-4.52c0.024-0.17,0.044-0.343,0.062-0.518
						C230.509,221.522,232.194,218.908,234.794,217.523z"/>
					<path style="opacity:0.1;" d="M208.9,224.182c0,0-0.181,0.002-0.475,0.031l-1.983,3.069c1.063,3.419,4.845,7.804,9.276,8.967
						c4.153,1.09,8.656,0.212,10.994-2.182l1.205-1.987l-13.309-5.234L208.9,224.182z"/>
					<g>
						<path id="XMLID_5_" style="fill:#27DEBF;" d="M229.989,199.957l-0.74,1.145c-0.445,0.679-0.436,1.659,0.131,2.77
							c1.131,2.207,4.058,4.099,6.539,4.227c0.617,0.03,1.153-0.051,1.586-0.229c0.431-0.174,0.763-0.442,0.984-0.783l0.751-1.162
							c0.067-0.103,0.125-0.212,0.164-0.333c0.262-0.652,0.185-1.497-0.294-2.43c-0.014-0.028-0.027-0.056-0.044-0.079
							c-1.163-2.177-4.049-4.023-6.495-4.147c-1.047-0.053-1.854,0.221-2.338,0.723C230.138,199.748,230.059,199.85,229.989,199.957
							z"/>
						<path id="XMLID_4_" style="opacity:0.1;" d="M236.669,206.936c2.479,0.125,3.571-1.565,2.44-3.775
							c-1.132-2.209-4.059-4.101-6.538-4.226c-2.479-0.124-3.572,1.566-2.44,3.775C231.263,204.919,234.19,206.811,236.669,206.936z
							"/>
						<path id="XMLID_3_" style="fill:#27DEBF;" d="M230.852,198.622l-0.445,0.689c-0.07,0.108-0.13,0.221-0.173,0.346
							c-0.259,0.647-0.177,1.495,0.301,2.428c0.506,0.989,1.373,1.912,2.394,2.636c1.266,0.907,2.773,1.519,4.148,1.587
							c0.617,0.03,1.145-0.049,1.583-0.224c0.299-0.118,0.549-0.288,0.745-0.492c0.094-0.086,0.172-0.188,0.239-0.291l0.46-0.711
							c0.444-0.687,0.436-1.659-0.13-2.763c-0.052-0.097-0.104-0.194-0.163-0.29c-1.229-2.086-4.009-3.819-6.377-3.937
							C232.189,197.539,231.292,197.932,230.852,198.622z"/>
						<path style="opacity:0.5;fill:#FFFFFF;" d="M230.867,198.599c-0.949,1.468,0.352,3.995,2.905,5.645
							c2.553,1.65,5.392,1.798,6.341,0.33c0.949-1.468-0.352-3.995-2.905-5.646C234.655,197.279,231.816,197.132,230.867,198.599z"
							/>
					</g>
				</g>
				<path id="XMLID_1_" style="fill:#27DEBF;" d="M235.658,197.814l-1.547,2.394c-0.024,0.037-0.045,0.077-0.06,0.12
					c-0.09,0.224-0.061,0.518,0.104,0.842c0.175,0.343,0.476,0.662,0.83,0.913c0.439,0.314,0.961,0.526,1.438,0.55
					c0.214,0.01,0.397-0.017,0.549-0.078c0.104-0.041,0.19-0.1,0.258-0.171c0.032-0.03,0.06-0.065,0.083-0.101l1.552-2.402
					c0.154-0.238,0.151-0.575-0.045-0.957c-0.018-0.034-0.036-0.067-0.056-0.1c-0.426-0.723-1.389-1.324-2.21-1.364
					C236.121,197.438,235.81,197.574,235.658,197.814z"/>
				<path style="opacity:0.5;fill:#FFFFFF;" d="M235.663,197.806c-0.329,0.509,0.122,1.384,1.007,1.956
					c0.885,0.572,1.869,0.623,2.197,0.114c0.329-0.509-0.122-1.385-1.007-1.956C236.975,197.348,235.992,197.297,235.663,197.806z"
					/>
				<path style="opacity:0.5;fill:#27DEBF;" d="M236.696,198.473c-0.117,0.181,0.043,0.492,0.357,0.694
					c0.314,0.203,0.663,0.221,0.78,0.041c0.117-0.18-0.043-0.491-0.357-0.694C237.162,198.311,236.813,198.293,236.696,198.473z"/>
				<path style="opacity:0.3;" d="M236.696,198.473c-0.117,0.181,0.043,0.492,0.357,0.694c0.314,0.203,0.663,0.221,0.78,0.041
					c0.117-0.18-0.043-0.491-0.357-0.694C237.162,198.311,236.813,198.293,236.696,198.473z"/>
			</g>
			<path style="fill:#B16668;" d="M224.855,222.674c-2.456-0.374-6.832-2.218-8.122-3.69c-1.29-1.473-1.133-2.635-1.133-2.635
				c1.38-0.853,2.198-1.393,3.02-2.187c0,0-2.602-1.515-3.58-1.877c-1.468-0.542-4.055-2.799-5.809-4.603
				c-4.211-4.804-8.487-11.462-11.441-16.769l13.52-16.207c0,0,5.644-0.22,8.715-6.31c1.951-3.869,4.579-12.905-0.712-19.738
				c0,0-3.968-0.35-9.35,1.91c-3.491,1.465-9.227,8.298-13.758,14.927c-3.949,5.777-15.124,21.064-15.528,26.771
				c-0.166,2.35,2.643,6.022,9.693,13.395l0.003-0.005c3.127,3.388,6.729,7.086,10.567,11.062
				c2.557,2.613,6.915,10.512,9.394,13.253c3.474,3.842,5.881,4.854,9.001,4.915c3.175,0.062,8.825-1.027,10.485-5.669
				C231.478,224.577,229.143,223.327,224.855,222.674z"/>
			<g>
				<path style="fill:#37474F;" d="M204.053,220.846c0,0-1.162-1.484-0.232-3.764c0.929-2.28,4.01-5.331,5.867-6.324
					c1.857-0.994,2.738-0.16,2.738-0.16c-0.819-1.613-1.902-2.8-3.197-3.645c-0.334-0.218-0.741-0.282-1.133-0.209
					c-0.664,0.124-1.741,0.459-2.87,1.363c-1.841,1.474-4.134,3.94-4.852,6.086c-0.552,1.649-0.157,2.983-0.157,2.983
					C201.392,218.62,202.668,219.781,204.053,220.846z"/>
				<path style="fill:#263238;" d="M201.865,213.207l2.016,2c0.617,0.613,1.602,0.596,2.199-0.036l2.5-2.65
					c0.597-0.632,0.592-1.654-0.01-2.281l-1.867-1.943c-0.603-0.627-1.586-0.633-2.197-0.014l-2.654,2.692
					C201.242,211.596,201.248,212.594,201.865,213.207z"/>
				<path style="fill:#455A64;" d="M201.317,213.244l2.016,2c0.617,0.613,1.602,0.596,2.199-0.036l2.501-2.65
					c0.597-0.632,0.592-1.654-0.01-2.281l-1.867-1.943c-0.603-0.627-1.586-0.633-2.196-0.014l-2.654,2.692
					C200.695,211.633,200.7,212.631,201.317,213.244z"/>
				<path style="fill:#27DEBF;" d="M207.88,211.348c0.02,0.3-0.082,0.592-0.281,0.802l-2.499,2.649
					c-0.178,0.189-0.415,0.294-0.67,0.299c-0.253,0.004-0.494-0.093-0.678-0.275l-2.016-2c-0.17-0.169-0.272-0.395-0.288-0.633
					c-0.019-0.282,0.083-0.558,0.282-0.759l2.654-2.693c0.181-0.184,0.419-0.284,0.672-0.283c0.254,0.001,0.492,0.105,0.672,0.292
					l1.867,1.943C207.762,210.864,207.864,211.098,207.88,211.348L207.88,211.348z"/>
				<g style="opacity:0.3;">
					<g>
						<path d="M196.462,217.518c-0.046,0-0.093-0.004-0.139-0.013l-5.558-1.042c-0.408-0.077-0.676-0.469-0.599-0.876
							c0.076-0.408,0.479-0.673,0.875-0.599l5.557,1.043c0.408,0.076,0.676,0.469,0.599,0.876
							C197.131,217.266,196.816,217.518,196.462,217.518z"/>
					</g>
					<g>
						<path d="M191.284,222.222c-0.309,0-0.6-0.193-0.707-0.502c-0.138-0.391,0.068-0.819,0.459-0.957l5.334-1.876
							c0.393-0.135,0.82,0.068,0.956,0.459c0.138,0.391-0.068,0.819-0.459,0.957l-5.334,1.876
							C191.45,222.208,191.367,222.222,191.284,222.222z"/>
					</g>
					<g>
						<path d="M194.486,227.008c-0.174,0-0.347-0.06-0.488-0.181c-0.315-0.27-0.351-0.743-0.081-1.058l3.682-4.291
							c0.268-0.315,0.745-0.35,1.057-0.081c0.315,0.27,0.351,0.743,0.081,1.058l-3.682,4.291
							C194.907,226.919,194.697,227.008,194.486,227.008z"/>
					</g>
					<g>
						<path d="M199.654,229.553c-0.046,0-0.093-0.004-0.139-0.013c-0.408-0.077-0.676-0.469-0.599-0.876l1.042-5.558
							c0.075-0.408,0.473-0.675,0.875-0.599c0.408,0.077,0.676,0.469,0.599,0.876l-1.042,5.558
							C200.323,229.301,200.007,229.553,199.654,229.553z"/>
					</g>
				</g>
			</g>
		</g>
	</g>
</g>
</svg>
