<?xml version="1.0" encoding="utf-8"?>
<!-- Generator: Adobe Illustrator 27.5.0, SVG Export Plug-In . SVG Version: 6.00 Build 0)  -->
<svg version="1.1" xmlns="http://www.w3.org/2000/svg" xmlns:xlink="http://www.w3.org/1999/xlink" x="0px" y="0px"
	 viewBox="0 0 500 500" style="enable-background:new 0 0 500 500;" xml:space="preserve">
<g id="BACKGROUND">
	<rect x="0" style="fill:#A5EDFF;" width="500" height="500"/>
</g>
<g id="OBJECTS">
	<g>
		<g style="opacity:0.5;">
			<ellipse style="fill:#A5EDFF;" cx="247.37" cy="420.871" rx="191.469" ry="23.948"/>
		</g>
		<g>
			<g>
				<polygon style="fill:#008035;" points="435.438,258.766 254.762,331.934 220.475,248.076 401.152,174.906 				"/>
				<path style="fill:#0DB14B;" d="M381.145,193.714l-25.123,10.174l-82.906,33.573l-25.124,10.175
					c3.393,8.53-0.742,18.207-9.299,21.673l14.269,34.9c8.514-3.447,18.199,0.549,21.8,8.923l25.132-10.178l82.903-33.573
					l25.132-10.178c-3.295-8.498,0.833-18.088,9.348-21.537l-14.269-34.9C394.448,206.233,384.7,202.178,381.145,193.714z"/>
				<path style="fill:#008035;" d="M355.026,242.458c6.542,15.998-1.187,34.244-17.261,40.752
					c-16.074,6.509-34.406-1.179-40.947-17.178c-6.54-15.998,1.187-34.244,17.26-40.753
					C330.153,218.768,348.486,226.462,355.026,242.458z"/>
				<g>
					<path style="fill:#0DB14B;" d="M334.882,239.699c-0.207-0.086-0.423-0.084-0.651,0.009l-4.18,1.693
						c-0.826-1.234-1.826-2.191-2.997-2.871l5.694-2.305c0.23-0.094,0.387-0.24,0.475-0.446c0.084-0.206,0.082-0.421-0.011-0.648
						l-1.014-2.482c-0.093-0.229-0.242-0.384-0.449-0.472c-0.206-0.086-0.423-0.081-0.651,0.01l-20.338,8.235
						c-0.229,0.093-0.386,0.242-0.474,0.447c-0.087,0.205-0.083,0.422,0.011,0.649l1.323,3.236c0.085,0.21,0.237,0.361,0.454,0.452
						c0.218,0.091,0.433,0.094,0.646,0.009l3.544-1.435c3.437-1.393,5.997-1.361,7.674,0.095l-10.096,4.088
						c-0.228,0.092-0.386,0.243-0.473,0.448c-0.087,0.205-0.083,0.422,0.009,0.647l1.015,2.484c0.093,0.226,0.242,0.383,0.448,0.469
						c0.207,0.087,0.424,0.083,0.652-0.011l10.438-4.227c0.185,1.476-0.235,2.829-1.263,4.057c-1.027,1.23-2.616,2.279-4.766,3.151
						l-2.738,1.107c-0.211,0.087-0.363,0.237-0.454,0.454c-0.092,0.217-0.095,0.431-0.009,0.641l1.263,3.091
						c0.087,0.212,0.233,0.362,0.44,0.447c4.481,2.041,10.432,5.03,17.853,8.961c0.225,0.135,0.469,0.15,0.73,0.045l4.767-1.931
						c0.344-0.139,0.519-0.38,0.531-0.723c0.043-0.36-0.102-0.622-0.435-0.789c-7.133-3.88-12.651-6.712-16.552-8.495
						c2.638-1.447,4.522-3.251,5.653-5.409c1.131-2.16,1.405-4.483,0.826-6.97l4.106-1.663c0.228-0.093,0.386-0.241,0.473-0.447
						c0.088-0.206,0.083-0.422-0.008-0.649l-1.015-2.482C335.239,239.943,335.09,239.786,334.882,239.699z"/>
				</g>
			</g>
			<path style="fill:#008035;" d="M399.72,222.857c1.266,3.1-0.231,6.635-3.345,7.896c-3.115,1.262-6.666-0.229-7.935-3.328
				c-1.267-3.1,0.231-6.635,3.346-7.896C394.9,218.268,398.451,219.757,399.72,222.857z"/>
			<path style="fill:#008035;" d="M262.947,278.246c1.267,3.1-0.23,6.634-3.346,7.895c-3.112,1.263-6.666-0.229-7.931-3.329
				c-1.267-3.098,0.231-6.633,3.344-7.894C258.13,273.657,261.68,275.146,262.947,278.246z"/>
		</g>
		<g>
			<g>
				<polygon style="fill:#F0532D;" points="401.864,176.702 253.718,302.988 194.542,234.227 342.689,107.94 				"/>
				<path style="fill:#FAB07F;" d="M329.684,132.079l-20.602,17.562l-67.975,57.946l-20.603,17.56
					c5.932,7.025,5.084,17.507-1.934,23.491l24.63,28.617c6.981-5.952,17.438-5.21,23.517,1.599l20.607-17.565l67.977-57.946
					l20.608-17.567c-5.828-7.024-4.958-17.423,2.023-23.374l-24.628-28.615C346.285,139.77,335.747,138.992,329.684,132.079z"/>
				<path style="fill:#F0532D;" d="M320.397,186.543c11.29,13.119,9.758,32.859-3.424,44.095
					c-13.178,11.233-33.014,9.709-44.302-3.41c-11.289-13.117-9.756-32.859,3.423-44.093
					C289.274,171.9,309.109,173.426,320.397,186.543z"/>
				<g>
					<path style="fill:#FAB07F;" d="M300.413,190.268c-0.224-0.019-0.428,0.051-0.615,0.212l-3.429,2.921
						c-1.176-0.91-2.427-1.503-3.755-1.779l4.67-3.98c0.187-0.159,0.289-0.349,0.307-0.572c0.014-0.223-0.056-0.426-0.216-0.613
						l-1.751-2.033c-0.16-0.189-0.352-0.289-0.574-0.307c-0.224-0.018-0.43,0.055-0.616,0.214l-16.676,14.215
						c-0.187,0.159-0.289,0.351-0.307,0.573c-0.016,0.221,0.055,0.426,0.216,0.613l2.282,2.654c0.148,0.17,0.341,0.268,0.578,0.286
						c0.236,0.018,0.441-0.048,0.614-0.194l2.907-2.481c2.819-2.401,5.256-3.177,7.31-2.325l-8.277,7.056
						c-0.187,0.16-0.29,0.352-0.306,0.573c-0.017,0.223,0.055,0.426,0.216,0.614l1.749,2.033c0.161,0.186,0.351,0.287,0.574,0.305
						c0.225,0.018,0.43-0.054,0.616-0.214l8.559-7.295c0.645,1.341,0.677,2.756,0.093,4.245c-0.584,1.49-1.758,2.984-3.522,4.487
						l-2.244,1.914c-0.174,0.148-0.27,0.341-0.29,0.574c-0.017,0.236,0.048,0.438,0.197,0.611l2.181,2.534
						c0.149,0.174,0.334,0.27,0.556,0.287c4.901,0.525,11.496,1.486,19.785,2.88c0.258,0.057,0.493-0.004,0.707-0.185l3.909-3.333
						c0.282-0.24,0.372-0.524,0.273-0.853c-0.073-0.355-0.294-0.56-0.665-0.611c-7.997-1.436-14.133-2.387-18.4-2.85
						c2.041-2.203,3.256-4.506,3.642-6.91c0.386-2.404-0.091-4.695-1.431-6.873l3.367-2.87c0.186-0.16,0.291-0.35,0.306-0.572
						c0.018-0.221-0.055-0.428-0.214-0.612l-1.752-2.036C300.827,190.386,300.636,190.285,300.413,190.268z"/>
				</g>
			</g>
			<path style="fill:#F0532D;" d="M356.568,153.881c2.187,2.541,1.89,6.367-0.664,8.543c-2.553,2.177-6.396,1.882-8.584-0.66
				c-2.187-2.54-1.891-6.365,0.664-8.541C350.536,151.045,354.381,151.339,356.568,153.881z"/>
			<path style="fill:#F0532D;" d="M244.42,249.479c2.188,2.542,1.89,6.366-0.663,8.542c-2.555,2.178-6.396,1.884-8.585-0.659
				c-2.186-2.542-1.888-6.366,0.665-8.541C238.391,246.643,242.234,246.937,244.42,249.479z"/>
		</g>
		<g>
			<path style="fill:#63B1DC;" d="M223.6,112.996c8.676,3.403,13.1,12.74,9.887,20.856l-47.724,120.491
				c-3.214,8.114-12.85,11.935-21.524,8.533l-62.824-24.645c-8.673-3.404-13.099-12.741-9.884-20.856l47.723-120.491
				c3.214-8.115,12.85-11.936,21.524-8.535L223.6,112.996z"/>
			<polygon style="fill:#2A4455;" points="180.475,96.076 121.113,245.956 102.552,238.677 161.912,88.796 			"/>
			<polygon style="fill:#F5E1D3;" points="190.377,123.52 147.165,232.621 136.591,228.472 179.804,119.371 			"/>
		</g>
		<g>
			<g>
				<polygon style="fill:#008035;" points="342.795,109.028 252.442,281.079 171.822,239.141 262.176,67.091 				"/>
				<path style="fill:#0DB14B;" d="M259.119,94.312l-12.565,23.924l-41.458,78.946l-12.564,23.926
					c8.129,4.326,11.259,14.37,6.979,22.52l33.553,17.451c4.257-8.105,14.242-11.287,22.43-7.215l12.568-23.929l41.459-78.947
					l12.567-23.931c-8.034-4.365-11.11-14.339-6.854-22.448l-33.552-17.453C277.404,95.309,267.331,98.484,259.119,94.312z"/>
				<path style="fill:#008035;" d="M270.844,148.308c15.381,7.999,21.332,26.892,13.296,42.197
					c-8.04,15.309-27.022,21.232-42.403,13.231c-15.38-8-21.332-26.893-13.294-42.2C236.482,146.23,255.465,140.308,270.844,148.308
					z"/>
				<g>
					<path style="fill:#0DB14B;" d="M253.683,159.159c-0.215,0.067-0.378,0.208-0.492,0.424l-2.091,3.98
						c-1.432-0.41-2.816-0.495-4.15-0.261l2.848-5.423c0.114-0.218,0.139-0.434,0.07-0.646c-0.068-0.212-0.209-0.374-0.427-0.486
						l-2.386-1.243c-0.219-0.114-0.435-0.136-0.649-0.072c-0.213,0.07-0.377,0.211-0.491,0.428l-10.17,19.366
						c-0.114,0.216-0.138,0.434-0.072,0.645c0.068,0.212,0.212,0.376,0.43,0.488l3.111,1.617c0.2,0.108,0.415,0.124,0.64,0.054
						c0.224-0.071,0.391-0.206,0.499-0.408l1.771-3.375c1.72-3.275,3.692-4.896,5.92-4.863l-5.049,9.614
						c-0.115,0.215-0.138,0.432-0.071,0.645c0.067,0.211,0.211,0.375,0.428,0.489l2.387,1.241c0.218,0.112,0.433,0.137,0.646,0.071
						c0.214-0.067,0.377-0.211,0.491-0.427l5.221-9.94c1.101,1.007,1.658,2.309,1.671,3.907c0.015,1.598-0.515,3.42-1.591,5.47
						l-1.37,2.606c-0.106,0.202-0.124,0.415-0.054,0.639c0.071,0.225,0.209,0.391,0.41,0.495l2.971,1.544
						c0.202,0.105,0.41,0.126,0.625,0.059c4.745-1.325,11.227-2.873,19.443-4.646c0.261-0.043,0.455-0.187,0.586-0.435l2.384-4.538
						c0.172-0.327,0.149-0.624-0.067-0.893c-0.199-0.302-0.48-0.411-0.844-0.323c-7.962,1.628-14.013,3.016-18.147,4.165
						c1.073-2.801,1.338-5.39,0.8-7.765c-0.538-2.373-1.837-4.323-3.895-5.849l2.053-3.909c0.113-0.218,0.138-0.434,0.071-0.645
						c-0.067-0.213-0.21-0.376-0.427-0.49l-2.387-1.24C254.113,159.116,253.897,159.093,253.683,159.159z"/>
				</g>
			</g>
			<path style="fill:#008035;" d="M292.22,104.604c2.98,1.55,4.132,5.212,2.575,8.177c-1.557,2.965-5.235,4.113-8.215,2.564
				c-2.981-1.55-4.132-5.21-2.575-8.177C285.563,104.203,289.24,103.054,292.22,104.604z"/>
			<path style="fill:#008035;" d="M223.822,234.845c2.982,1.55,4.134,5.21,2.576,8.177c-1.557,2.965-5.235,4.112-8.215,2.563
				c-2.98-1.55-4.133-5.211-2.575-8.176C217.166,234.442,220.843,233.295,223.822,234.845z"/>
		</g>
		<g>
			<path style="fill:#514835;" d="M318.714,240.652H143.217h-12.965h-4.511V419.9h4.511h12.965h175.496
				c6.931,0,12.548-5.579,12.548-12.461V253.112C331.262,246.231,325.644,240.652,318.714,240.652z"/>
			<path style="fill:#914204;" d="M310.655,240.652h-176.1h-8.813v180.262h8.813h176.1c6.955,0,12.592-5.611,12.592-12.531V253.183
				C323.247,246.263,317.61,240.652,310.655,240.652z"/>
			<g>
				<path style="fill:#7B2E00;" d="M224.377,253.078c0.696,0,1.258-0.561,1.258-1.253c0-0.693-0.562-1.254-1.258-1.254h-5.077
					c-0.695,0-1.257,0.561-1.257,1.254c0,0.692,0.562,1.253,1.257,1.253H224.377z"/>
				<path style="fill:#7B2E00;" d="M214.83,410.025h-5.077c-0.694,0-1.258,0.561-1.258,1.253c0,0.693,0.564,1.254,1.258,1.254h5.077
					c0.695,0,1.258-0.561,1.258-1.254C216.088,410.586,215.525,410.025,214.83,410.025z"/>
				<path style="fill:#7B2E00;" d="M194.525,410.025h-5.075c-0.696,0-1.259,0.561-1.259,1.253c0,0.693,0.563,1.254,1.259,1.254
					h5.075c0.696,0,1.26-0.561,1.26-1.254C195.786,410.586,195.221,410.025,194.525,410.025z"/>
				<path style="fill:#7B2E00;" d="M204.678,410.025h-5.076c-0.695,0-1.259,0.561-1.259,1.253c0,0.693,0.564,1.254,1.259,1.254
					h5.076c0.696,0,1.258-0.561,1.258-1.254C205.936,410.586,205.374,410.025,204.678,410.025z"/>
				<path style="fill:#7B2E00;" d="M214.224,253.078c0.696,0,1.26-0.561,1.26-1.253c0-0.693-0.564-1.254-1.26-1.254h-5.076
					c-0.694,0-1.259,0.561-1.259,1.254c0,0.692,0.566,1.253,1.259,1.253H214.224z"/>
				<path style="fill:#7B2E00;" d="M204.074,253.078c0.694,0,1.258-0.561,1.258-1.253c0-0.693-0.564-1.254-1.258-1.254h-5.077
					c-0.696,0-1.259,0.561-1.259,1.254c0,0.692,0.563,1.253,1.259,1.253H204.074z"/>
				<path style="fill:#7B2E00;" d="M244.68,253.078c0.696,0,1.26-0.561,1.26-1.253c0-0.693-0.564-1.254-1.26-1.254h-5.076
					c-0.693,0-1.259,0.561-1.259,1.254c0,0.692,0.566,1.253,1.259,1.253H244.68z"/>
				<path style="fill:#7B2E00;" d="M224.982,410.025h-5.076c-0.696,0-1.258,0.561-1.258,1.253c0,0.693,0.562,1.254,1.258,1.254
					h5.076c0.696,0,1.259-0.561,1.259-1.254C226.241,410.586,225.677,410.025,224.982,410.025z"/>
				<path style="fill:#7B2E00;" d="M254.833,253.078c0.696,0,1.258-0.561,1.258-1.253c0-0.693-0.562-1.254-1.258-1.254h-5.077
					c-0.695,0-1.257,0.561-1.257,1.254c0,0.692,0.562,1.253,1.257,1.253H254.833z"/>
				<path style="fill:#7B2E00;" d="M245.287,410.025h-5.076c-0.696,0-1.258,0.561-1.258,1.253c0,0.693,0.562,1.254,1.258,1.254
					h5.076c0.694,0,1.258-0.561,1.258-1.254C246.545,410.586,245.98,410.025,245.287,410.025z"/>
				<path style="fill:#7B2E00;" d="M234.529,253.078c0.695,0,1.258-0.561,1.258-1.253c0-0.693-0.563-1.254-1.258-1.254h-5.076
					c-0.696,0-1.259,0.561-1.259,1.254c0,0.692,0.563,1.253,1.259,1.253H234.529z"/>
				<path style="fill:#7B2E00;" d="M235.133,410.025h-5.075c-0.696,0-1.259,0.561-1.259,1.253c0,0.693,0.564,1.254,1.259,1.254
					h5.075c0.697,0,1.259-0.561,1.259-1.254C236.392,410.586,235.83,410.025,235.133,410.025z"/>
				<path style="fill:#7B2E00;" d="M133.614,410.025h-5.076c-0.696,0-1.258,0.561-1.258,1.253c0,0.693,0.562,1.254,1.258,1.254
					h5.076c0.695,0,1.259-0.561,1.259-1.254C134.873,410.586,134.309,410.025,133.614,410.025z"/>
				<path style="fill:#7B2E00;" d="M143.766,410.025h-5.076c-0.696,0-1.26,0.561-1.26,1.253c0,0.693,0.564,1.254,1.26,1.254h5.076
					c0.695,0,1.259-0.561,1.259-1.254C145.026,410.586,144.461,410.025,143.766,410.025z"/>
				<path style="fill:#7B2E00;" d="M153.313,253.078c0.695,0,1.259-0.561,1.259-1.253c0-0.693-0.565-1.254-1.259-1.254h-5.076
					c-0.695,0-1.259,0.561-1.259,1.254c0,0.692,0.564,1.253,1.259,1.253H153.313z"/>
				<path style="fill:#7B2E00;" d="M143.16,253.078c0.696,0,1.259-0.561,1.259-1.253c0-0.693-0.563-1.254-1.259-1.254h-5.075
					c-0.696,0-1.259,0.561-1.259,1.254c0,0.692,0.563,1.253,1.259,1.253H143.16z"/>
				<path style="fill:#7B2E00;" d="M133.009,253.078c0.696,0,1.258-0.561,1.258-1.253c0-0.693-0.562-1.254-1.258-1.254h-5.077
					c-0.695,0-1.257,0.561-1.257,1.254c0,0.692,0.562,1.253,1.257,1.253H133.009z"/>
				<path style="fill:#7B2E00;" d="M153.919,410.025h-5.077c-0.696,0-1.259,0.561-1.259,1.253c0,0.693,0.563,1.254,1.259,1.254
					h5.077c0.694,0,1.258-0.561,1.258-1.254C155.177,410.586,154.613,410.025,153.919,410.025z"/>
				<path style="fill:#7B2E00;" d="M255.438,410.025h-5.075c-0.697,0-1.259,0.561-1.259,1.253c0,0.693,0.562,1.254,1.259,1.254
					h5.075c0.695,0,1.259-0.561,1.259-1.254C256.697,410.586,256.133,410.025,255.438,410.025z"/>
				<path style="fill:#7B2E00;" d="M184.374,410.025h-5.077c-0.694,0-1.257,0.561-1.257,1.253c0,0.693,0.563,1.254,1.257,1.254
					h5.077c0.696,0,1.259-0.561,1.259-1.254C185.633,410.586,185.07,410.025,184.374,410.025z"/>
				<path style="fill:#7B2E00;" d="M174.222,410.025h-5.075c-0.696,0-1.26,0.561-1.26,1.253c0,0.693,0.564,1.254,1.26,1.254h5.075
					c0.696,0,1.259-0.561,1.259-1.254C175.481,410.586,174.917,410.025,174.222,410.025z"/>
				<path style="fill:#7B2E00;" d="M183.769,253.078c0.695,0,1.258-0.561,1.258-1.253c0-0.693-0.563-1.254-1.258-1.254h-5.076
					c-0.695,0-1.258,0.561-1.258,1.254c0,0.692,0.564,1.253,1.258,1.253H183.769z"/>
				<path style="fill:#7B2E00;" d="M193.921,253.078c0.695,0,1.259-0.561,1.259-1.253c0-0.693-0.564-1.254-1.259-1.254h-5.076
					c-0.695,0-1.258,0.561-1.258,1.254c0,0.692,0.563,1.253,1.258,1.253H193.921z"/>
				<path style="fill:#7B2E00;" d="M163.465,253.078c0.696,0,1.258-0.561,1.258-1.253c0-0.693-0.562-1.254-1.258-1.254h-5.077
					c-0.695,0-1.258,0.561-1.258,1.254c0,0.692,0.564,1.253,1.258,1.253H163.465z"/>
				<path style="fill:#7B2E00;" d="M173.617,253.078c0.695,0,1.259-0.561,1.259-1.253c0-0.693-0.565-1.254-1.259-1.254h-5.075
					c-0.697,0-1.26,0.561-1.26,1.254c0,0.692,0.563,1.253,1.26,1.253H173.617z"/>
				<path style="fill:#7B2E00;" d="M164.069,410.025h-5.074c-0.697,0-1.26,0.561-1.26,1.253c0,0.693,0.563,1.254,1.26,1.254h5.074
					c0.696,0,1.26-0.561,1.26-1.254C165.329,410.586,164.765,410.025,164.069,410.025z"/>
				<path style="fill:#7B2E00;" d="M302.046,253.078c1.089,0.002,2.163,0.136,3.195,0.4c0.105,0.027,0.211,0.039,0.315,0.039
					c0.561,0,1.072-0.376,1.218-0.941c0.174-0.67-0.231-1.354-0.905-1.526c-1.235-0.316-2.521-0.477-3.821-0.479h-1.531
					c-0.695,0-1.259,0.561-1.259,1.254c0,0.692,0.565,1.253,1.259,1.253H302.046z"/>
				<path style="fill:#7B2E00;" d="M314.602,332.522c-0.697,0-1.26,0.561-1.26,1.254v5.051c0,0.693,0.564,1.254,1.26,1.254
					c0.694,0,1.258-0.561,1.258-1.254v-5.051C315.86,333.084,315.296,332.522,314.602,332.522z"/>
				<path style="fill:#7B2E00;" d="M314.602,312.316c-0.697,0-1.26,0.56-1.26,1.253v5.051c0,0.694,0.564,1.255,1.26,1.255
					c0.694,0,1.258-0.561,1.258-1.255v-5.051C315.86,312.876,315.296,312.316,314.602,312.316z"/>
				<path style="fill:#7B2E00;" d="M314.602,342.627c-0.697,0-1.26,0.56-1.26,1.254v5.051c0,0.693,0.564,1.253,1.26,1.253
					c0.694,0,1.258-0.56,1.258-1.253v-5.051C315.86,343.187,315.296,342.627,314.602,342.627z"/>
				<path style="fill:#7B2E00;" d="M314.602,372.938c-0.697,0-1.26,0.56-1.26,1.253v5.052c0,0.694,0.564,1.253,1.26,1.253
					c0.694,0,1.258-0.559,1.258-1.253v-5.052C315.86,373.498,315.296,372.938,314.602,372.938z"/>
				<path style="fill:#7B2E00;" d="M314.602,352.73c-0.697,0-1.26,0.559-1.26,1.253v5.052c0,0.693,0.564,1.252,1.26,1.252
					c0.694,0,1.258-0.559,1.258-1.252v-5.052C315.86,353.289,315.296,352.73,314.602,352.73z"/>
				<path style="fill:#7B2E00;" d="M314.602,362.834c-0.697,0-1.26,0.561-1.26,1.253v5.051c0,0.693,0.564,1.254,1.26,1.254
					c0.694,0,1.258-0.561,1.258-1.254v-5.051C315.86,363.396,315.296,362.834,314.602,362.834z"/>
				<path style="fill:#7B2E00;" d="M314.602,322.418c-0.697,0-1.26,0.561-1.26,1.254v5.053c0,0.693,0.564,1.253,1.26,1.253
					c0.694,0,1.258-0.56,1.258-1.253v-5.053C315.86,322.979,315.296,322.418,314.602,322.418z"/>
				<path style="fill:#7B2E00;" d="M314.602,261.797c-0.697,0-1.26,0.561-1.26,1.253v5.053c0,0.692,0.564,1.253,1.26,1.253
					c0.694,0,1.258-0.56,1.258-1.253v-5.053C315.86,262.357,315.296,261.797,314.602,261.797z"/>
				<path style="fill:#7B2E00;" d="M264.984,253.078c0.695,0,1.259-0.561,1.259-1.253c0-0.693-0.565-1.254-1.259-1.254h-5.075
					c-0.696,0-1.26,0.561-1.26,1.254c0,0.692,0.565,1.253,1.26,1.253H264.984z"/>
				<path style="fill:#7B2E00;" d="M314.602,282.005c-0.697,0-1.26,0.56-1.26,1.253v5.052c0,0.691,0.564,1.252,1.26,1.252
					c0.694,0,1.258-0.56,1.258-1.252v-5.052C315.86,282.565,315.296,282.005,314.602,282.005z"/>
				<path style="fill:#7B2E00;" d="M314.602,302.213c-0.697,0-1.26,0.559-1.26,1.252v5.052c0,0.693,0.564,1.253,1.26,1.253
					c0.694,0,1.258-0.559,1.258-1.253v-5.052C315.86,302.772,315.296,302.213,314.602,302.213z"/>
				<path style="fill:#7B2E00;" d="M314.602,292.107c-0.697,0-1.26,0.561-1.26,1.254v5.052c0,0.694,0.564,1.254,1.26,1.254
					c0.694,0,1.258-0.56,1.258-1.254v-5.052C315.86,292.668,315.296,292.107,314.602,292.107z"/>
				<path style="fill:#7B2E00;" d="M314.602,271.901c-0.697,0-1.26,0.56-1.26,1.254v5.051c0,0.691,0.564,1.253,1.26,1.253
					c0.694,0,1.258-0.561,1.258-1.253v-5.051C315.86,272.461,315.296,271.901,314.602,271.901z"/>
				<path style="fill:#7B2E00;" d="M285.287,253.078c0.697,0,1.26-0.561,1.26-1.253c0-0.693-0.564-1.254-1.26-1.254h-5.075
					c-0.695,0-1.258,0.561-1.258,1.254c0,0.692,0.563,1.253,1.258,1.253H285.287z"/>
				<path style="fill:#7B2E00;" d="M295.441,253.078c0.695,0,1.259-0.561,1.259-1.253c0-0.693-0.565-1.254-1.259-1.254h-5.075
					c-0.697,0-1.26,0.561-1.26,1.254c0,0.692,0.563,1.253,1.26,1.253H295.441z"/>
				<path style="fill:#7B2E00;" d="M275.743,410.025h-5.078c-0.694,0-1.257,0.561-1.257,1.253c0,0.693,0.563,1.254,1.257,1.254
					h5.078c0.695,0,1.258-0.561,1.258-1.254C277.001,410.586,276.438,410.025,275.743,410.025z"/>
				<path style="fill:#7B2E00;" d="M285.893,410.025h-5.074c-0.697,0-1.26,0.561-1.26,1.253c0,0.693,0.563,1.254,1.26,1.254h5.074
					c0.696,0,1.26-0.561,1.26-1.254C287.154,410.586,286.589,410.025,285.893,410.025z"/>
				<path style="fill:#7B2E00;" d="M314.602,383.041c-0.697,0-1.26,0.561-1.26,1.253v5.051c0,0.693,0.564,1.255,1.26,1.255
					c0.694,0,1.258-0.561,1.258-1.255v-5.051C315.86,383.602,315.296,383.041,314.602,383.041z"/>
				<path style="fill:#7B2E00;" d="M265.59,410.025h-5.076c-0.695,0-1.26,0.561-1.26,1.253c0,0.693,0.566,1.254,1.26,1.254h5.076
					c0.695,0,1.259-0.561,1.259-1.254C266.85,410.586,266.285,410.025,265.59,410.025z"/>
				<path style="fill:#7B2E00;" d="M275.137,253.078c0.695,0,1.258-0.561,1.258-1.253c0-0.693-0.564-1.254-1.258-1.254h-5.076
					c-0.695,0-1.259,0.561-1.259,1.254c0,0.692,0.565,1.253,1.259,1.253H275.137z"/>
				<path style="fill:#7B2E00;" d="M296.046,410.025h-5.075c-0.696,0-1.26,0.561-1.26,1.253c0,0.693,0.565,1.254,1.26,1.254h5.075
					c0.696,0,1.259-0.561,1.259-1.254C297.305,410.586,296.741,410.025,296.046,410.025z"/>
				<path style="fill:#7B2E00;" d="M314.602,393.145c-0.697,0-1.26,0.56-1.26,1.253v5.051c0,0.694,0.564,1.254,1.26,1.254
					c0.694,0,1.258-0.56,1.258-1.254v-5.051C315.86,393.705,315.296,393.145,314.602,393.145z"/>
				<path style="fill:#7B2E00;" d="M314.206,403.226c-0.633-0.289-1.38-0.012-1.669,0.617c-0.606,1.316-1.556,2.528-2.748,3.506
					c-0.538,0.439-0.614,1.23-0.172,1.763c0.25,0.301,0.608,0.456,0.971,0.456c0.283,0,0.568-0.094,0.801-0.286
					c1.485-1.216,2.673-2.736,3.436-4.395C315.115,404.259,314.837,403.516,314.206,403.226z"/>
				<path style="fill:#7B2E00;" d="M305.769,409.478c-1.193,0.363-2.445,0.547-3.722,0.547h-0.927c-0.694,0-1.258,0.561-1.258,1.253
					c0,0.693,0.565,1.254,1.258,1.254h0.927c1.526,0,3.027-0.221,4.459-0.658c0.664-0.201,1.038-0.903,0.835-1.564
					C307.137,409.645,306.431,409.272,305.769,409.478z"/>
				<path style="fill:#7B2E00;" d="M312.299,258.784c0.229,0.424,0.663,0.666,1.115,0.666c0.199,0,0.4-0.047,0.587-0.145
					c0.616-0.325,0.849-1.084,0.523-1.695c-0.856-1.607-2.122-3.059-3.662-4.2c-0.558-0.411-1.344-0.296-1.761,0.259
					c-0.415,0.555-0.299,1.34,0.258,1.753C310.6,256.339,311.619,257.503,312.299,258.784z"/>
			</g>
			<path style="opacity:0.6;fill:#514835;" d="M327.821,311.882h-62.114c-6.953,0-12.59,5.611-12.59,12.531v20.049
				c0,6.921,5.636,12.531,12.59,12.531h62.114c1.351,0,2.23-0.092,3.448-0.484l0.135-11.37l7.398-0.932v-20.049v-12.531
				L327.821,311.882z"/>
			<path style="fill:#7B2E00;" d="M327.192,308.227h-62.114c-6.953,0-12.591,5.612-12.591,12.531v20.05
				c0,6.919,5.638,12.53,12.591,12.53h62.114c1.35,0,2.647-0.217,3.867-0.607h8.723v-11.923v-20.05v-12.531H327.192z"/>
			<path style="fill:#955903;" d="M292.619,331.655c0,6.771-5.516,12.264-12.322,12.264c-6.805,0-12.322-5.493-12.322-12.264
				c0-6.774,5.517-12.264,12.322-12.264C287.103,319.391,292.619,324.881,292.619,331.655z"/>
			<g>
				<path style="fill:#DA8D17;" d="M282.724,319.365c2.914,2.171,4.808,5.623,4.808,9.524c0,6.574-5.355,11.904-11.962,11.904
					c-1.525,0-2.978-0.295-4.32-0.815c1.997,1.489,4.468,2.381,7.153,2.381c6.607,0,11.963-5.329,11.963-11.904
					C290.365,325.399,287.192,321.09,282.724,319.365z"/>
				<g>
					<path style="fill:#FFFFFF;" d="M268.007,331.269c0-6.574,5.354-11.904,11.96-11.904c1.158,0,2.275,0.172,3.33,0.48
						c-0.189-0.161-0.372-0.332-0.573-0.48c-1.342-0.519-2.796-0.814-4.321-0.814c-6.606,0-11.96,5.33-11.96,11.904
						c0,3.901,1.894,7.353,4.807,9.523c0.324,0.126,0.654,0.236,0.99,0.335C269.661,338.13,268.007,334.901,268.007,331.269z"/>
					<path style="fill:#FBAD18;" d="M287.532,328.889c0-3.633-1.656-6.863-4.235-9.044c-1.056-0.309-2.173-0.48-3.33-0.48
						c-6.606,0-11.96,5.33-11.96,11.904c0,3.632,1.654,6.862,4.233,9.044c1.057,0.309,2.173,0.48,3.33,0.48
						C282.177,340.793,287.532,335.463,287.532,328.889z"/>
				</g>
			</g>
		</g>
		<g>
			<path style="fill:#E9B521;" d="M410.639,375.619c-0.175,0-0.342,0.035-0.513,0.052c-0.216-0.032-0.434-0.052-0.656-0.052h-61.716
				c-0.208,0-0.413,0.017-0.617,0.044c-0.144-0.013-0.284-0.044-0.433-0.044c-2.848,0-5.155,2.299-5.155,5.13v4.663
				c0,2.833,2.307,5.133,5.155,5.133c0.149,0,0.289-0.032,0.433-0.044c0.204,0.026,0.408,0.044,0.617,0.044h61.716
				c0.222,0,0.441-0.021,0.656-0.052c0.171,0.017,0.338,0.052,0.513,0.052c2.847,0,5.156-2.3,5.156-5.133v-4.663
				C415.795,377.918,413.486,375.619,410.639,375.619z"/>
			<path style="fill:#FFF34D;" d="M347.754,388.664c-0.125,0-0.246-0.01-0.366-0.027l-0.203-0.027c0,0-0.468,0.047-0.474,0.047
				c-1.815,0-3.273-1.456-3.273-3.245v-4.663c0-1.792,1.465-3.25,3.267-3.25c0.105,0.019,0.189,0.031,0.276,0.037l0.205,0.016
				l0.203-0.026c0.12-0.016,0.243-0.027,0.366-0.027h61.716c0.128,0,0.256,0.013,0.38,0.032l0.233,0.033c0,0,0.486-0.05,0.495-0.05
				c1.876,0,3.33,1.453,3.33,3.236v4.663c0,1.788-1.457,3.243-3.25,3.253l-0.574-0.065l-0.233,0.034
				c-0.124,0.019-0.252,0.031-0.38,0.031H347.754z"/>
			<g>
				<defs>
					<path id="SVGID_1_" d="M347.215,386.718l-0.578,0.058c-0.731-0.038-1.312-0.636-1.312-1.364v-4.663
						c0-0.718,0.557-1.309,1.264-1.366c0.08,0.011,0.641,0.059,0.641,0.059l0.406-0.053l61.834-0.01l0.572,0.079l0.614-0.064
						c0.77,0.035,1.362,0.62,1.362,1.355v4.663c0,0.723-0.568,1.32-1.282,1.37l-0.687-0.077l-0.475,0.07l-61.82,0.01
						L347.215,386.718z"/>
				</defs>
				<clipPath id="SVGID_00000117645084698250333850000013236840518356382595_">
					<use xlink:href="#SVGID_1_"  style="overflow:visible;"/>
				</clipPath>
				<g style="clip-path:url(#SVGID_00000117645084698250333850000013236840518356382595_);">
					<rect x="344.556" y="377.229" style="fill:#E9B521;" width="1.545" height="11.288"/>
					<rect x="349.319" y="377.229" style="fill:#E9B521;" width="1.546" height="11.288"/>
					<rect x="354.081" y="377.229" style="fill:#E9B521;" width="1.548" height="11.288"/>
					<rect x="358.845" y="377.229" style="fill:#E9B521;" width="1.547" height="11.288"/>
					<rect x="363.609" y="377.229" style="fill:#E9B521;" width="1.547" height="11.288"/>
					<rect x="368.371" y="377.229" style="fill:#E9B521;" width="1.546" height="11.288"/>
					<rect x="373.134" y="377.229" style="fill:#E9B521;" width="1.548" height="11.288"/>
					<rect x="377.897" y="377.229" style="fill:#E9B521;" width="1.547" height="11.288"/>
					<rect x="382.661" y="377.229" style="fill:#E9B521;" width="1.547" height="11.288"/>
					<rect x="387.424" y="377.229" style="fill:#E9B521;" width="1.547" height="11.288"/>
					<rect x="392.188" y="377.229" style="fill:#E9B521;" width="1.547" height="11.288"/>
					<rect x="396.951" y="377.229" style="fill:#E9B521;" width="1.547" height="11.288"/>
					<rect x="401.714" y="377.229" style="fill:#E9B521;" width="1.547" height="11.288"/>
					<rect x="406.477" y="377.229" style="fill:#E9B521;" width="1.548" height="11.288"/>
					<rect x="411.24" y="377.229" style="fill:#E9B521;" width="1.547" height="11.288"/>
				</g>
			</g>
		</g>
		<g>
			<path style="fill:#E9B521;" d="M424.261,361.737c-0.175,0-0.341,0.034-0.512,0.051c-0.215-0.032-0.434-0.051-0.658-0.051h-61.713
				c-0.209,0-0.415,0.015-0.617,0.043c-0.147-0.012-0.286-0.043-0.434-0.043c-2.848,0-5.156,2.297-5.156,5.13v4.661
				c0,2.833,2.308,5.132,5.156,5.132c0.149,0,0.288-0.031,0.434-0.043c0.202,0.027,0.408,0.043,0.617,0.043h61.713
				c0.223,0,0.442-0.02,0.658-0.051c0.171,0.017,0.337,0.051,0.512,0.051c2.848,0,5.156-2.299,5.156-5.132v-4.661
				C429.417,364.034,427.109,361.737,424.261,361.737z"/>
			<path style="fill:#FFF34D;" d="M361.378,374.781c-0.125,0-0.246-0.01-0.368-0.027l-0.202-0.027c0,0-0.471,0.048-0.476,0.048
				c-1.814,0-3.272-1.457-3.272-3.246v-4.661c0-1.792,1.466-3.25,3.267-3.25c0.105,0.018,0.189,0.03,0.275,0.036l0.207,0.018
				l0.202-0.027c0.122-0.017,0.244-0.026,0.368-0.026h61.713c0.13,0,0.256,0.012,0.382,0.031l0.232,0.033c0,0,0.486-0.05,0.495-0.05
				c1.876,0,3.329,1.454,3.329,3.237v4.661c0,1.788-1.456,3.243-3.249,3.253l-0.574-0.065l-0.232,0.034
				c-0.126,0.019-0.252,0.031-0.382,0.031H361.378z"/>
			<g>
				<defs>
					<path id="SVGID_00000080884788761955231140000010262299162116084102_" d="M360.839,372.835l-0.579,0.058
						c-0.73-0.037-1.313-0.635-1.313-1.364v-4.661c0-0.718,0.559-1.309,1.265-1.366c0.079,0.01,0.641,0.058,0.641,0.058l0.407-0.052
						l61.831-0.01l0.574,0.079l0.613-0.065c0.77,0.036,1.362,0.62,1.362,1.357v4.661c0,0.722-0.568,1.32-1.283,1.371l-0.684-0.078
						l-0.478,0.07l-61.817,0.01L360.839,372.835z"/>
				</defs>
				<clipPath id="SVGID_00000023239414354092425500000005652333276386520715_">
					<use xlink:href="#SVGID_00000080884788761955231140000010262299162116084102_"  style="overflow:visible;"/>
				</clipPath>
				<g style="clip-path:url(#SVGID_00000023239414354092425500000005652333276386520715_);">
					<rect x="358.179" y="363.347" style="fill:#E9B521;" width="1.547" height="11.287"/>
					<rect x="362.942" y="363.347" style="fill:#E9B521;" width="1.547" height="11.287"/>
					<rect x="367.705" y="363.347" style="fill:#E9B521;" width="1.547" height="11.287"/>
					<rect x="372.468" y="363.347" style="fill:#E9B521;" width="1.547" height="11.287"/>
					<rect x="377.231" y="363.347" style="fill:#E9B521;" width="1.548" height="11.287"/>
					<rect x="381.995" y="363.347" style="fill:#E9B521;" width="1.547" height="11.287"/>
					<rect x="386.759" y="363.347" style="fill:#E9B521;" width="1.546" height="11.287"/>
					<rect x="391.52" y="363.347" style="fill:#E9B521;" width="1.547" height="11.287"/>
					<rect x="396.284" y="363.347" style="fill:#E9B521;" width="1.548" height="11.287"/>
					<rect x="401.048" y="363.347" style="fill:#E9B521;" width="1.546" height="11.287"/>
					<rect x="405.81" y="363.347" style="fill:#E9B521;" width="1.547" height="11.287"/>
					<rect x="410.575" y="363.347" style="fill:#E9B521;" width="1.546" height="11.287"/>
					<rect x="415.338" y="363.347" style="fill:#E9B521;" width="1.546" height="11.287"/>
					<rect x="420.1" y="363.347" style="fill:#E9B521;" width="1.547" height="11.287"/>
					<rect x="424.864" y="363.347" style="fill:#E9B521;" width="1.545" height="11.287"/>
				</g>
			</g>
		</g>
		<g>
			<path style="fill:#E9B521;" d="M425.666,389.46c-0.175,0-0.341,0.035-0.512,0.051c-0.216-0.032-0.435-0.051-0.658-0.051h-61.713
				c-0.209,0-0.414,0.016-0.618,0.044c-0.146-0.013-0.284-0.044-0.433-0.044c-2.848,0-5.155,2.298-5.155,5.132v4.659
				c0,2.835,2.307,5.133,5.155,5.133c0.149,0,0.288-0.031,0.433-0.044c0.204,0.028,0.409,0.044,0.618,0.044h61.713
				c0.222,0,0.442-0.02,0.658-0.051c0.171,0.016,0.337,0.051,0.512,0.051c2.848,0,5.156-2.298,5.156-5.133v-4.659
				C430.822,391.758,428.513,389.46,425.666,389.46z"/>
			<path style="fill:#FFF34D;" d="M362.783,402.504c-0.125,0-0.246-0.01-0.368-0.026l-0.204-0.027c0,0-0.469,0.047-0.474,0.047
				c-1.815,0-3.273-1.457-3.273-3.246v-4.659c0-1.794,1.466-3.251,3.267-3.251c0.105,0.017,0.189,0.029,0.276,0.036l0.204,0.016
				l0.204-0.026c0.121-0.017,0.244-0.026,0.368-0.026h61.713c0.13,0,0.256,0.012,0.381,0.031l0.233,0.034
				c0,0,0.486-0.051,0.494-0.051c1.876,0,3.329,1.453,3.329,3.238v4.659c0,1.788-1.456,3.243-3.249,3.253l-0.574-0.065l-0.233,0.035
				c-0.125,0.018-0.251,0.03-0.381,0.03H362.783z"/>
			<g>
				<defs>
					<path id="SVGID_00000076602516170847485480000011190522774302187169_" d="M362.242,400.559l-0.578,0.058
						c-0.73-0.038-1.313-0.636-1.313-1.365v-4.659c0-0.72,0.559-1.311,1.265-1.369c0.079,0.011,0.64,0.059,0.64,0.059l0.408-0.054
						l61.832-0.009l0.574,0.078l0.613-0.063c0.769,0.037,1.363,0.619,1.363,1.358v4.659c0,0.723-0.57,1.32-1.284,1.371l-0.684-0.077
						l-0.478,0.069l-61.817,0.011L362.242,400.559z"/>
				</defs>
				<clipPath id="SVGID_00000000933101554696747030000004800865527355855286_">
					<use xlink:href="#SVGID_00000076602516170847485480000011190522774302187169_"  style="overflow:visible;"/>
				</clipPath>
				<g style="clip-path:url(#SVGID_00000000933101554696747030000004800865527355855286_);">
					<rect x="359.584" y="391.071" style="fill:#E9B521;" width="1.547" height="11.287"/>
					<rect x="364.347" y="391.071" style="fill:#E9B521;" width="1.547" height="11.287"/>
					<rect x="369.109" y="391.071" style="fill:#E9B521;" width="1.547" height="11.287"/>
					<rect x="373.873" y="391.071" style="fill:#E9B521;" width="1.547" height="11.287"/>
					<rect x="378.636" y="391.071" style="fill:#E9B521;" width="1.548" height="11.287"/>
					<rect x="383.4" y="391.071" style="fill:#E9B521;" width="1.546" height="11.287"/>
					<rect x="388.164" y="391.071" style="fill:#E9B521;" width="1.546" height="11.287"/>
					<rect x="392.925" y="391.071" style="fill:#E9B521;" width="1.548" height="11.287"/>
					<rect x="397.688" y="391.071" style="fill:#E9B521;" width="1.547" height="11.287"/>
					<rect x="402.452" y="391.071" style="fill:#E9B521;" width="1.547" height="11.287"/>
					<rect x="407.215" y="391.071" style="fill:#E9B521;" width="1.546" height="11.287"/>
					<rect x="411.978" y="391.071" style="fill:#E9B521;" width="1.546" height="11.287"/>
					<rect x="416.742" y="391.071" style="fill:#E9B521;" width="1.546" height="11.287"/>
					<rect x="421.504" y="391.071" style="fill:#E9B521;" width="1.547" height="11.287"/>
					<rect x="426.267" y="391.071" style="fill:#E9B521;" width="1.546" height="11.287"/>
				</g>
			</g>
		</g>
		<g>
			<path style="fill:#E9B521;" d="M408.997,404.385c-0.176,0-0.342,0.034-0.512,0.051c-0.216-0.032-0.435-0.051-0.658-0.051h-61.713
				c-0.209,0-0.415,0.015-0.618,0.043c-0.146-0.012-0.284-0.043-0.433-0.043c-2.848,0-5.156,2.297-5.156,5.131v4.661
				c0,2.835,2.308,5.132,5.156,5.132c0.149,0,0.288-0.03,0.433-0.043c0.203,0.027,0.408,0.043,0.618,0.043h61.713
				c0.222,0,0.441-0.019,0.658-0.051c0.17,0.018,0.336,0.051,0.512,0.051c2.848,0,5.156-2.297,5.156-5.132v-4.661
				C414.153,406.682,411.845,404.385,408.997,404.385z"/>
			<path style="fill:#FFF34D;" d="M346.114,417.429c-0.126,0-0.247-0.009-0.369-0.026l-0.203-0.027c0,0-0.467,0.046-0.473,0.046
				c-1.815,0-3.274-1.456-3.274-3.245v-4.661c0-1.793,1.466-3.251,3.268-3.251c0.105,0.019,0.189,0.029,0.275,0.036l0.205,0.017
				l0.203-0.026c0.122-0.018,0.244-0.027,0.369-0.027h61.713c0.129,0,0.255,0.012,0.381,0.031l0.232,0.035
				c0,0,0.486-0.053,0.495-0.053c1.877,0,3.33,1.453,3.33,3.238v4.661c0,1.788-1.456,3.244-3.249,3.253l-0.576-0.066l-0.232,0.035
				c-0.126,0.019-0.252,0.031-0.381,0.031H346.114z"/>
			<g>
				<defs>
					<path id="SVGID_00000181075517402875370410000014974818915748013714_" d="M345.574,415.484l-0.577,0.057
						c-0.732-0.038-1.314-0.636-1.314-1.364v-4.661c0-0.719,0.557-1.31,1.265-1.369c0.079,0.011,0.64,0.06,0.64,0.06l0.407-0.054
						l61.833-0.01l0.573,0.079l0.612-0.064c0.77,0.037,1.362,0.62,1.362,1.358v4.661c0,0.723-0.567,1.32-1.281,1.371l-0.687-0.078
						l-0.476,0.07l-61.817,0.01L345.574,415.484z"/>
				</defs>
				<clipPath id="SVGID_00000032636669583356222620000017328669365596289687_">
					<use xlink:href="#SVGID_00000181075517402875370410000014974818915748013714_"  style="overflow:visible;"/>
				</clipPath>
				<g style="clip-path:url(#SVGID_00000032636669583356222620000017328669365596289687_);">
					<rect x="342.914" y="405.995" style="fill:#E9B521;" width="1.547" height="11.286"/>
					<rect x="347.678" y="405.995" style="fill:#E9B521;" width="1.547" height="11.286"/>
					<rect x="352.44" y="405.995" style="fill:#E9B521;" width="1.547" height="11.286"/>
					<rect x="357.204" y="405.995" style="fill:#E9B521;" width="1.546" height="11.286"/>
					<rect x="361.966" y="405.995" style="fill:#E9B521;" width="1.548" height="11.286"/>
					<rect x="366.73" y="405.995" style="fill:#E9B521;" width="1.547" height="11.286"/>
					<rect x="371.493" y="405.995" style="fill:#E9B521;" width="1.547" height="11.286"/>
					<rect x="376.255" y="405.995" style="fill:#E9B521;" width="1.548" height="11.286"/>
					<rect x="381.02" y="405.995" style="fill:#E9B521;" width="1.547" height="11.286"/>
					<rect x="385.783" y="405.995" style="fill:#E9B521;" width="1.546" height="11.286"/>
					<rect x="390.546" y="405.995" style="fill:#E9B521;" width="1.547" height="11.286"/>
					<rect x="395.309" y="405.995" style="fill:#E9B521;" width="1.547" height="11.286"/>
					<rect x="400.072" y="405.995" style="fill:#E9B521;" width="1.547" height="11.286"/>
					<rect x="404.835" y="405.995" style="fill:#E9B521;" width="1.547" height="11.286"/>
					<rect x="409.599" y="405.995" style="fill:#E9B521;" width="1.546" height="11.286"/>
				</g>
			</g>
		</g>
		<g>
			<path style="fill:#E9B521;" d="M142.38,328.725c-0.885,2.693-3.797,4.163-6.504,3.28l0,0c-2.706-0.882-4.181-3.78-3.295-6.473
				l1.456-4.43c0.886-2.692,3.799-4.162,6.505-3.28l0,0c2.707,0.882,4.181,3.78,3.296,6.473L142.38,328.725z"/>
			<path style="fill:#E9B521;" d="M81.62,308.928c-0.885,2.694-3.798,4.162-6.504,3.28l0,0c-2.707-0.88-4.181-3.779-3.295-6.472
				l1.456-4.431c0.886-2.692,3.797-4.162,6.504-3.279l0,0c2.706,0.881,4.181,3.78,3.297,6.472L81.62,308.928z"/>
			<path style="fill:#E9B521;" d="M142.6,326.343c-1.288,3.917-4.795,6.292-7.835,5.3l-58.65-19.11
				c-3.04-0.99-4.458-4.968-3.17-8.883l0,0c1.288-3.917,4.796-6.29,7.836-5.299l58.65,19.109
				C142.47,318.45,143.887,322.429,142.6,326.343L142.6,326.343z"/>
			<path style="fill:#FFF34D;" d="M141.333,325.932c-1.101,3.345-4.354,5.292-7.266,4.342l-56.211-18.316
				c-2.912-0.947-4.379-4.432-3.279-7.777l0,0c1.101-3.349,4.354-5.292,7.265-4.343l56.214,18.315
				C140.968,319.102,142.435,322.584,141.333,325.932L141.333,325.932z"/>
			<g>
				<defs>
					<path id="SVGID_00000060714534540249716670000004656846918832284058_" d="M78.176,310.984c-2.368-0.77-3.541-3.68-2.62-6.485
						c0.922-2.802,3.599-4.458,5.967-3.688l56.213,18.315c2.366,0.772,3.542,3.684,2.619,6.486
						c-0.921,2.804-3.599,4.458-5.965,3.687L78.176,310.984z"/>
				</defs>
				<clipPath id="SVGID_00000018945033057430107190000018384360985108753548_">
					<use xlink:href="#SVGID_00000060714534540249716670000004656846918832284058_"  style="overflow:visible;"/>
				</clipPath>
				<g style="clip-path:url(#SVGID_00000018945033057430107190000018384360985108753548_);">
					<polygon style="fill:#E9B521;" points="75.354,310.319 73.884,309.84 77.413,299.113 78.883,299.593 					"/>
					<polygon style="fill:#E9B521;" points="79.882,311.793 78.412,311.315 81.94,300.588 83.41,301.066 					"/>
					<polygon style="fill:#E9B521;" points="84.406,313.267 82.936,312.79 86.466,302.062 87.937,302.542 					"/>
					<polygon style="fill:#E9B521;" points="88.933,314.744 87.464,314.266 90.992,303.538 92.463,304.017 					"/>
					<polygon style="fill:#E9B521;" points="93.461,316.218 91.991,315.739 95.52,305.012 96.99,305.491 					"/>
					<polygon style="fill:#E9B521;" points="97.987,317.693 96.518,317.215 100.045,306.487 101.516,306.966 					"/>
					<polygon style="fill:#E9B521;" points="102.517,319.169 101.045,318.689 104.573,307.962 106.045,308.442 					"/>
					<polygon style="fill:#E9B521;" points="107.04,320.644 105.571,320.165 109.099,309.436 110.57,309.916 					"/>
					<polygon style="fill:#E9B521;" points="111.568,322.117 110.097,321.639 113.627,310.911 115.097,311.392 					"/>
					<polygon style="fill:#E9B521;" points="116.094,323.594 114.624,323.114 118.153,312.387 119.623,312.865 					"/>
					<polygon style="fill:#E9B521;" points="120.621,325.068 119.152,324.59 122.68,313.861 124.151,314.341 					"/>
					<polygon style="fill:#E9B521;" points="125.148,326.544 123.678,326.064 127.207,315.336 128.677,315.816 					"/>
					<polygon style="fill:#E9B521;" points="129.677,328.018 128.206,327.539 131.736,316.811 133.205,317.289 					"/>
					<polygon style="fill:#E9B521;" points="134.201,329.493 132.731,329.013 136.26,318.286 137.731,318.766 					"/>
					<polygon style="fill:#E9B521;" points="138.729,330.968 137.259,330.489 140.787,319.761 142.257,320.24 					"/>
				</g>
			</g>
		</g>
		<g>
			<path style="fill:#E9B521;" d="M136.221,264.692c0.524,2.786-1.319,5.467-4.119,5.989l0,0c-2.798,0.522-5.492-1.315-6.016-4.099
				L125.224,262c-0.525-2.785,1.32-5.467,4.118-5.988l0,0c2.798-0.522,5.493,1.314,6.017,4.099L136.221,264.692z"/>
			<path style="fill:#E9B521;" d="M73.381,276.404c0.523,2.785-1.32,5.467-4.121,5.989l0,0c-2.799,0.522-5.491-1.314-6.016-4.098
				l-0.861-4.582c-0.525-2.786,1.318-5.468,4.118-5.987l0,0c2.799-0.524,5.493,1.312,6.017,4.097L73.381,276.404z"/>
			<path style="fill:#E9B521;" d="M135.264,262.5c0.762,4.05-1.167,7.809-4.312,8.394l-60.659,11.307
				c-3.142,0.584-6.308-2.225-7.071-6.275l0,0c-0.761-4.049,1.168-7.808,4.312-8.393l60.66-11.306
				C131.336,255.641,134.502,258.449,135.264,262.5L135.264,262.5z"/>
			<path style="fill:#FFF34D;" d="M133.954,262.744c0.651,3.461-1.262,6.723-4.274,7.285l-58.138,10.834
				c-3.011,0.561-5.98-1.791-6.632-5.251l0,0c-0.651-3.461,1.262-6.724,4.274-7.285l58.137-10.835
				C130.334,256.93,133.302,259.282,133.954,262.744L133.954,262.744z"/>
			<g>
				<defs>
					<path id="SVGID_00000059988125657219566580000008576994474512059264_" d="M71.353,279.855c-2.446,0.456-4.884-1.535-5.43-4.433
						c-0.544-2.899,1.002-5.632,3.451-6.087l58.137-10.836c2.448-0.455,4.886,1.534,5.431,4.433c0.547,2.9-1.003,5.632-3.452,6.087
						L71.353,279.855z"/>
				</defs>
				<clipPath id="SVGID_00000079464236690248148930000018221418710241957773_">
					<use xlink:href="#SVGID_00000059988125657219566580000008576994474512059264_"  style="overflow:visible;"/>
				</clipPath>
				<g style="clip-path:url(#SVGID_00000079464236690248148930000018221418710241957773_);">
					<polygon style="fill:#E9B521;" points="68.556,280.622 67.038,280.906 64.948,269.809 66.469,269.526 					"/>
					<polygon style="fill:#E9B521;" points="73.239,279.748 71.718,280.031 69.632,268.938 71.152,268.655 					"/>
					<polygon style="fill:#E9B521;" points="77.92,278.875 76.399,279.16 74.311,268.066 75.834,267.782 					"/>
					<polygon style="fill:#E9B521;" points="82.602,278.004 81.083,278.288 78.994,267.192 80.515,266.911 					"/>
					
						<rect x="84.708" y="266.081" transform="matrix(0.9829 -0.184 0.184 0.9829 -48.541 20.3694)" style="fill:#E9B521;" width="1.546" height="11.289"/>
					<polygon style="fill:#E9B521;" points="91.966,276.258 90.445,276.542 88.359,265.448 89.877,265.165 					"/>
					
						<rect x="94.071" y="264.335" transform="matrix(0.9829 -0.1839 0.1839 0.9829 -48.0274 22.0439)" style="fill:#E9B521;" width="1.548" height="11.29"/>
					
						<rect x="98.753" y="263.464" transform="matrix(0.9829 -0.184 0.184 0.9829 -47.8197 22.9091)" style="fill:#E9B521;" width="1.546" height="11.29"/>
					
						<rect x="103.434" y="262.592" transform="matrix(0.9829 -0.184 0.184 0.9829 -47.5663 23.7478)" style="fill:#E9B521;" width="1.546" height="11.288"/>
					<polygon style="fill:#E9B521;" points="110.694,272.768 109.173,273.052 107.085,261.957 108.605,261.675 					"/>
					<polygon style="fill:#E9B521;" points="115.376,271.897 113.855,272.18 111.766,261.084 113.288,260.802 					"/>
					<polygon style="fill:#E9B521;" points="120.057,271.023 118.536,271.308 116.448,260.212 117.97,259.93 					"/>
					<polygon style="fill:#E9B521;" points="124.74,270.151 123.22,270.435 121.131,259.339 122.651,259.057 					"/>
					<polygon style="fill:#E9B521;" points="129.421,269.279 127.899,269.562 125.812,258.467 127.333,258.184 					"/>
					
						<rect x="131.525" y="257.356" transform="matrix(0.9828 -0.1845 0.1845 0.9828 -46.2569 28.9274)" style="fill:#E9B521;" width="1.546" height="11.29"/>
				</g>
			</g>
		</g>
		<g>
			<path style="fill:#E9B521;" d="M138.002,234.169c-0.69,2.749-3.488,4.423-6.251,3.737l0,0c-2.762-0.686-4.444-3.472-3.755-6.221
				l1.133-4.522c0.69-2.75,3.489-4.423,6.252-3.737l0,0c2.763,0.685,4.443,3.472,3.754,6.221L138.002,234.169z"/>
			<path style="fill:#E9B521;" d="M75.97,218.763c-0.689,2.75-3.489,4.423-6.252,3.736l0,0c-2.764-0.685-4.443-3.472-3.753-6.221
				l1.133-4.522c0.69-2.75,3.488-4.423,6.25-3.736l0,0c2.764,0.686,4.445,3.471,3.755,6.22L75.97,218.763z"/>
			<path style="fill:#E9B521;" d="M138.049,231.78c-1.003,3.998-4.33,6.616-7.433,5.844l-59.878-14.87
				c-3.101-0.772-4.805-4.639-3.803-8.637l0,0c1.004-3.998,4.33-6.615,7.433-5.844l59.878,14.872
				C137.35,223.915,139.051,227.782,138.049,231.78L138.049,231.78z"/>
			<path style="fill:#FFF34D;" d="M136.756,231.458c-0.858,3.417-3.961,5.588-6.935,4.85l-57.388-14.253
				c-2.972-0.74-4.688-4.108-3.831-7.524l0,0c0.858-3.417,3.961-5.589,6.935-4.851l57.388,14.254
				C135.898,224.672,137.613,228.041,136.756,231.458L136.756,231.458z"/>
			<g>
				<defs>
					<path id="SVGID_00000143609409347480046640000002230905190436791180_" d="M72.684,221.06c-2.417-0.6-3.798-3.419-3.081-6.281
						c0.719-2.861,3.267-4.704,5.685-4.104l57.387,14.253c2.417,0.601,3.799,3.419,3.082,6.281
						c-0.717,2.864-3.269,4.704-5.684,4.104L72.684,221.06z"/>
				</defs>
				<clipPath id="SVGID_00000001647663063356249580000008092128118049919414_">
					<use xlink:href="#SVGID_00000143609409347480046640000002230905190436791180_"  style="overflow:visible;"/>
				</clipPath>
				<g style="clip-path:url(#SVGID_00000001647663063356249580000008092128118049919414_);">
					<polygon style="fill:#E9B521;" points="69.82,220.598 68.32,220.225 71.066,209.272 72.567,209.646 					"/>
					<polygon style="fill:#E9B521;" points="74.442,221.745 72.941,221.372 75.688,210.422 77.189,210.794 					"/>
					<polygon style="fill:#E9B521;" points="79.062,222.892 77.561,222.519 80.308,211.569 81.809,211.942 					"/>
					
						<rect x="78.663" y="217.606" transform="matrix(0.2407 -0.9706 0.9706 0.2407 -147.9438 247.6431)" style="fill:#E9B521;" width="11.29" height="1.546"/>
					<polygon style="fill:#E9B521;" points="88.307,225.189 86.805,224.816 89.551,213.865 91.051,214.238 					"/>
					<polygon style="fill:#E9B521;" points="92.928,226.336 91.427,225.964 94.173,215.013 95.671,215.385 					"/>
					<polygon style="fill:#E9B521;" points="97.551,227.485 96.049,227.111 98.796,216.16 100.296,216.533 					"/>
					
						<rect x="97.147" y="222.198" transform="matrix(0.2413 -0.9704 0.9704 0.2413 -138.3944 268.9192)" style="fill:#E9B521;" width="11.291" height="1.546"/>
					<polygon style="fill:#E9B521;" points="106.792,229.78 105.292,229.408 108.037,218.457 109.539,218.83 					"/>
					<polygon style="fill:#E9B521;" points="111.413,230.928 109.912,230.555 112.659,219.603 114.159,219.977 					"/>
					<polygon style="fill:#E9B521;" points="116.034,232.076 114.534,231.704 117.28,220.752 118.782,221.124 					"/>
					<polygon style="fill:#E9B521;" points="120.656,233.223 119.155,232.852 121.902,221.899 123.404,222.273 					"/>
					<polygon style="fill:#E9B521;" points="125.279,234.373 123.778,233.999 126.524,223.047 128.025,223.421 					"/>
					<polygon style="fill:#E9B521;" points="129.9,235.52 128.399,235.147 131.144,224.195 132.646,224.568 					"/>
					<polygon style="fill:#E9B521;" points="134.52,236.666 133.02,236.295 135.766,225.342 137.266,225.716 					"/>
				</g>
			</g>
		</g>
		<g>
			<path style="fill:#FFF34D;" d="M148.95,392.629c-0.71,21.116-18.402,37.656-39.517,36.941
				c-21.111-0.709-37.652-18.402-36.942-39.516c0.712-21.115,18.407-37.65,39.517-36.942
				C133.124,353.827,149.662,371.52,148.95,392.629z"/>
			<path style="fill:#E5A724;" d="M144.403,392.477c-0.627,18.605-16.215,33.174-34.816,32.55
				c-18.603-0.628-33.174-16.218-32.546-34.818c0.625-18.607,16.211-33.174,34.817-32.551
				C130.458,358.287,145.031,373.877,144.403,392.477z"/>
			<path style="fill:#FFCF01;" d="M142.57,392.417c-0.592,17.591-15.332,31.371-32.921,30.777
				c-17.592-0.593-31.373-15.334-30.779-32.924c0.592-17.593,15.334-31.373,32.923-30.778
				C129.383,360.085,143.166,374.825,142.57,392.417z"/>
			<g>
				<path style="fill:#E5A724;" d="M125.024,381.367c-0.185-0.191-0.422-0.298-0.719-0.307l-5.422-0.182
					c-0.3-1.764-0.925-3.31-1.877-4.635l7.39,0.252c0.296,0.008,0.543-0.08,0.738-0.261c0.198-0.186,0.3-0.424,0.308-0.722
					l0.11-3.234c0.013-0.296-0.078-0.54-0.258-0.738c-0.185-0.198-0.427-0.302-0.718-0.312l-26.384-0.885
					c-0.295-0.013-0.542,0.075-0.738,0.261c-0.195,0.181-0.299,0.421-0.309,0.716l-0.143,4.217c-0.01,0.275,0.084,0.516,0.275,0.724
					c0.195,0.208,0.43,0.315,0.703,0.324l4.599,0.154c4.46,0.151,7.25,1.44,8.375,3.871l-13.096-0.443
					c-0.292-0.009-0.539,0.079-0.737,0.264c-0.198,0.184-0.298,0.421-0.309,0.718l-0.11,3.234c-0.01,0.297,0.076,0.542,0.264,0.738
					c0.18,0.198,0.421,0.301,0.719,0.309l13.54,0.458c-0.527,1.715-1.655,3-3.387,3.854c-1.733,0.851-3.992,1.229-6.783,1.133
					l-3.549-0.118c-0.278-0.008-0.517,0.086-0.727,0.276c-0.206,0.195-0.317,0.429-0.325,0.703l-0.135,4.028
					c-0.01,0.276,0.08,0.51,0.259,0.708c3.917,4.448,8.974,10.658,15.184,18.637c0.183,0.259,0.442,0.394,0.781,0.406l6.183,0.209
					c0.442,0.016,0.757-0.163,0.936-0.536c0.224-0.378,0.196-0.738-0.09-1.086c-5.915-7.775-10.579-13.601-13.981-17.485
					c3.609-0.303,6.562-1.366,8.869-3.192c2.308-1.825,3.751-4.255,4.342-7.284l5.328,0.182c0.294,0.009,0.541-0.077,0.735-0.263
					c0.197-0.181,0.302-0.423,0.313-0.718l0.11-3.234C125.295,381.812,125.206,381.565,125.024,381.367z"/>
			</g>
		</g>
		<g>
			<path style="fill:#FFF34D;" d="M430.523,324.815c-0.71,21.116-18.403,37.656-39.517,36.941
				c-21.112-0.709-37.652-18.402-36.942-39.516c0.712-21.115,18.407-37.65,39.517-36.942
				C414.697,286.014,431.236,303.707,430.523,324.815z"/>
			<path style="fill:#E5A724;" d="M425.977,324.664c-0.627,18.605-16.215,33.174-34.817,32.55
				c-18.603-0.628-33.174-16.218-32.546-34.817c0.625-18.607,16.211-33.174,34.817-32.551
				C412.031,290.474,426.604,306.064,425.977,324.664z"/>
			<path style="fill:#FFCF01;" d="M424.143,324.604c-0.592,17.591-15.332,31.371-32.921,30.777
				c-17.592-0.593-31.373-15.334-30.779-32.924c0.592-17.593,15.334-31.373,32.923-30.778
				C410.956,292.271,424.74,307.012,424.143,324.604z"/>
			<g>
				<path style="fill:#E5A724;" d="M406.598,313.554c-0.185-0.191-0.422-0.298-0.719-0.307l-5.423-0.182
					c-0.299-1.764-0.925-3.31-1.877-4.635l7.39,0.252c0.296,0.008,0.543-0.08,0.738-0.261c0.198-0.186,0.3-0.424,0.308-0.722
					l0.11-3.234c0.013-0.296-0.078-0.54-0.258-0.738c-0.185-0.198-0.427-0.302-0.718-0.312l-26.384-0.885
					c-0.295-0.013-0.542,0.075-0.738,0.261c-0.195,0.181-0.299,0.421-0.309,0.716l-0.143,4.217c-0.01,0.275,0.084,0.516,0.275,0.724
					c0.195,0.208,0.43,0.315,0.704,0.325l4.599,0.154c4.46,0.151,7.25,1.44,8.375,3.871l-13.096-0.443
					c-0.292-0.009-0.54,0.079-0.737,0.264c-0.198,0.184-0.298,0.421-0.309,0.718l-0.11,3.234c-0.01,0.297,0.076,0.542,0.264,0.738
					c0.18,0.198,0.421,0.301,0.719,0.309l13.54,0.458c-0.527,1.715-1.655,3-3.387,3.854c-1.733,0.851-3.992,1.229-6.783,1.133
					l-3.549-0.118c-0.278-0.008-0.517,0.086-0.727,0.276c-0.206,0.195-0.317,0.429-0.325,0.704l-0.135,4.028
					c-0.01,0.275,0.08,0.51,0.259,0.708c3.917,4.448,8.975,10.659,15.184,18.637c0.183,0.259,0.442,0.394,0.781,0.406l6.183,0.209
					c0.442,0.016,0.757-0.163,0.936-0.536c0.224-0.378,0.196-0.738-0.09-1.086c-5.915-7.776-10.579-13.601-13.981-17.485
					c3.609-0.302,6.562-1.366,8.869-3.192c2.308-1.825,3.751-4.255,4.342-7.284l5.328,0.182c0.294,0.009,0.541-0.077,0.735-0.263
					c0.197-0.181,0.302-0.423,0.313-0.718l0.11-3.234C406.868,313.999,406.779,313.752,406.598,313.554z"/>
			</g>
		</g>
		<g>
			<path style="fill:#FFF34D;" d="M352.831,399.432c-0.71,21.116-18.402,37.656-39.517,36.941
				c-21.112-0.709-37.652-18.402-36.942-39.516c0.712-21.115,18.407-37.65,39.517-36.942
				C337.004,360.63,353.543,378.323,352.831,399.432z"/>
			<path style="fill:#E5A724;" d="M348.284,399.28c-0.627,18.605-16.215,33.174-34.817,32.55
				c-18.603-0.628-33.174-16.218-32.546-34.818c0.625-18.607,16.211-33.174,34.817-32.551
				C334.339,365.091,348.911,380.681,348.284,399.28z"/>
			<path style="fill:#FFCF01;" d="M346.451,399.22c-0.592,17.591-15.332,31.371-32.921,30.777
				c-17.592-0.593-31.373-15.334-30.779-32.923c0.592-17.593,15.334-31.373,32.923-30.778
				C333.263,366.888,347.047,381.629,346.451,399.22z"/>
			<g>
				<path style="fill:#E5A724;" d="M328.905,388.17c-0.185-0.191-0.422-0.298-0.719-0.307l-5.422-0.183
					c-0.3-1.764-0.925-3.31-1.877-4.635l7.39,0.252c0.296,0.008,0.543-0.08,0.738-0.261c0.198-0.186,0.3-0.424,0.308-0.722
					l0.11-3.234c0.013-0.296-0.078-0.54-0.258-0.738c-0.186-0.198-0.427-0.302-0.718-0.312l-26.384-0.885
					c-0.294-0.013-0.542,0.075-0.738,0.261c-0.195,0.181-0.299,0.421-0.309,0.716l-0.143,4.217c-0.01,0.275,0.084,0.516,0.275,0.724
					c0.195,0.208,0.43,0.315,0.703,0.324l4.599,0.154c4.46,0.151,7.25,1.44,8.375,3.87l-13.096-0.443
					c-0.292-0.009-0.539,0.079-0.737,0.264c-0.198,0.184-0.298,0.421-0.309,0.718l-0.11,3.234c-0.01,0.297,0.076,0.542,0.264,0.738
					c0.18,0.198,0.421,0.301,0.719,0.309l13.54,0.458c-0.527,1.715-1.655,3-3.387,3.854c-1.733,0.851-3.992,1.229-6.783,1.133
					l-3.549-0.118c-0.278-0.008-0.517,0.086-0.727,0.276c-0.206,0.195-0.317,0.429-0.325,0.703l-0.135,4.028
					c-0.01,0.276,0.08,0.51,0.259,0.708c3.917,4.448,8.975,10.659,15.184,18.637c0.183,0.259,0.442,0.394,0.781,0.406l6.183,0.209
					c0.442,0.016,0.757-0.163,0.936-0.536c0.224-0.378,0.196-0.738-0.09-1.086c-5.915-7.775-10.579-13.601-13.981-17.485
					c3.609-0.303,6.562-1.366,8.869-3.192c2.308-1.825,3.751-4.255,4.342-7.284l5.328,0.182c0.294,0.009,0.541-0.077,0.735-0.263
					c0.197-0.181,0.302-0.423,0.313-0.718l0.11-3.234C329.176,388.616,329.087,388.369,328.905,388.17z"/>
			</g>
		</g>
		<path style="fill:#7ADCED;" d="M235.366,88.393l-6.651-2.422c-0.119-0.043-0.212-0.137-0.256-0.256l-2.422-6.651
			c-0.137-0.376-0.668-0.376-0.805,0l-2.422,6.651c-0.043,0.119-0.137,0.212-0.256,0.256l-6.651,2.422
			c-0.375,0.137-0.375,0.668,0,0.805l6.651,2.422c0.119,0.043,0.212,0.137,0.256,0.256l2.422,6.651c0.137,0.375,0.668,0.375,0.805,0
			l2.422-6.651c0.043-0.119,0.137-0.213,0.256-0.256l6.651-2.422C235.742,89.061,235.742,88.53,235.366,88.393z"/>
		<path style="fill:#7ADCED;" d="M408.843,127.03l-7.61-2.771c-0.136-0.05-0.243-0.157-0.293-0.293l-2.771-7.61
			c-0.156-0.43-0.764-0.43-0.921,0l-2.771,7.61c-0.05,0.136-0.157,0.243-0.293,0.293l-7.61,2.771c-0.43,0.156-0.43,0.764,0,0.921
			l7.61,2.771c0.136,0.05,0.243,0.157,0.293,0.293l2.771,7.61c0.156,0.43,0.764,0.43,0.921,0l2.771-7.61
			c0.049-0.136,0.157-0.243,0.293-0.293l7.61-2.771C409.272,127.795,409.272,127.187,408.843,127.03z"/>
		<path style="fill:#7ADCED;" d="M462.102,341.612l-7.487-2.727c-0.134-0.049-0.239-0.154-0.288-0.288l-2.727-7.487
			c-0.154-0.423-0.752-0.423-0.906,0l-2.727,7.487c-0.049,0.134-0.154,0.239-0.288,0.288l-7.487,2.727
			c-0.423,0.154-0.423,0.752,0,0.906l7.487,2.727c0.134,0.049,0.239,0.154,0.288,0.288l2.727,7.487c0.154,0.423,0.752,0.423,0.906,0
			l2.727-7.487c0.049-0.134,0.154-0.239,0.288-0.288l7.487-2.727C462.524,342.364,462.524,341.766,462.102,341.612z"/>
		<path style="fill:#7ADCED;" d="M107.273,151.311l-7.487-2.727c-0.134-0.049-0.239-0.154-0.288-0.288l-2.727-7.487
			c-0.154-0.423-0.752-0.423-0.906,0l-2.727,7.487c-0.049,0.134-0.154,0.239-0.288,0.288l-7.487,2.727
			c-0.423,0.154-0.423,0.752,0,0.906l7.487,2.727c0.134,0.049,0.239,0.154,0.288,0.288l2.727,7.487c0.154,0.423,0.752,0.423,0.906,0
			l2.727-7.487c0.049-0.134,0.154-0.239,0.288-0.288l7.487-2.727C107.696,152.063,107.696,151.465,107.273,151.311z"/>
		<path style="fill:#7ADCED;" d="M85.585,339.648l-7.155-2.606c-0.128-0.047-0.229-0.147-0.275-0.275l-2.606-7.155
			c-0.147-0.404-0.719-0.404-0.866,0l-2.606,7.155c-0.047,0.128-0.147,0.229-0.275,0.275l-7.155,2.606
			c-0.404,0.147-0.404,0.719,0,0.866l7.155,2.606c0.128,0.047,0.229,0.147,0.275,0.275l2.606,7.155c0.147,0.404,0.718,0.404,0.866,0
			l2.606-7.155c0.047-0.128,0.147-0.229,0.275-0.275l7.155-2.606C85.989,340.367,85.989,339.795,85.585,339.648z"/>
		<g>
			<path style="fill:#7ADCED;" d="M441.193,296.469c-5.447,0-9.878-4.431-9.878-9.878c0-5.447,4.431-9.878,9.878-9.878
				c5.447,0,9.878,4.431,9.878,9.878C451.071,292.037,446.64,296.469,441.193,296.469z M441.193,279.764
				c-3.764,0-6.826,3.062-6.826,6.826c0,3.764,3.062,6.826,6.826,6.826c3.764,0,6.827-3.062,6.827-6.826
				C448.02,282.827,444.958,279.764,441.193,279.764z"/>
		</g>
		<g>
			<path style="fill:#7ADCED;" d="M78.851,190.003c-5.446,0-9.878-4.431-9.878-9.878c0-5.446,4.431-9.878,9.878-9.878
				c5.447,0,9.878,4.431,9.878,9.878C88.729,185.572,84.298,190.003,78.851,190.003z M78.851,173.299
				c-3.764,0-6.826,3.062-6.826,6.826c0,3.764,3.062,6.827,6.826,6.827c3.764,0,6.826-3.062,6.826-6.827
				C85.678,176.361,82.615,173.299,78.851,173.299z"/>
		</g>
		<g>
			<path style="fill:#7ADCED;" d="M341.549,88.796c-5.447,0-9.878-4.431-9.878-9.878c0-5.447,4.431-9.878,9.878-9.878
				c5.447,0,9.878,4.431,9.878,9.878C351.427,84.364,346.995,88.796,341.549,88.796z M341.549,72.091
				c-3.764,0-6.826,3.062-6.826,6.826c0,3.764,3.062,6.826,6.826,6.826c3.764,0,6.827-3.062,6.827-6.826
				C348.375,75.154,345.313,72.091,341.549,72.091z"/>
		</g>
		<g>
			<path style="fill:#7ADCED;" d="M65.81,256.153c-5.447,0-9.878-4.431-9.878-9.878c0-5.447,4.431-9.878,9.878-9.878
				c5.447,0,9.878,4.431,9.878,9.878C75.688,251.721,71.257,256.153,65.81,256.153z M65.81,239.448
				c-3.764,0-6.826,3.062-6.826,6.826c0,3.764,3.062,6.827,6.826,6.827c3.764,0,6.826-3.062,6.826-6.827
				C72.637,242.511,69.575,239.448,65.81,239.448z"/>
		</g>
		<g>
			<path style="fill:#7ADCED;" d="M195.786,85.36c-5.447,0-9.878-4.431-9.878-9.878c0-5.447,4.431-9.878,9.878-9.878
				c5.447,0,9.878,4.431,9.878,9.878C205.664,80.929,201.232,85.36,195.786,85.36z M195.786,68.656
				c-3.764,0-6.826,3.062-6.826,6.826c0,3.764,3.062,6.826,6.826,6.826c3.764,0,6.826-3.062,6.826-6.826
				C202.612,71.718,199.55,68.656,195.786,68.656z"/>
		</g>
	</g>
</g>
<g id="DESIGNED_BY_FREEPIK">
	<g>
		<g id="XMLID_319_">
			<g id="XMLID_338_">
				<path id="XMLID_346_" style="fill:#1C1C1B;" d="M260.104,470.394c-0.432,0.443-0.803,0.931-1.108,1.453l-0.465-0.241
					c-0.067-0.298-0.349-0.503-0.659-0.466c-0.331,0.039-0.568,0.339-0.529,0.67c0.039,0.331,0.339,0.568,0.67,0.529
					c0.066-0.008,0.127-0.026,0.184-0.052l0.451,0.234c-0.251,0.554-0.433,1.139-0.539,1.744l0.747,0.132
					c0.23-1.306,0.85-2.507,1.792-3.473L260.104,470.394z"/>
				<path id="XMLID_345_" style="fill:#1C1C1B;" d="M265.592,468.092c-0.171,0-0.341,0.006-0.51,0.017l-0.074-0.626
					c0.188-0.149,0.296-0.389,0.266-0.645c-0.046-0.393-0.402-0.674-0.795-0.628c-0.393,0.046-0.674,0.402-0.628,0.795
					c0.03,0.254,0.189,0.461,0.404,0.564l0.074,0.624c-0.714,0.116-1.403,0.332-2.06,0.646l0.327,0.684
					c0.934-0.447,1.942-0.673,2.995-0.673c0.496,0,0.993,0.053,1.475,0.158l0.161-0.741
					C266.692,468.151,266.142,468.092,265.592,468.092z"/>
				<path id="XMLID_344_" style="fill:#1C1C1B;" d="M272.194,470.639c0.331-0.04,0.566-0.341,0.526-0.672
					c-0.04-0.331-0.341-0.566-0.672-0.526c-0.309,0.038-0.535,0.304-0.53,0.609l-0.416,0.363c-0.418-0.43-0.889-0.813-1.408-1.139
					l-0.404,0.641c1.134,0.715,2.021,1.726,2.563,2.925l0.69-0.313c-0.251-0.554-0.567-1.072-0.942-1.545l0.402-0.351
					C272.065,470.644,272.129,470.647,272.194,470.639z"/>
				<path id="XMLID_343_" style="fill:#1C1C1B;" d="M265.044,478.3c-0.386,0.023-0.775,0.035-1.157,0.035
					c-0.88,0-1.733-0.061-2.478-0.179c-0.39-0.062-0.846-0.155-1.27-0.292c1.046,1.861,3.069,3.125,5.388,3.125
					c2.855,0,5.262-1.916,5.95-4.504c-0.682,0.449-1.505,0.825-2.459,1.123C267.839,477.976,266.463,478.215,265.044,478.3z"/>
				<path id="XMLID_339_" style="fill:#1C1C1B;" d="M265.592,469.608c-3.352,0-6.08,2.666-6.08,5.944
					c0,0.426,0.046,0.849,0.137,1.261c0.673,0.483,2.706,0.89,5.348,0.731c2.879-0.173,5.297-0.957,6.672-2.159
					c-0.006-0.195-0.021-0.39-0.045-0.582C271.244,471.842,268.65,469.608,265.592,469.608z M263.432,476.123
					c-1.02,0-1.85-0.83-1.85-1.85c0-1.02,0.83-1.85,1.85-1.85c1.02,0,1.85,0.83,1.85,1.85
					C265.282,475.293,264.452,476.123,263.432,476.123z M268.17,475.215c-0.75,0-1.36-0.61-1.36-1.36c0-0.75,0.61-1.361,1.36-1.361
					c0.75,0,1.361,0.61,1.361,1.361C269.53,474.605,268.92,475.215,268.17,475.215z"/>
			</g>
			<path id="XMLID_336_" style="fill:#1C1C1B;" d="M281.595,471.475c-0.295-0.116-0.805-0.309-1.382-0.237
				c-0.551,0.068-0.844,0.34-0.844,1.007v0.866h2.228v1.717h-2.228v5.455h-1.932v-5.455h-1.34v-1.717h1.34v-0.888
				c0-1.68,0.896-2.783,2.568-2.783c0.643,0,1.157,0.122,1.59,0.308L281.595,471.475z"/>
			<path id="XMLID_334_" style="fill:#1C1C1B;" d="M286.298,474.807c-0.177-0.03-0.358-0.046-0.526-0.046
				c-0.896,0-1.51,0.548-1.51,1.613v3.908h-1.932v-7.172h1.873v0.785c0.451-0.674,1.14-0.977,2.021-0.977
				c0.414,0,0.848,0.128,1.094,0.337L286.298,474.807z"/>
			<path id="XMLID_331_" style="fill:#1C1C1B;" d="M293.965,476.685c0,0.222-0.015,0.489-0.037,0.651h-5.085
				c0.207,1.036,0.933,1.488,1.843,1.488c0.622,0,1.295-0.252,1.813-0.688l1.133,1.243c-0.814,0.748-1.85,1.088-3.057,1.088
				c-2.198,0-3.723-1.495-3.723-3.753c0-2.257,1.48-3.797,3.627-3.797C292.544,472.918,293.958,474.45,293.965,476.685z
				 M288.851,476.019h3.175c-0.177-0.918-0.733-1.436-1.562-1.436C289.554,474.583,289.021,475.131,288.851,476.019z"/>
			<path id="XMLID_328_" style="fill:#1C1C1B;" d="M301.618,476.685c0,0.222-0.015,0.489-0.037,0.651h-5.085
				c0.207,1.036,0.933,1.488,1.843,1.488c0.622,0,1.295-0.252,1.814-0.688l1.132,1.243c-0.814,0.748-1.85,1.088-3.057,1.088
				c-2.198,0-3.723-1.495-3.723-3.753c0-2.257,1.48-3.797,3.627-3.797C300.197,472.918,301.611,474.45,301.618,476.685z
				 M296.504,476.019h3.175c-0.178-0.918-0.733-1.436-1.562-1.436C297.207,474.583,296.674,475.131,296.504,476.019z"/>
			<path id="XMLID_325_" style="fill:#1C1C1B;" d="M309.964,476.693c0,2.154-1.495,3.775-3.471,3.775
				c-0.962,0-1.643-0.378-2.109-0.933v3.708h-1.924v-10.133h1.887v0.792c0.466-0.585,1.155-0.984,2.139-0.984
				C308.469,472.918,309.964,474.539,309.964,476.693z M304.287,476.693c0,1.132,0.748,1.976,1.843,1.976
				c1.14,0,1.85-0.881,1.85-1.976c0-1.095-0.71-1.976-1.85-1.976C305.035,474.717,304.287,475.56,304.287,476.693z"/>
			<path id="XMLID_322_" style="fill:#1C1C1B;" d="M313.068,470.764c0,0.696-0.54,1.229-1.236,1.229
				c-0.696,0-1.229-0.533-1.229-1.229c0-0.696,0.533-1.243,1.229-1.243C312.527,469.521,313.068,470.069,313.068,470.764z
				 M312.809,480.283h-1.932v-7.172h1.932V480.283z"/>
			<path id="XMLID_320_" style="fill:#1C1C1B;" d="M316.032,475.664l2.701-2.554h2.368l-3.479,3.375l3.501,3.797h-2.376
				l-2.716-2.901v2.901H314.1v-10.658h1.932V475.664z"/>
		</g>
		<g>
			<path style="fill:#1C1C1B;" d="M184.412,480.217v-1.055c-0.527,0.718-1.391,1.23-2.387,1.23c-1.846,0-3.149-1.406-3.149-3.706
				c0-2.256,1.289-3.721,3.149-3.721c0.952,0,1.816,0.469,2.387,1.245v-3.765h1.099v9.77H184.412z M184.412,478.299v-3.208
				c-0.395-0.615-1.245-1.143-2.124-1.143c-1.421,0-2.27,1.172-2.27,2.739c0,1.567,0.85,2.724,2.27,2.724
				C183.168,479.412,184.017,478.914,184.412,478.299z"/>
			<path style="fill:#1C1C1B;" d="M186.932,476.673c0-2.051,1.465-3.706,3.486-3.706c2.139,0,3.398,1.67,3.398,3.794v0.279h-5.727
				c0.088,1.333,1.025,2.446,2.549,2.446c0.805,0,1.626-0.322,2.182-0.893l0.527,0.718c-0.703,0.703-1.655,1.084-2.812,1.084
				C188.44,480.393,186.932,478.885,186.932,476.673z M190.403,473.875c-1.509,0-2.256,1.274-2.314,2.358h4.643
				C192.718,475.179,192.015,473.875,190.403,473.875z"/>
			<path style="fill:#1C1C1B;" d="M194.607,479.28l0.571-0.791c0.469,0.542,1.362,1.011,2.329,1.011c1.084,0,1.67-0.513,1.67-1.216
				c0-1.714-4.38-0.659-4.38-3.281c0-1.098,0.952-2.036,2.636-2.036c1.201,0,2.051,0.454,2.622,1.026l-0.513,0.762
				c-0.424-0.513-1.201-0.894-2.109-0.894c-0.967,0-1.567,0.483-1.567,1.113c0,1.553,4.38,0.527,4.38,3.281
				c0,1.187-0.952,2.139-2.783,2.139C196.306,480.393,195.325,480.042,194.607,479.28z"/>
			<path style="fill:#1C1C1B;" d="M201.477,471.4c0-0.41,0.337-0.747,0.732-0.747c0.41,0,0.747,0.337,0.747,0.747
				c0,0.41-0.337,0.732-0.747,0.732C201.814,472.132,201.477,471.81,201.477,471.4z M201.667,480.217v-7.075h1.099v7.075H201.667z"
				/>
			<path style="fill:#1C1C1B;" d="M204.582,482.034l0.556-0.82c0.586,0.703,1.289,0.967,2.3,0.967c1.172,0,2.27-0.571,2.27-2.124
				v-1.011c-0.513,0.718-1.377,1.26-2.373,1.26c-1.845,0-3.149-1.377-3.149-3.662c0-2.27,1.289-3.677,3.149-3.677
				c0.952,0,1.802,0.469,2.373,1.245v-1.069h1.098v6.87c0,2.344-1.641,3.076-3.369,3.076
				C206.237,483.089,205.417,482.854,204.582,482.034z M209.709,478.182v-3.091c-0.381-0.615-1.23-1.143-2.109-1.143
				c-1.421,0-2.27,1.128-2.27,2.695c0,1.553,0.849,2.695,2.27,2.695C208.478,479.339,209.328,478.797,209.709,478.182z"/>
			<path style="fill:#1C1C1B;" d="M217.413,480.217v-4.629c0-1.245-0.63-1.641-1.582-1.641c-0.865,0-1.685,0.527-2.095,1.099v5.17
				h-1.099v-7.075h1.099v1.025c0.498-0.586,1.464-1.201,2.519-1.201c1.48,0,2.256,0.747,2.256,2.285v4.966H217.413z"/>
			<path style="fill:#1C1C1B;" d="M219.932,476.673c0-2.051,1.465-3.706,3.486-3.706c2.139,0,3.398,1.67,3.398,3.794v0.279h-5.727
				c0.088,1.333,1.025,2.446,2.549,2.446c0.806,0,1.626-0.322,2.183-0.893l0.527,0.718c-0.703,0.703-1.655,1.084-2.812,1.084
				C221.441,480.393,219.932,478.885,219.932,476.673z M223.404,473.875c-1.509,0-2.256,1.274-2.314,2.358h4.643
				C225.718,475.179,225.015,473.875,223.404,473.875z"/>
			<path style="fill:#1C1C1B;" d="M233.35,480.217v-1.055c-0.527,0.718-1.392,1.23-2.388,1.23c-1.846,0-3.149-1.406-3.149-3.706
				c0-2.256,1.289-3.721,3.149-3.721c0.952,0,1.817,0.469,2.388,1.245v-3.765h1.098v9.77H233.35z M233.35,478.299v-3.208
				c-0.396-0.615-1.245-1.143-2.124-1.143c-1.421,0-2.27,1.172-2.27,2.739c0,1.567,0.849,2.724,2.27,2.724
				C232.105,479.412,232.954,478.914,233.35,478.299z"/>
			<path style="fill:#1C1C1B;" d="M239.692,480.217v-9.77h1.098v3.765c0.572-0.776,1.421-1.245,2.388-1.245
				c1.845,0,3.149,1.465,3.149,3.721c0,2.299-1.304,3.706-3.149,3.706c-0.996,0-1.86-0.513-2.388-1.23v1.055H239.692z
				 M242.9,479.412c1.436,0,2.285-1.157,2.285-2.724c0-1.568-0.85-2.739-2.285-2.739c-0.864,0-1.728,0.527-2.109,1.143v3.208
				C241.171,478.914,242.036,479.412,242.9,479.412z"/>
			<path style="fill:#1C1C1B;" d="M247.528,481.99c0.161,0.073,0.425,0.117,0.601,0.117c0.483,0,0.805-0.161,1.055-0.747
				l0.469-1.069l-2.959-7.148h1.187l2.358,5.801l2.344-5.801h1.201l-3.545,8.51c-0.425,1.025-1.143,1.421-2.08,1.435
				c-0.234,0-0.601-0.044-0.805-0.103L247.528,481.99z"/>
		</g>
	</g>
</g>
</svg>
