<?xml version="1.0" encoding="utf-8"?>
<!-- Generator: Adobe Illustrator 27.5.0, SVG Export Plug-In . SVG Version: 6.00 Build 0)  -->
<svg version="1.1" xmlns="http://www.w3.org/2000/svg" xmlns:xlink="http://www.w3.org/1999/xlink" x="0px" y="0px"
	 viewBox="0 0 500 500" style="enable-background:new 0 0 500 500;" xml:space="preserve">
<g id="Background_Simple">
	<g>
		<path style="fill:#C6FF00;" d="M393.847,75.463c0,0-50.049-40.875-115.152-22.755c-65.103,18.12-92.35,74.207-129.688,112.761
			c-19.553,20.19-48.431,27.633-71.659,43.173c-74.27,49.691-63.276,161.404-6.002,203.553
			c49.582,36.489,111.534,40.306,192.156,13.392c80.621-26.914,138.316-43.075,188.315-120.15
			C501.815,228.362,455.503,130.944,393.847,75.463z"/>
		<path style="opacity:0.7;fill:#FFFFFF;" d="M393.847,75.463c0,0-50.049-40.875-115.152-22.755
			c-65.103,18.12-92.35,74.207-129.688,112.761c-19.553,20.19-48.431,27.633-71.659,43.173
			c-74.27,49.691-63.276,161.404-6.002,203.553c49.582,36.489,111.534,40.306,192.156,13.392
			c80.621-26.914,138.316-43.075,188.315-120.15C501.815,228.362,455.503,130.944,393.847,75.463z"/>
	</g>
</g>
<g id="Character">
	<g>
		<g>
			<defs>
				<path id="XMLID_4_" d="M436.124,447.149c-9.452-36.753-21.579-135.923-23.929-141.093c-2.418-5.319-34.034-7.86-64.498-13.179
					c-30.464-5.319-57.059-25.628-68.18-26.595c-11.122-0.967-18.858-0.484-18.858-0.484s-123.018,28.655-141.876,29.622
					c-18.858,0.967-30.947,2.418-31.431,9.187c-0.424,5.937-8.921,115.639-9.281,142.541"/>
			</defs>
			<use xlink:href="#XMLID_4_"  style="overflow:visible;fill:#C6FF00;"/>
			<clipPath id="XMLID_00000000198801674880085290000012943620609242223277_">
				<use xlink:href="#XMLID_4_"  style="overflow:visible;"/>
			</clipPath>
			<g style="opacity:0.3;clip-path:url(#XMLID_00000000198801674880085290000012943620609242223277_);">
				<path d="M75.239,447.149h44.586c0.053-6.024-0.405-13.574,3.545-20.685c7.078-12.741,25.482-50.963,23.358-65.119
					c-2.123-14.156-13.449-19.819-9.202-12.741c4.247,7.078,7.078,25.481,0,14.156c-7.078-11.325-24.066-50.255-42.469-48.84
					c-5.17,0.398-8.608,1.969-10.88,4.022C83.572,349.227,75.531,425.355,75.239,447.149z"/>
				<path d="M409.811,447.149c-7.407-10.196-16.806-25.371-18.884-39.088c-3.539-23.358-4.247-46.716-9.91-48.132
					c-5.663-1.416-19.819,50.255-19.819,50.255l-1.416-14.156c0,0-10.617,30.436-49.547,48.84c-1.729,0.817-3.487,1.575-5.266,2.281
					H409.811z"/>
				<path d="M241.974,297.755c0,0-16.24,44.973-36.228,68.708c-19.988,23.736-73.081,83.699-73.081,83.699h35.603
					c0,0,56.216-83.075,73.081-112.432C258.214,308.374,253.217,290.884,241.974,297.755z"/>
				<path d="M374.598,317.561c0,0-23.886,14.612-26.723,33.736c-2.837,19.123,14.669,18.734,19.432,1.284
					c4.763-17.449,18.344-32.176,17.718-37.141C384.399,310.474,374.598,317.561,374.598,317.561z"/>
			</g>
			
				<path style="clip-path:url(#XMLID_00000000198801674880085290000012943620609242223277_);fill:none;stroke:#263238;stroke-linecap:round;stroke-linejoin:round;stroke-miterlimit:10;" d="
				M361.254,378.965c-1.529,5.303-2.902,11.086-2.902,14.746c0,8.253,5.078,52.055,5.078,52.055"/>
			
				<path style="clip-path:url(#XMLID_00000000198801674880085290000012943620609242223277_);fill:none;stroke:#263238;stroke-linecap:round;stroke-linejoin:round;stroke-miterlimit:10;" d="
				M365.334,366.414c0,0-0.777,2.119-1.812,5.249"/>
			
				<line style="clip-path:url(#XMLID_00000000198801674880085290000012943620609242223277_);fill:none;stroke:#263238;stroke-linecap:round;stroke-linejoin:round;stroke-miterlimit:10;" x1="358.351" y1="393.711" x2="354.542" y2="372.762"/>
			<g style="clip-path:url(#XMLID_00000000198801674880085290000012943620609242223277_);">
				<path style="fill:none;stroke:#263238;stroke-linecap:round;stroke-linejoin:round;stroke-miterlimit:10;" d="M152.795,353.256
					c0.762,3.237,1.114,7.529,0.511,13.158c-1.904,17.775-2.33,79.161-2.33,79.161"/>
				<path style="fill:none;stroke:#263238;stroke-linecap:round;stroke-linejoin:round;stroke-miterlimit:10;" d="M147.592,344.195
					c0,0,1.606,0.937,3.159,3.67"/>
				<path style="fill:none;stroke:#263238;stroke-linecap:round;stroke-linejoin:round;stroke-miterlimit:10;" d="M161.558,350.543
					c0,0,5.079,7.618,0,17.775c-5.079,10.157-9.491,24.914-9.491,24.914"/>
			</g>
			
				<use xlink:href="#XMLID_4_"  style="overflow:visible;fill:none;stroke:#263238;stroke-linecap:round;stroke-linejoin:round;stroke-miterlimit:10;"/>
		</g>
		<path style="opacity:0.3;" d="M201.231,279.238c0,0-6.37,11.325-4.247,24.066c2.123,12.741,1.416,44.593,7.786,39.638
			c6.37-4.955,16.491-19.589,22.65-19.111c6.16,0.477,34.683-7.786,34.683-7.786s24.774,13.449,35.391,17.695
			c10.617,4.247,9.202,1.416,5.663-10.617c-3.539-12.033-2.123-21.234-1.416-41.761c0.708-20.527-54.888-23.726-68.658-19.819
			C219.312,265.449,199.108,277.114,201.231,279.238z"/>
		<path style="fill:#FFFFFF;stroke:#263238;stroke-linecap:round;stroke-linejoin:round;stroke-miterlimit:10;" d="M225.36,245.973
			c0,0-20.793,4.836-25.628,14.507c-4.835,9.671,8.22,54.157,8.22,60.927c0,6.77,0.484,8.704,0.484,10.155
			c0,1.451,3.868,3.385,8.22-3.868c4.352-7.253,24.177-18.375,31.431-20.793c7.253-2.418,19.342-5.319,24.177-2.901
			c4.835,2.418,25.145,26.112,33.365,29.013c8.22,2.901,0.484-4.352,0-10.155c-0.484-5.803,11.605-20.793,3.868-46.904
			c-7.737-26.112-16.924-31.914-30.464-33.848C265.494,240.17,225.36,245.973,225.36,245.973z"/>
		<g>
			<defs>
				<path id="XMLID_3_" d="M217.623,219.861c0,0-3.385,40.134-1.934,49.322c1.451,9.187,25.628,44.97,40.135,45.937
					s40.134-38.684,40.134-48.355c0-9.671,0-41.102,0-41.102s-22.243,12.089-44.97,6.286c-22.727-5.803-31.431-11.122-31.431-11.122
					L217.623,219.861z"/>
			</defs>
			<use xlink:href="#XMLID_3_"  style="overflow:visible;fill:#CCCCCC;"/>
			<clipPath id="XMLID_00000114765647975332686350000009193055770095336096_">
				<use xlink:href="#XMLID_3_"  style="overflow:visible;"/>
			</clipPath>
			<path style="opacity:0.3;clip-path:url(#XMLID_00000114765647975332686350000009193055770095336096_);" d="M274.493,267.701
				c10.542-2.965,17.252-6.508,21.465-9.551c0-13.007,0-32.487,0-32.487s-22.243,12.089-44.97,6.286
				c-18.828-4.807-28.025-9.279-30.629-10.673c-1.023,0.401-2.009,0.81-2.951,1.228c-0.721,9.086-2.945,38.919-1.72,46.679
				c0.25,1.582,1.186,3.965,2.619,6.811c0.188-3.626,0.467-7.681,1.005-10.546c1.126-6.006,3.754-4.505,7.883-1.126
				C231.324,267.701,250.469,274.458,274.493,267.701z"/>
			
				<use xlink:href="#XMLID_3_"  style="overflow:visible;fill:none;stroke:#263238;stroke-linecap:round;stroke-linejoin:round;stroke-miterlimit:10;"/>
		</g>
		<g>
			<g>
				<path style="fill:#CCCCCC;stroke:#263238;stroke-linecap:round;stroke-linejoin:round;stroke-miterlimit:10;" d="
					M206.501,173.864c0,0-3.868-20.309-11.122-22.243c-7.253-1.934-8.22,20.793-3.868,33.848
					c4.352,13.056,15.957,19.342,18.858,12.572C213.271,191.272,206.501,173.864,206.501,173.864z"/>
				<path style="fill:none;stroke:#263238;stroke-linecap:round;stroke-linejoin:round;stroke-miterlimit:10;" d="M209.886,186.436
					c0,0-12.089-24.177-16.441-23.694c-4.352,0.484-1.451,12.089-1.451,12.089"/>
				<path style="fill:none;stroke:#263238;stroke-linecap:round;stroke-linejoin:round;stroke-miterlimit:10;" d="M204.567,177.249
					c0,0-7.253-4.835-7.253,5.803"/>
			</g>
			<g>
				<path style="fill:#CCCCCC;stroke:#263238;stroke-linecap:round;stroke-linejoin:round;stroke-miterlimit:10;" d="
					M305.678,173.864c0,0,3.868-20.309,11.122-22.243c7.253-1.934,8.22,20.793,3.868,33.848
					c-4.352,13.056-15.957,19.342-18.858,12.572S305.678,173.864,305.678,173.864z"/>
				<path style="fill:none;stroke:#263238;stroke-linecap:round;stroke-linejoin:round;stroke-miterlimit:10;" d="M302.293,186.436
					c0,0,12.089-24.177,16.441-23.694c4.352,0.484,1.451,12.089,1.451,12.089"/>
				<path style="fill:none;stroke:#263238;stroke-linecap:round;stroke-linejoin:round;stroke-miterlimit:10;" d="M307.612,177.249
					c0,0,7.253-4.835,7.253,5.803"/>
			</g>
			<g>
				<defs>
					<path id="XMLID_1_" d="M204.567,167.578c0,0,2.418,29.497,2.418,41.585s5.319,27.562,28.046,41.102
						c22.727,13.539,53.19,5.319,66.246-8.22c13.056-13.539,8.22-41.585,7.253-55.124c-0.967-13.539-0.967-28.529-0.967-35.783
						c0-7.253,0.967-31.914-6.77-44.486c-7.737-12.572-56.575-14.507-76.884-3.868c-20.309,10.638-25.628,29.98-24.178,35.783
						C201.182,144.368,204.567,167.578,204.567,167.578z"/>
				</defs>
				<use xlink:href="#XMLID_1_"  style="overflow:visible;fill:#CCCCCC;"/>
				<clipPath id="XMLID_00000164492708351975315880000011715685750310608041_">
					<use xlink:href="#XMLID_1_"  style="overflow:visible;"/>
				</clipPath>
				<path style="opacity:0.3;clip-path:url(#XMLID_00000164492708351975315880000011715685750310608041_);" d="M255.349,110.792
					c-3.024-0.605-26.985-2.67-39.138-3.058c-13.964,10.867-17.726,25.845-16.48,30.831c1.451,5.803,4.836,29.013,4.836,29.013
					s2.418,29.497,2.418,41.585c0,9.161,3.063,20.266,14.434,31c2.039-2.596,3.524-6.071,3.524-10.376
					c0-11.261,1.502-19.895-3.003-27.403c-4.505-7.508-8.634-27.778-4.88-36.412c3.754-8.634,7.132-25.151,7.883-32.658
					c0.751-7.508,3.003-6.757,14.64-1.126c11.637,5.631,22.148,0.375,22.148,0.375S259.103,111.543,255.349,110.792z"/>
				<path style="opacity:0.3;clip-path:url(#XMLID_00000164492708351975315880000011715685750310608041_);" d="M246.107,163.581
					c0,0-22.29-2.864-18.161,1.641c4.129,4.505,19.52,7.132,25.151,5.255C258.727,168.601,253.381,163.817,246.107,163.581z"/>
				<path style="opacity:0.3;clip-path:url(#XMLID_00000164492708351975315880000011715685750310608041_);" d="M271.49,151.708
					c0,0-4.129,7.508,0,7.883c4.129,0.375,6.006-7.508,15.391-4.505c9.384,3.003,7.508-4.88,1.501-7.132
					C282.376,145.702,274.493,148.33,271.49,151.708z"/>
				<path style="opacity:0.3;clip-path:url(#XMLID_00000164492708351975315880000011715685750310608041_);" d="M308.53,186.92
					c-0.967-13.539-0.967-28.529-0.967-35.783c0-7.253,0.967-31.914-6.77-44.487c-1.453-2.361-4.357-4.347-8.249-5.945
					c-2.857,0.257-12.421,1.452-12.421,1.452l-4.505,28.529c0,0,9.385-1.502,13.138-4.88c3.754-3.378,6.757-0.375,7.508,8.258
					c0.751,8.634,3.754,13.514,6.006,18.394c2.252,4.88,0.751,23.649-1.502,36.412c-2.252,12.763,3.003,14.64-1.877,28.529
					s-18.769,28.154-30.03,34.16c-4.018,2.143-3.339,3.948-0.14,5.183c13.295-1.598,25.481-7.363,32.554-14.699
					C314.333,228.505,309.497,200.459,308.53,186.92z"/>
				
					<use xlink:href="#XMLID_1_"  style="overflow:visible;fill:none;stroke:#263238;stroke-linecap:round;stroke-linejoin:round;stroke-miterlimit:10;"/>
			</g>
			
				<line style="fill:none;stroke:#263238;stroke-linecap:round;stroke-linejoin:round;stroke-miterlimit:10;" x1="235.258" y1="179.244" x2="245.817" y2="179.244"/>
			
				<line style="fill:none;stroke:#263238;stroke-linecap:round;stroke-linejoin:round;stroke-miterlimit:10;" x1="280.136" y1="180.564" x2="292.675" y2="179.244"/>
			<path style="fill:#263238;stroke:#263238;stroke-linecap:round;stroke-linejoin:round;stroke-miterlimit:10;" d="
				M316.738,130.832c0.003-0.283,0.01-0.574,0.011-0.851c3.027-0.567,5.32-3.214,5.32-6.406c0-2.982-2.011-5.469-4.743-6.249
				c1.694-1.179,2.808-3.135,2.808-5.356c0-3.099-2.165-5.681-5.061-6.348c1.478-1.613,2.401-3.743,2.401-6.103
				c0-5.007-4.059-9.066-9.067-9.066c-0.649,0-1.279,0.074-1.89,0.204c0.187-0.726,0.318-1.474,0.318-2.259
				c0-5.007-4.059-9.066-9.066-9.066c-1.801,0-3.47,0.541-4.882,1.447c-1.336-5.007-5.889-8.7-11.317-8.7
				c-4.336,0-8.113,2.36-10.142,5.86c-0.745-5.759-5.656-10.211-11.617-10.211c-4.946,0-9.167,3.066-10.891,7.398
				c-2.079-3.28-5.731-5.463-9.902-5.463c-5.32,0-9.806,3.545-11.24,8.401c-1.633-1.303-3.674-2.115-5.926-2.115
				c-4.408,0-8.082,3.003-9.182,7.063c-0.909-0.48-1.929-0.777-3.028-0.777c-3.605,0-6.528,2.923-6.528,6.528
				c0,0.788,0.162,1.534,0.418,2.234c-0.796-0.345-1.671-0.542-2.594-0.542c-3.605,0-6.528,2.923-6.528,6.528
				c0,1.247,0.368,2.4,0.974,3.391c-2.783,0.747-4.842,3.262-4.842,6.28c0,2.159,1.061,4.058,2.676,5.247
				c-2.913,0.655-5.094,3.247-5.094,6.359c0,3.033,2.078,5.559,4.881,6.293c-1.49,1.196-2.463,3.011-2.463,5.071
				c0,1.961,0.882,3.699,2.251,4.895c-2.693,0.805-4.668,3.272-4.668,6.226c0,3.446,2.68,6.239,6.064,6.481
				c0.292,2.001,0.686,3.537,1.189,4.399c3.385,5.803,4.836,8.22,4.836,8.22s1.555,8.122,4.655,11.562
				c0.648,8.375,2.115,28.345,2.115,37.76c0,12.089,5.319,27.562,28.046,41.102c22.727,13.539,53.19,5.319,66.246-8.22
				c13.056-13.539,8.22-41.585,7.253-55.125c-0.572-8.002-0.804-16.498-0.9-23.616c0.898-0.324,2.038-1.098,3.318-2.012
				c1.376-0.983,2.588-4.462,3.547-9.003c0.189,0.016,0.371,0.057,0.564,0.057c3.605,0,6.528-2.923,6.528-6.528
				c0-1.679-0.652-3.195-1.694-4.352c1.042-1.157,1.694-2.673,1.694-4.352C321.586,134.094,319.524,131.577,316.738,130.832z
				 M300.31,213.031c-5.319,5.803-16.441-0.484-22.243-6.286c-5.803-5.803-11.605-7.253-25.628-3.868
				c-14.023,3.385-15.957,12.572-25.144,15.474c-9.188,2.901-12.089-8.704-14.023-17.891c-1.934-9.188-3.385-35.783-3.385-35.783
				c0-5.319,6.77-6.286,9.671-15.473c2.901-9.187-3.868-14.507,0.967-27.079c4.786-12.442,19.796,4.69,20.083,4.987
				c6.891,7.129,20.761,7.028,29.992,6.189c5.237-0.476,11.741-8.033,16.779-12.469c3.194-2.813,8.251-1.164,9.331,2.952
				c1.38,5.256,2.902,11.82,2.63,14.275c-0.484,4.352,0.657,4.171,4.525,10.941c1.911,3.344,1.617,1.228,1.929,3.561
				c-0.237,4.17-0.43,11.658-1.132,23.238C303.695,191.755,305.629,207.229,300.31,213.031z"/>
			
				<line style="fill:none;stroke:#263238;stroke-width:5;stroke-linecap:round;stroke-linejoin:round;stroke-miterlimit:10;" x1="227.778" y1="161.292" x2="251.955" y2="164.193"/>
			<path style="fill:none;stroke:#263238;stroke-width:5;stroke-linecap:round;stroke-linejoin:round;stroke-miterlimit:10;" d="
				M270.33,154.038c0,0,4.835-12.089,19.826-4.352"/>
			<g>
				<defs>
					<path id="XMLID_2_" d="M268.396,162.742c0,0-0.967,16.924,0.483,25.145c1.451,8.22,7.253,19.342-4.352,22.243
						c-11.605,2.901-16.441-2.901-15.474-11.122"/>
				</defs>
				<use xlink:href="#XMLID_2_"  style="overflow:visible;fill:#CCCCCC;"/>
				<clipPath id="XMLID_00000152985223001642554520000016218638225741819280_">
					<use xlink:href="#XMLID_2_"  style="overflow:visible;"/>
				</clipPath>
				<path style="opacity:0.3;clip-path:url(#XMLID_00000152985223001642554520000016218638225741819280_);" d="M249.718,203.887
					c0,0,9.385,6.006,15.391,2.252c6.006-3.754,4.913-12.479,3.77-18.252c-1.143-5.773-1.518-10.277-1.518-10.277
					s6.757,20.271,4.504,26.652c-2.252,6.382-12.763,10.135-19.895,7.508C244.838,209.142,249.718,203.887,249.718,203.887z"/>
				
					<use xlink:href="#XMLID_2_"  style="overflow:visible;fill:none;stroke:#263238;stroke-linecap:round;stroke-linejoin:round;stroke-miterlimit:10;"/>
			</g>
			<path style="fill:#263238;" d="M249.25,168.9c0,2.938-1.407,5.319-3.143,5.319c-1.736,0-3.143-2.381-3.143-5.319
				c0-2.938,1.407-5.319,3.143-5.319C247.842,163.581,249.25,165.963,249.25,168.9z"/>
			<path style="fill:#263238;" d="M287.309,166.277c0,2.938-1.407,5.319-3.143,5.319s-3.143-2.381-3.143-5.319
				c0-2.938,1.407-5.319,3.143-5.319S287.309,163.339,287.309,166.277z"/>
			<path style="fill:none;stroke:#666666;stroke-width:3;stroke-linecap:round;stroke-linejoin:round;stroke-miterlimit:10;" d="
				M262.109,220.285c0,0,4.352,0.967,10.155-6.286"/>
		</g>
		<g>
			<g>
				<defs>
					<path id="XMLID_6_" d="M216.565,447.149L256.79,343.65c0,0,2.901-1.934,10.155-9.671c7.253-7.737,4.352-18.375,4.352-18.375
						s0.967,3.385,4.836,3.385c3.868,0,9.187-0.967,11.605-6.286c2.418-5.319-0.484-16.441-1.934-25.628
						c-1.451-9.187-7.253-26.595-11.605-26.595c-4.352,0-27.562,7.253-27.562,7.253s-2.418-11.122-1.934-14.507
						c0.484-3.385,21.276-8.22,23.21-7.253c1.934,0.967,4.352,3.385,8.22,1.934c3.868-1.451,0-5.319-2.901-11.122
						s-24.661-1.934-31.431,0.967c-6.77,2.901-16.924,4.836-14.506,14.99c2.418,10.155,6.286,71.565,6.286,71.565
						s0,4.352-5.803,14.507c-4.907,8.587-63.943,84.96-82.052,108.334"/>
				</defs>
				<use xlink:href="#XMLID_6_"  style="overflow:visible;fill:#CCCCCC;"/>
				<clipPath id="XMLID_00000062193932439413156060000008598458262542564272_">
					<use xlink:href="#XMLID_6_"  style="overflow:visible;"/>
				</clipPath>
				<path style="opacity:0.3;clip-path:url(#XMLID_00000062193932439413156060000008598458262542564272_);" d="M276.133,318.989
					c2.603,0,5.86-0.445,8.451-2.352c1.861-2.338,3.366-6.385-0.76-12.011c-6.871-9.369-21.862,0.625-27.483,4.997
					c-5.622,4.372-8.745,0-13.742-6.246c-3.879-4.849-9.383-20.253-12.921-31.133c1.981,21.565,3.902,52.064,3.902,52.064
					s0,4.352-5.803,14.507c-4.907,8.587-63.943,84.96-82.052,108.334h42.513c19.469-27.393,58.035-94.722,60.606-101.922
					c2.035-5.699,8.846-6.094,15.245-8.27c0.868-0.885,1.811-1.865,2.855-2.978c7.253-7.737,4.352-18.375,4.352-18.375
					S272.264,318.989,276.133,318.989z"/>
				
					<use xlink:href="#XMLID_6_"  style="overflow:visible;fill:none;stroke:#263238;stroke-linecap:round;stroke-linejoin:round;stroke-miterlimit:10;"/>
			</g>
			<path style="fill:none;stroke:#263238;stroke-linecap:round;stroke-linejoin:round;stroke-miterlimit:10;" d="M249.537,282.239
				c0,0,25.628-6.77,27.562-6.77s6.286,3.868,6.286,3.868"/>
			<path style="fill:none;stroke:#263238;stroke-linecap:round;stroke-linejoin:round;stroke-miterlimit:10;" d="M253.889,299.163
				c0,0,22.727-5.803,26.595-5.803c3.868,0,6.286,2.418,6.286,2.418"/>
			<path style="fill:none;stroke:#263238;stroke-linecap:round;stroke-linejoin:round;stroke-miterlimit:10;" d="M267.912,317.055
				c0,0,4.836-1.451,11.605-6.77"/>
		</g>
	</g>
</g>
<g id="Devil">
	<g>
		<ellipse style="opacity:0.3;" cx="367.655" cy="307.55" rx="35.745" ry="7.078"/>
		<g>
			<g>
				<path style="fill:#263238;stroke:#263238;stroke-linecap:round;stroke-linejoin:round;stroke-miterlimit:10;" d="
					M387.733,200.089c0,0,11.06,8.468,13.479,23.675s-1.382,24.884,0.691,31.796c2.074,6.912,3.283,8.813,3.283,8.813
					s0.518,0-11.578,2.765c-12.097,2.765-19.873,4.147-26.612-0.346c-6.739-4.493-12.269-7.949-16.935-9.504
					c-4.666-1.555-11.751,0.864-11.751,0.864s5.703-8.468,16.417-15.207c10.714-6.739,9.332-11.06,6.221-19.7
					c-3.111-8.64-7.949-17.454-7.949-17.454s6.176-4.992,15.012-7.334C376.846,196.115,386.524,199.571,387.733,200.089z"/>
				<path style="fill:#C6FF00;stroke:#263238;stroke-linecap:round;stroke-linejoin:round;stroke-miterlimit:10;" d="
					M401.903,237.243c0,0,0.518,6.048-2.938,13.997c-3.456,7.949-2.419,16.417-1.901,18.663c0.518,2.246,0.691,4.839,0.691,4.839
					s5.184-2.419,7.776-4.147c2.592-1.728,2.938-3.629,2.938-3.629s-2.592-2.765-4.839-11.578
					C401.385,246.575,401.903,237.243,401.903,237.243z"/>
			</g>
			<path style="fill:#C6FF00;stroke:#263238;stroke-linecap:round;stroke-linejoin:round;stroke-miterlimit:10;" d="
				M359.738,209.767c0,0,8.122-5.011,12.615-8.295c4.493-3.283,15.38-1.383,15.38-1.383s-6.221-4.147-11.924-5.357
				c-5.703-1.21-18.49,2.592-21.428,4.147c-2.938,1.555,1.987,12.675,1.987,12.675L359.738,209.767z"/>
			<g>
				<g>
					<path style="fill:#C6FF00;stroke:#263238;stroke-linecap:round;stroke-linejoin:round;stroke-miterlimit:10;" d="
						M350.912,201.914c0,0-1.689,3.282-5.084,7.788c-3.395,4.506-8.95,11.225-8.95,11.225l-2.924-10.134l-5.653,1.197
						c0,0-2.129,16.431-0.97,19.61c1.159,3.179,4.906,3.322,9.511,1.82c4.605-1.502,17.709-7.858,17.709-7.858l3.638,6.367
						l-6.366,18.19c0,0-12.551,11.824-14.188,16.007c-1.637,4.184,2.001,8.913,5.457,16.371c3.456,7.458,5.457,11.824,5.457,11.824
						s-0.728,2.001-1.637,2.91c-0.91,0.91-10.005,1.637-11.096,3.456s6.003,4.366,12.551,4.366c6.548,0,11.46-0.91,11.278-3.82
						c-0.182-2.91-4.184-10.005-4.911-13.824c-0.728-3.82-1.273-15.826-1.273-15.826s9.823-9.823,11.278-10.004
						c1.455-0.182,9.459,2.365,10.368,3.092c0.91,0.728,2.183,2.365,5.457,8.731c3.274,6.367,13.55,23.347,13.55,23.347
						s1.637,5.821,2.91,9.095c1.273,3.274,4.548,6.912,7.094,4.911c2.547-2.001,2.183-6.548,0.546-9.823
						c-1.637-3.274-6.003-4.548-6.73-7.822s-2.636-15.525-3.91-23.893c-1.273-8.367-4.366-19.827-5.275-23.647
						c-0.91-3.82,0.364-19.827-1.819-28.013c-2.183-8.186-6.73-12.187-11.824-15.28c-5.093-3.092-11.824-2.547-16.007-2.001
						c-4.184,0.546-6.185,0.728-6.185,0.728L350.912,201.914z"/>
					<polyline style="fill:none;stroke:#263238;stroke-linecap:round;stroke-linejoin:round;stroke-miterlimit:10;" points="
						350.13,218.473 354.55,225.561 347.131,221.847 					"/>
					<path style="fill:none;stroke:#263238;stroke-linecap:round;stroke-linejoin:round;stroke-miterlimit:10;" d="M353.316,252.397
						c0,0,2.074,3.939,6.747,6.56"/>
					
						<line style="fill:#FFFFFF;stroke:#263238;stroke-linecap:round;stroke-linejoin:round;stroke-miterlimit:10;" x1="364.736" y1="261.578" x2="357.814" y2="260.456"/>
					<path style="fill:none;stroke:#263238;stroke-linecap:round;stroke-linejoin:round;stroke-miterlimit:10;" d="M376.744,260.643
						c0,0,4.311-5.06,9.184-7.684"/>
					<path style="fill:none;stroke:#263238;stroke-linecap:round;stroke-linejoin:round;stroke-miterlimit:10;" d="M376.182,258.769
						c0,0,3.936-4.686,6.56-6.56"/>
					
						<line style="fill:none;stroke:#263238;stroke-linecap:round;stroke-linejoin:round;stroke-miterlimit:10;" x1="336.878" y1="220.926" x2="338.825" y2="225.494"/>
				</g>
				<g>
					<path style="fill:#CCCCCC;stroke:#263238;stroke-linecap:round;stroke-linejoin:round;stroke-miterlimit:10;" d="
						M333.75,211.491c0,0,3.548-5.03,4.113-8.275c0.565-3.245-0.885-8.025-1.759-8.279c-0.873-0.254-1.251,0.394-0.858,1.645
						c0.394,1.251,0.489,2.226,0.489,2.226s-1.508-3.281-1.174-5.078c0.334-1.797-1.086-2.779-3.465-1.766
						c-2.379,1.013-3.725,0.431-4.865,3.699c-1.14,3.268-1.306,6.44-1.195,9.314c0.111,2.874,3.264,7.012,3.264,7.012
						L333.75,211.491z"/>
					<path style="fill:none;stroke:#263238;stroke-linecap:round;stroke-linejoin:round;stroke-miterlimit:10;" d="M329.023,192.762
						c0,0,0.705,0.027,0.362,1.413c-0.344,1.386-1.507,3.543-1.371,4.712c0.135,1.168,0.419,2.44,0.419,2.44"/>
					<path style="fill:none;stroke:#263238;stroke-linecap:round;stroke-linejoin:round;stroke-miterlimit:10;" d="M331.098,191.964
						c0,0,1.123,0.837,0.725,2.207c-0.399,1.37-0.917,4.785-0.896,5.326c0.021,0.541,0.142,1.349,0.142,1.349"/>
					<path style="fill:none;stroke:#263238;stroke-linecap:round;stroke-linejoin:round;stroke-miterlimit:10;" d="M333.206,191.662
						c0,0,0.733,0.748,0.346,2.894c-0.387,2.146-1.08,4.117-0.193,5.768"/>
					
						<line style="fill:none;stroke:#263238;stroke-linecap:round;stroke-linejoin:round;stroke-miterlimit:10;" x1="327.497" y1="201.886" x2="332.574" y2="200.57"/>
					<path style="fill:none;stroke:#263238;stroke-linecap:round;stroke-linejoin:round;stroke-miterlimit:10;" d="M333.924,201.855
						c0,0-0.123,1.034-1.131,2.048c-1.008,1.014-1.546,2.046-1.365,3.466"/>
				</g>
			</g>
			<g>
				<path style="fill:#C6FF00;stroke:#263238;stroke-linecap:round;stroke-linejoin:round;stroke-miterlimit:10;" d="
					M381.481,221.266c0,0-0.289,5.204-1.879,8.673s0,8.673,5.637,9.829c5.637,1.156,7.516-4.77,7.516-7.083
					c0-2.313-2.457-8.528-2.457-9.251c0-0.723-2.746-5.348-8.239-2.024"/>
				<path style="fill:#263238;" d="M400.729,157.144l-5.779-14.859l-3.44,14.859l2.781-2.434l0.684,15.241l-8.799,11.427
					l-1.312-27.036l3.207,2.565l-5.778-14.859l-3.44,14.859l3.005-2.63l1.332,27.438l-9.721-9.952l-1.353-14.879l3.297,2.637
					l-5.779-14.859l-3.44,14.859l2.918-2.553l1.418,15.597c0.031,0.343,0.18,0.665,0.421,0.912l12.458,12.754l4.521,93.138
					c0.039,0.802,0.702,1.427,1.496,1.427c0.025,0,0.05-0.001,0.074-0.002c0.827-0.04,1.465-0.743,1.425-1.57l-4.525-93.224
					l11.285-14.656c0.216-0.28,0.326-0.628,0.31-0.982l-0.717-15.98L400.729,157.144z"/>
				<g>
					<path style="fill:#CCCCCC;stroke:#263238;stroke-linecap:round;stroke-linejoin:round;stroke-miterlimit:10;" d="
						M386.974,215.339c0,0-5.493-0.434-6.938,0.289c-1.445,0.723-1.012,4.481-1.012,6.215c0,1.735,1.879,3.325,3.036,2.313
						c1.156-1.012,1.301-5.637,1.301-5.637s2.078-0.045,3.568-0.962C388.419,216.64,387.986,215.195,386.974,215.339z"/>
					<path style="fill:#CCCCCC;stroke:#263238;stroke-linecap:round;stroke-linejoin:round;stroke-miterlimit:10;" d="
						M383.215,224.301c0,0-1.879,0.723-1.156,1.879c0.723,1.156,2.457,2.313,6.071,2.313s5.348-2.313,4.77-3.614
						c-0.578-1.301-2.746-0.145-4.625-0.145C386.395,224.735,383.215,224.301,383.215,224.301z"/>
					<path style="fill:#CCCCCC;stroke:#263238;stroke-linecap:round;stroke-linejoin:round;stroke-miterlimit:10;" d="
						M382.059,221.41c0,0-1.012,1.59,0,2.746c1.012,1.156,3.614,1.879,7.661,2.024c4.047,0.145,4.047-3.324,3.18-4.626
						c-0.867-1.301-4.914,0.289-6.649,0.289C384.516,221.844,382.059,221.41,382.059,221.41z"/>
					<path style="fill:#CCCCCC;stroke:#263238;stroke-linecap:round;stroke-linejoin:round;stroke-miterlimit:10;" d="
						M383.071,219.097c-0.577,0.036-1.879,0.867-1.012,2.313c0.867,1.446,2.602,2.313,6.071,2.313s4.77-0.578,5.204-2.746
						c0.434-2.168-0.723-2.602-2.313-2.313C389.431,218.953,385.384,218.953,383.071,219.097z"/>
					<path style="fill:#CCCCCC;stroke:#263238;stroke-linecap:round;stroke-linejoin:round;stroke-miterlimit:10;" d="
						M389.576,214.761c0,0-5.204,0.723-6.649,1.012c-1.445,0.289-1.879,2.457-1.301,3.469c0.578,1.012,5.204,1.879,8.239,1.156
						c3.035-0.723,3.903-1.735,3.469-4.047C392.9,214.038,390.298,214.616,389.576,214.761z"/>
				</g>
				
					<line style="fill:none;stroke:#263238;stroke-linecap:round;stroke-linejoin:round;stroke-miterlimit:10;" x1="379.024" y1="233.552" x2="373.675" y2="220.254"/>
			</g>
			<g>
				<path style="fill:#C6FF00;stroke:#263238;stroke-linecap:round;stroke-linejoin:round;stroke-miterlimit:10;" d="
					M356.694,211.461c0,0,8.074,0.012,14.538-9.782c6.465-9.794,7.186-18.436,7.186-18.436s-11.04,7.865-16.692,8.664
					c-5.653,0.799-15.936,1.346-15.936,1.346s-0.434,5.335,3.134,12.64C352.491,213.197,356.694,211.461,356.694,211.461z"/>
				<polygon style="fill:none;stroke:#263238;stroke-linecap:round;stroke-linejoin:round;stroke-miterlimit:10;" points="
					356.694,211.461 354.648,217.692 358.927,216.858 				"/>
				<g>
					<path style="fill:#CCCCCC;stroke:#263238;stroke-linecap:round;stroke-linejoin:round;stroke-miterlimit:10;" d="
						M335.839,164.772c0,0-2.835,8.098-2.453,10.263c0.382,2.165,2.048,3.72-0.399,6.659c-2.447,2.939-4.229,5.486-3.001,6.553
						c1.228,1.067,3.171,0.816,3.171,0.816s-0.559,4.364,0.864,9.05c1.424,4.686,3.501,10.48,6.813,10.018
						c3.312-0.462,8.633-4.352,8.633-4.352s5.238,8.11,7.227,7.682c1.988-0.427,5.267-8.787,6.279-14.913
						c1.013-6.125,1.712-5.194-0.17-7.369c-1.882-2.175-4.424-4.707-4.424-4.707s-3.175-6.64-2.912-12.77
						c0.263-6.131,2.307-8.234-5.907-13.541C341.348,152.854,336.071,163.142,335.839,164.772z"/>
					<path style="fill:#263238;stroke:#263238;stroke-linecap:round;stroke-linejoin:round;stroke-miterlimit:10;" d="
						M374.065,181.183c0.38-1.475-0.276-2.959-1.501-3.727c0.534-0.443,0.944-1.045,1.131-1.768c0.328-1.276-0.122-2.559-1.04-3.382
						c0.487-0.435,0.856-1.013,1.03-1.692c0.47-1.824-0.629-3.684-2.453-4.153c-0.667-0.172-1.337-0.13-1.944,0.077
						c0.818-0.318,1.479-1.006,1.714-1.92c0.388-1.508-0.52-3.045-2.028-3.433c-0.634-0.163-1.268-0.086-1.825,0.157
						c0.184-0.266,0.333-0.563,0.418-0.895c0.388-1.508-0.52-3.045-2.028-3.433c-0.734-0.189-1.473-0.066-2.085,0.279
						c0.155-1.374-0.71-2.688-2.087-3.043c-1.278-0.329-2.57,0.279-3.173,1.389c-0.036-0.017-0.07-0.031-0.105-0.048
						c0.022-0.066,0.054-0.126,0.072-0.195c0.388-1.508-0.52-3.045-2.028-3.433c-1.313-0.338-2.647,0.308-3.227,1.476
						c-0.031-1.228-0.855-2.339-2.104-2.66c-1.449-0.373-2.914,0.457-3.372,1.861c-0.317-0.821-1.006-1.484-1.923-1.721
						c-1.508-0.388-3.045,0.52-3.433,2.028c-0.075,0.291-0.088,0.581-0.071,0.866c-0.83-0.483-2.437-0.953-4.769,0.424
						c-3.544,2.093-2.286,5.234-2.286,5.234s-5.688-0.525-6.333,3.442s0.965,7.198,5.027,6.741c4.062-0.457,5.684-5.299,5.684-5.299
						s0.328-2.733,3.333-3.462c3.005-0.729,8.677,2.045,8.958,6.062c0.281,4.017-4.51,1.469-4.929,4.554
						c-0.418,3.086,3.412,4.259,3.562,8.054c0.15,3.795-0.254,11.204-2.514,12.689c-2.26,1.484-4.319-0.736-6.468-2.604
						c-2.149-1.868-7.081-3.137-8.114-0.585c-1.032,2.552-0.006,7.324,0.667,12.005c0.674,4.681,2.107,7.868,6.607,7.899
						c4.5,0.031,8.633-4.352,8.633-4.352s7.451-5.596,8.533-9.074s-3.95-9.469-3.747-13.173c0.202-3.705,0.594-3.04,2.482-1.615
						c1.887,1.425,1.459,6.01,3.124,7.566c0.464,0.433,0.888,0.728,1.308,0.921c0.29,1.42,1.347,2.627,2.845,3.012
						c2.092,0.538,4.224-0.721,4.762-2.813c0.086-0.333,0.111-0.665,0.109-0.994c1.57,0.062,3.026-0.972,3.434-2.555
						c0.205-0.798,0.097-1.595-0.227-2.287C372.815,183.281,373.752,182.401,374.065,181.183z M369.102,166.615
						c-0.002-0.004-0.004-0.008-0.006-0.013c0.024-0.007,0.048-0.01,0.072-0.018C369.145,166.593,369.125,166.606,369.102,166.615z"
						/>
					<g>
						<path style="fill:#FFFFFF;stroke:#263238;stroke-linecap:round;stroke-linejoin:round;stroke-miterlimit:10;" d="
							M344.499,154.852c-0.524,0.595-0.642,1.451-0.407,2.208c0.353,1.14,0.744,3.193-0.391,4.584
							c-1.646,2.018-3.549,2.843-2.508,5.365c1.041,2.522,5.053,2.991,7.223,1.859c2.17-1.132,1.597-7.666,0.123-11.426
							C347.36,154.434,345.629,153.568,344.499,154.852z"/>
						<g>
							
								<path style="fill:none;stroke:#263238;stroke-width:2;stroke-linecap:round;stroke-linejoin:round;stroke-miterlimit:10;" d="
								M336.763,177.97c0,0-1.167-3.493,3.901-2.753"/>
							<path style="fill:#263238;" d="M338.416,180.876c0.075,0.951-0.189,1.748-0.59,1.78c-0.401,0.032-0.786-0.714-0.861-1.666
								c-0.075-0.951,0.189-1.748,0.59-1.78C337.956,179.178,338.341,179.924,338.416,180.876z"/>
							
								<line style="fill:none;stroke:#263238;stroke-linecap:round;stroke-linejoin:round;stroke-miterlimit:10;" x1="337.738" y1="183.668" x2="341.408" y2="182.546"/>
						</g>
					</g>
					<path style="fill:#FFFFFF;stroke:#263238;stroke-linecap:round;stroke-linejoin:round;stroke-miterlimit:10;" d="
						M340.294,190.524c0,0-0.715,1.319-2.447,2.939c-1.732,1.62-2.613,1.394-2.613,1.394s1.308,2.215,4.006,1.219
						C341.939,195.08,340.294,190.524,340.294,190.524z"/>
					<path style="fill:#CCCCCC;stroke:#263238;stroke-linecap:round;stroke-linejoin:round;stroke-miterlimit:10;" d="
						M354.948,183.213c0,0-0.276-4.767,2.307-8.234c2.583-3.467,9.036-5.188,9.821-3.859c0.785,1.329-2.363,9.91-4.89,11.702
						c-2.527,1.792-6.106,2.561-6.106,2.561"/>
				</g>
			</g>
		</g>
	</g>
</g>
<g id="Angel">
	<g>
		<ellipse style="opacity:0.3;" cx="155.223" cy="305.073" rx="24.066" ry="9.556"/>
		<g>
			<g>
				<path style="fill:#FFFFFF;stroke:#263238;stroke-linecap:round;stroke-linejoin:round;stroke-miterlimit:10;" d="
					M161.87,203.888c0,0,4.458-5.483-5.267-17.298c-3.864-4.695-11.922-8.532-16.609-14.233c-4.687-5.701-6.25-8.217-7.968-4.201
					c-1.718,4.016,1.342,6.117,3.383,9.366c2.041,3.249,7.524,7.706,7.524,7.706s-5.576-0.538-9.083-2.831
					c-3.506-2.292-4.78-1.781-4.46,1.787c0.321,3.568,3.604,5.765,6.823,6.878c3.219,1.113,6.342,2.45,6.342,2.45
					s-7.041,0.418-9.909-0.281c-2.868-0.699-4.971-1.335-3.758,2.615c1.213,3.95,6.217,5.827,8.606,5.794
					c2.39-0.033,4.684,0.157,4.684,0.157s-8.474,1.917-11.15,2.619c-2.676,0.702-0.986,3.537,1.022,4.396
					c2.008,0.859,9.591,0.409,9.591,0.409s-6.785,2.903-5.063,6.28c1.723,3.376,10.771-1.41,10.771-1.41s5.512,2.834,11.468-1.216
					C164.773,208.825,161.87,203.888,161.87,203.888z"/>
				<path style="fill:none;stroke:#263238;stroke-linecap:round;stroke-linejoin:round;stroke-miterlimit:10;" d="M152.336,191.627
					c0,0-5.291-3.056-5.863,0.131s6.345,7.994,6.345,7.994s-6.947-1.653-6.849,1.82c0.098,3.473,8.16,5.603,8.16,5.603"/>
			</g>
			<g>
				<path style="fill:#FFFFFF;stroke:#263238;stroke-linecap:round;stroke-linejoin:round;stroke-miterlimit:10;" d="
					M144.657,202.318c0,0,1.941-6.794-11.648-13.831c-5.4-2.796-14.317-3.155-20.869-6.552c-6.552-3.397-8.978-5.096-8.978-0.728
					c0,4.368,3.64,5.096,6.794,7.28c3.155,2.184,9.949,4.125,9.949,4.125s-5.339,1.699-9.464,0.971
					c-4.125-0.728-5.096,0.243-3.397,3.397c1.699,3.155,5.581,3.883,8.978,3.64c3.397-0.243,6.794-0.243,6.794-0.243
					s-6.309,3.155-9.221,3.64c-2.912,0.485-5.096,0.728-2.427,3.882c2.669,3.155,8.008,2.912,10.192,1.941
					c2.184-0.971,4.368-1.699,4.368-1.699s-7.037,5.096-9.221,6.794c-2.184,1.699,0.485,3.64,2.669,3.64s8.978-3.397,8.978-3.397
					s-5.096,5.339-2.184,7.765c2.912,2.427,9.348-5.533,9.348-5.533s6.182,0.437,10.065-5.629
					C149.268,205.715,144.657,202.318,144.657,202.318z"/>
				<path style="fill:none;stroke:#263238;stroke-linecap:round;stroke-linejoin:round;stroke-miterlimit:10;" d="M131.069,194.795
					c0,0-6.067-0.728-5.339,2.427c0.728,3.154,8.978,4.853,8.978,4.853s-7.037,1.213-5.581,4.368
					c1.456,3.155,9.706,1.941,9.706,1.941"/>
			</g>
			<path style="fill:#FFFFFF;stroke:#263238;stroke-linecap:round;stroke-linejoin:round;stroke-miterlimit:10;" d="
				M147.084,292.344c0,0,0.243,3.883-1.456,5.096c-1.699,1.213-11.162,6.794-9.706,8.008c1.456,1.213,11.162-1.456,14.317-3.883
				c3.155-2.427,2.184-9.464,2.184-9.464S149.025,292.344,147.084,292.344z"/>
			<path style="fill:#FFFFFF;stroke:#263238;stroke-linecap:round;stroke-linejoin:round;stroke-miterlimit:10;" d="
				M163.089,292.344c0,0-0.243,3.883,1.456,5.096c1.699,1.213,11.162,6.794,9.706,8.008c-1.456,1.213-11.162-1.456-14.317-3.883
				c-3.155-2.427-2.184-9.464-2.184-9.464S161.147,292.344,163.089,292.344z"/>
			<g>
				<path style="fill:#FFFFFF;stroke:#263238;stroke-linecap:round;stroke-linejoin:round;stroke-miterlimit:10;" d="
					M184.358,222.593c-1.395-5.183-9.17-14.153-14.552-20.931c-5.382-6.778-9.568-8.372-12.758-8.173
					c0,0-12.957,6.778-18.738,10.166c-5.781,3.389-3.788,8.771-2.99,13.755c0.482,3.01,1.618,19.695,2.442,32.435
					c0.107,2.406,0.28,5.58,0.54,8.458c0.249,3.965,0.407,6.55,0.407,6.55l0.095,2.655c-0.133,2.704-0.456,5.317-0.456,8.82
					c0,6.066,0.485,13.104,0.485,13.104l6.794,3.64c0,0,4.61,4.853,12.618,4.125c8.008-0.728,10.192-6.552,10.192-6.552
					s2.912-0.728,3.882-2.669c0.971-1.941,1.456-28.634,1.941-33.729c0.001-0.009,0-0.019,0.001-0.028
					c0.709-5.622,1.318-10.744,1.524-13.286c0.598-7.376,1.794-10.964,1.794-10.964S185.754,227.776,184.358,222.593z"/>
				<path style="fill:#C6FF00;stroke:#263238;stroke-linecap:round;stroke-linejoin:round;stroke-miterlimit:10;" d="
					M157.048,193.489c0,0-5.112,2.674-10.346,5.502c2.617,6.079,10.803,24.338,14.278,23.243c2.873-0.905,6.155-12.743,8.052-21.514
					C164.022,194.744,160.083,193.3,157.048,193.489z"/>
				<path style="fill:#C6FF00;stroke:#263238;stroke-linecap:round;stroke-linejoin:round;stroke-miterlimit:10;" d="
					M173.503,271.53c-1.514,1.198-3.034,2.431-4.169,3.424c0,0-4.607,4.189-14.241,4.189c-9.633,0-10.471-2.932-10.471-2.932
					s-2.965-0.32-6.227-2.182c-0.028,0.728-0.047,1.488-0.047,2.299c0,1.663,0.037,3.395,0.09,5.039l6.184,4.895
					c0,0,4.607,4.188,13.403,3.77c8.796-0.419,11.309-6.702,11.309-6.702s1.424,0.165,3.683-1.557
					C173.198,278.85,173.357,275.217,173.503,271.53z"/>
				
					<line style="fill:none;stroke:#263238;stroke-linecap:round;stroke-linejoin:round;stroke-miterlimit:10;" x1="144.53" y1="291.419" x2="143.925" y2="270.563"/>
				
					<line style="fill:none;stroke:#263238;stroke-linecap:round;stroke-linejoin:round;stroke-miterlimit:10;" x1="168.955" y1="258.477" x2="169.013" y2="254.846"/>
				
					<line style="fill:none;stroke:#263238;stroke-linecap:round;stroke-linejoin:round;stroke-miterlimit:10;" x1="168.438" y1="290.645" x2="168.882" y2="263.005"/>
			</g>
			<path style="fill:#CCCCCC;stroke:#263238;stroke-linecap:round;stroke-linejoin:round;stroke-miterlimit:10;" d="
				M152.264,193.489c0,0,5.183,16.346,7.376,16.944c2.193,0.598,3.189-16.745,3.189-16.745L152.264,193.489z"/>
			<path style="fill:#FFFFFF;stroke:#263238;stroke-linecap:round;stroke-linejoin:round;stroke-miterlimit:10;" d="
				M174.115,222.721c0,0,4.986-1.824,6.202-2.675c1.216-0.851,4.135-0.608,5.472,3.892c1.338,4.499,1.216,9.85-1.702,12.89
				c-2.919,3.04-10.58,6.08-10.58,6.08s-3.77-13.255-3.648-17.755S174.115,222.721,174.115,222.721z"/>
			<path style="fill:#C6FF00;stroke:#263238;stroke-linecap:round;stroke-linejoin:round;stroke-miterlimit:10;" d="M181.061,225.53
				c-0.227-2.946-1.065-4.292-1.789-4.912c-1.889,0.907-5.158,2.103-5.158,2.103s-4.135-2.067-4.256,2.432
				s3.648,17.755,3.648,17.755s4.532-1.802,7.953-4.017C181.424,234.978,181.327,228.989,181.061,225.53z"/>
			<path style="fill:#263238;stroke:#263238;stroke-linecap:round;stroke-linejoin:round;stroke-miterlimit:10;" d="
				M173.507,242.908c0,0,2.554-5.351,2.554-9.729c0-4.378-1.216-9.242-1.581-9.85c-0.365-0.608-3.648-2.189-4.621,0.73
				C168.885,226.978,172.898,241.449,173.507,242.908z"/>
			<path style="fill:#CCCCCC;stroke:#263238;stroke-linecap:round;stroke-linejoin:round;stroke-miterlimit:10;" d="
				M168.034,207.156c0,0,3.892,0.243,4.621,4.013c0.73,3.77,2.189,10.702,2.675,12.891c0.486,2.189,1.338,5.959-0.73,7.661
				c-2.067,1.702-5.229-0.365-6.932-3.648c-1.703-3.283-2.919-15.566-2.919-16.66S164.872,205.453,168.034,207.156z"/>
			<g>
				<path style="fill:#CCCCCC;stroke:#263238;stroke-linecap:round;stroke-linejoin:round;stroke-miterlimit:10;" d="
					M159.886,225.883c0,0,1.094-1.459,1.094-3.648c0-2.189-1.581-5.108-0.122-7.661c1.459-2.554,2.919-5.959,3.527-6.688
					c0.608-0.73,1.459-0.973,1.459-0.973s1.094-1.094,1.946-0.73c0.851,0.365,0.973,1.824,0.973,1.824s1.338,0.973,1.459,2.432
					c0.122,1.459,0.122,2.554,0.122,2.554s1.703,1.094,1.095,3.04c-0.608,1.946-1.702,4.864-1.581,7.175
					c0.122,2.311,0.122,5.716-1.581,7.905c-1.702,2.189-7.661,3.162-7.661,3.162L159.886,225.883z"/>
				<path style="fill:none;stroke:#263238;stroke-linecap:round;stroke-linejoin:round;stroke-miterlimit:10;" d="M165.845,206.912
					c0,0-2.189,5.108-2.554,7.053c-0.365,1.946-0.243,2.311-0.243,2.311"/>
				<path style="fill:none;stroke:#263238;stroke-linecap:round;stroke-linejoin:round;stroke-miterlimit:10;" d="M168.764,208.007
					c0,0-2.189,4.621-2.432,6.08c-0.243,1.459-0.486,3.77-0.486,3.77"/>
				<path style="fill:none;stroke:#263238;stroke-linecap:round;stroke-linejoin:round;stroke-miterlimit:10;" d="M170.345,212.993
					c0,0-1.946,3.162-2.189,4.256c-0.243,1.094-0.608,3.162-0.608,3.162"/>
			</g>
			<path style="fill:#FFFFFF;stroke:#263238;stroke-linecap:round;stroke-linejoin:round;stroke-miterlimit:10;" d="
				M138.311,203.656c0,0-7.974,1.993-8.372,4.385c-0.399,2.392,1.993,33.888,3.788,34.685c1.794,0.797,29.374,2.056,29.374,2.056
				l-2.463-19.598l-16.346,1.794c0,0-2.99-9.967-3.588-14.951"/>
			<path style="fill:#C6FF00;stroke:#263238;stroke-linecap:round;stroke-linejoin:round;stroke-miterlimit:10;" d="
				M152.969,244.272c5.549,0.302,10.13,0.511,10.13,0.511l-2.463-19.598l-9.999,1.097L152.969,244.272z"/>
			<path style="fill:none;stroke:#263238;stroke-linecap:round;stroke-linejoin:round;stroke-miterlimit:10;" d="M144.291,226.979
				c0,0-3.254-0.609-4.835,2.553"/>
			<g>
				<path style="fill:#CCCCCC;stroke:#263238;stroke-linecap:round;stroke-linejoin:round;stroke-miterlimit:10;" d="
					M171.103,163.827l0.13,0.464l3.216,11.511c0,0,1.937,4.755,0.528,8.277c-1.409,3.522-7.572,8.277-13.384,8.805
					c-5.811,0.528-11.799-4.755-13.208-10.39l-1.585-0.176c0,0-3.698,0.528-7.748-2.818c-4.05-3.346-5.142-7.147-1.426-9.561
					c3.716-2.414,6.357-1.005,6.357-1.005s-1.057-9.333,2.465-12.503c3.522-3.17,14.44-2.289,19.371-3.17
					c4.931-0.881,6.164,3.17,6.164,5.107C171.983,160.305,171.103,163.827,171.103,163.827z"/>
				<path style="fill:#263238;stroke:#263238;stroke-linecap:round;stroke-linejoin:round;stroke-miterlimit:10;" d="
					M177.619,186.368c-0.176-6.34-3.17-10.566-3.17-10.566s1.585,3.522-1.057,4.931c-2.641,1.409-2.994-0.881-6.516-1.233
					c-3.522-0.352-11.27,6.868-12.503,6.34c-1.233-0.528-4.931-7.748-6.164-9.686c-1.233-1.937-2.289-4.226,0.352-5.811
					c2.641-1.585,2.465-2.994,0.352-4.226c-2.113-1.233-1.585-5.988,3.698-6.516c5.283-0.528,4.755,2.289,8.629,1.761
					c3.874-0.528,7.044-4.403,7.044-4.403l2.818,6.868c0,0,2.758-1.795,2.345-4.907c0.607-0.517,1.001-1.277,1.001-2.137
					c0-1.139-0.68-2.115-1.653-2.559c0.155-0.349,0.244-0.733,0.244-1.139c0-1.299-0.884-2.382-2.081-2.708
					c0.084-0.318,0.144-0.646,0.144-0.99c0-2.14-1.734-3.874-3.874-3.874c-0.27,0-0.534,0.029-0.789,0.081
					c-0.369-1.756-1.924-3.075-3.79-3.075c-1.298,0-2.44,0.644-3.143,1.624c-0.598-1.369-1.96-2.328-3.549-2.328
					c-1.318,0-2.478,0.661-3.178,1.666c-0.516-0.585-1.263-0.962-2.105-0.962c-1.556,0-2.818,1.262-2.818,2.818
					c0,0.336,0.069,0.654,0.177,0.952c-0.477-0.878-1.396-1.481-2.466-1.481c-1.556,0-2.818,1.262-2.818,2.818
					c0,0.043,0.011,0.083,0.013,0.126c-0.377-0.187-0.796-0.302-1.245-0.302c-1.556,0-2.818,1.261-2.818,2.818
					c0,0.189,0.02,0.373,0.056,0.552c-0.078-0.006-0.152-0.023-0.232-0.023c-1.556,0-2.818,1.261-2.818,2.818
					c0,0.736,0.288,1.399,0.75,1.901c-1.146,0.358-1.983,1.414-1.983,2.678c0,0.988,0.51,1.854,1.28,2.357
					c-0.667,0.515-1.103,1.314-1.103,2.222c0,0.815,0.351,1.544,0.905,2.058c-0.757,0.505-1.257,1.366-1.257,2.344
					c0,1.556,1.262,2.818,2.818,2.818c0.175,0,0.344-0.021,0.511-0.051c1.384,2.155,3.188,1.636,3.188,1.636s3.17,3.698,4.579,8.981
					c1.409,5.283,1.585,10.566,4.05,13.208c2.465,2.641,12.327,6.516,20.076,4.579C177.266,196.406,177.795,192.708,177.619,186.368
					z M148.222,146.697c-0.002,0.001-0.003,0.001-0.005,0.002c-0.003-0.008-0.005-0.017-0.008-0.025
					C148.213,146.681,148.217,146.689,148.222,146.697z"/>
				<path style="fill:#FFFFFF;stroke:#263238;stroke-linecap:round;stroke-linejoin:round;stroke-miterlimit:10;" d="
					M155.548,131.39c-8.822,0-15.973,2.956-15.973,6.602c0,3.646,7.152,6.602,15.973,6.602c8.822,0,15.973-2.956,15.973-6.602
					C171.521,134.346,164.37,131.39,155.548,131.39z M155.548,141.52c-6.545,0-11.851-1.886-11.851-4.213s5.306-4.213,11.851-4.213
					c6.545,0,11.851,1.886,11.851,4.213S162.093,141.52,155.548,141.52z"/>
				<g>
					<path style="fill:#CCCCCC;stroke:#263238;stroke-linecap:round;stroke-linejoin:round;stroke-miterlimit:10;" d="
						M165.82,165.94c0,0-0.704,4.402,0.352,7.925c1.057,3.522,3.346,5.635,1.057,7.749c-2.289,2.113-5.459,0.704-5.635-1.585"/>
					<polyline style="fill:none;stroke:#263238;stroke-linecap:round;stroke-linejoin:round;stroke-miterlimit:10;" points="
						167.581,173.336 171.103,172.28 170.222,170.166 					"/>
					<polyline style="fill:none;stroke:#263238;stroke-linecap:round;stroke-linejoin:round;stroke-miterlimit:10;" points="
						156.134,175.626 160.361,175.097 159.832,172.456 					"/>
					<path style="fill:none;stroke:#263238;stroke-width:2;stroke-linecap:round;stroke-linejoin:round;stroke-miterlimit:10;" d="
						M160.361,167.173c0,0-4.755-2.642-7.044,1.585"/>
					<path style="fill:none;stroke:#263238;stroke-width:2;stroke-linecap:round;stroke-linejoin:round;stroke-miterlimit:10;" d="
						M166.524,165.236c0,0,0.352-3.17,2.994-1.761"/>
					<path style="fill:#FFFFFF;" d="M168.311,187.563c0,0.715-0.58,1.295-1.295,1.295c-0.715,0-1.295-0.58-1.295-1.295
						c0-0.715,0.58-1.295,1.295-1.295C167.731,186.268,168.311,186.848,168.311,187.563z"/>
				</g>
			</g>
		</g>
	</g>
</g>
</svg>
